<svg width="48" height="48" viewBox="0 0 48 48" fill="none" xmlns="http://www.w3.org/2000/svg">
<g id="icon">
<path id="Vector" d="M31.5601 28.86C29.098 28.86 26.6912 28.1294 24.6446 26.7607C22.598 25.392 21.0036 23.4467 20.0632 21.1713C19.1229 18.8958 18.8788 16.3925 19.3621 13.9783C19.8453 11.5641 21.0341 9.34759 22.7779 7.60942C24.5217 5.87126 26.742 4.68963 29.1577 4.21416C31.5735 3.73869 34.076 3.99075 36.3484 4.93845C38.6208 5.88614 40.5609 7.48683 41.923 9.53783C43.2851 11.5888 44.008 13.9979 44.0001 16.46C43.9974 18.091 43.6736 19.7055 43.047 21.2114C42.4204 22.7173 41.5033 24.085 40.3482 25.2364C39.193 26.3878 37.8224 27.3005 36.3145 27.9222C34.8066 28.544 33.1911 28.8626 31.5601 28.86ZM31.5601 5.23999C29.3432 5.24 27.1762 5.89789 25.3335 7.13034C23.4908 8.36279 22.0554 10.1144 21.2088 12.1632C20.3623 14.2121 20.1429 16.4661 20.5783 18.6398C21.0137 20.8134 22.0844 22.809 23.6547 24.3737C25.2251 25.9385 27.2245 27.002 29.3997 27.4296C31.5749 27.8573 33.8281 27.6298 35.8739 26.7759C37.9197 25.9221 39.6661 24.4803 40.892 22.6332C42.1178 20.7861 42.768 18.6168 42.7601 16.4C42.7442 13.4381 41.5579 10.6027 39.4598 8.51205C37.3616 6.42142 34.522 5.24522 31.5601 5.23999Z" fill="#FF8049"/>
<path id="Vector_2" d="M17.5399 25.6399C17.4465 25.8021 17.3395 25.956 17.2199 26.0999L13.9999 29.2599L5.43989 37.9999L5.13989 38.2799C5.0232 38.3966 4.86492 38.4622 4.69989 38.4622C4.53486 38.4622 4.37659 38.3966 4.25989 38.2799C4.1432 38.1633 4.07764 38.005 4.07764 37.8399C4.07764 37.6749 4.1432 37.5166 4.25989 37.4L4.47989 37.1799L16.2599 25.3799C16.3776 25.2691 16.5047 25.1687 16.6399 25.0799C17.0399 24.7399 17.5599 25.0599 17.5399 25.6399Z" fill="#FF8049"/>
<path id="Vector_3" d="M10.4202 44C9.80024 44 9.52024 43.48 9.76024 43.08C9.82147 42.9239 9.9021 42.776 10.0002 42.64L21.8202 30.84L22.0002 30.66C22.12 30.5415 22.2817 30.4751 22.4502 30.4751C22.6187 30.4751 22.7804 30.5415 22.9002 30.66C22.9614 30.7179 23.01 30.7877 23.0433 30.8651C23.0766 30.9425 23.0937 31.0258 23.0937 31.11C23.0937 31.1942 23.0766 31.2776 23.0433 31.3549C23.01 31.4323 22.9614 31.5021 22.9002 31.56L22.7002 31.78L10.9402 43.5C10.7856 43.6851 10.6112 43.8527 10.4202 44Z" fill="#FF8049"/>
<path id="Vector_4" d="M17.4402 14.6C17.3326 14.7753 17.2123 14.9424 17.0802 15.1L10.9402 21.24C9.06017 23.24 7.16017 25.02 5.28017 26.9C5.18165 27.0156 5.06717 27.1166 4.94017 27.2C4.83905 27.3001 4.70249 27.3563 4.56017 27.3563C4.41785 27.3563 4.28129 27.3001 4.18017 27.2C4.09017 27.0977 4.04053 26.9662 4.04053 26.83C4.04053 26.6937 4.09017 26.5622 4.18017 26.46C4.24249 26.3645 4.31638 26.2772 4.40017 26.2L16.3002 14.2C16.3855 14.1228 16.4795 14.0557 16.5802 14C16.9802 13.72 17.4602 14 17.4402 14.6Z" fill="#FF8049"/>
<path id="Vector_5" d="M21.4598 44C20.8398 44 20.5398 43.48 20.7998 43.08C20.8759 42.9535 20.9703 42.839 21.0798 42.74L32.8798 30.96L33.1398 30.7C33.2477 30.5973 33.3909 30.54 33.5398 30.54C33.6888 30.54 33.832 30.5973 33.9398 30.7C34.0498 30.8122 34.1114 30.963 34.1114 31.12C34.1114 31.2771 34.0498 31.4279 33.9398 31.54L33.6998 31.8L21.9998 43.64C21.7798 43.8 21.5598 44 21.4598 44Z" fill="#FF8049"/>
<path id="Vector_6" d="M31.6002 25.74C29.7552 25.7479 27.9494 25.2081 26.4115 24.1888C24.8736 23.1695 23.6728 21.7167 22.9612 20.0144C22.2497 18.3121 22.0594 16.4369 22.4145 14.6264C22.7696 12.8159 23.654 11.1515 24.9558 9.84405C26.2577 8.53662 27.9182 7.645 29.7272 7.28213C31.5362 6.91926 33.4122 7.10148 35.1175 7.8057C36.8229 8.50992 38.2808 9.70445 39.3067 11.238C40.3326 12.7715 40.8802 14.575 40.8802 16.42C40.8829 17.6413 40.6449 18.8512 40.18 19.9805C39.715 21.1098 39.0322 22.1365 38.1705 23.002C37.3088 23.8674 36.285 24.5547 35.1577 25.0244C34.0304 25.4942 32.8215 25.7374 31.6002 25.74ZM31.6002 24.48C33.1825 24.48 34.7292 24.0108 36.0448 23.1318C37.3604 22.2527 38.3858 21.0033 38.9913 19.5415C39.5968 18.0797 39.7552 16.4711 39.4465 14.9193C39.1378 13.3674 38.3759 11.942 37.2571 10.8232C36.1383 9.70434 34.7128 8.94242 33.161 8.63373C31.6091 8.32505 30.0006 8.48348 28.5388 9.08898C27.077 9.69448 25.8275 10.7199 24.9485 12.0355C24.0694 13.351 23.6002 14.8978 23.6002 16.48C23.6002 18.5983 24.4403 20.6301 25.9363 22.1298C27.4323 23.6295 29.462 24.4747 31.5802 24.48H31.6002Z" fill="#FF8049"/>
<path id="Vector_7" d="M34.4091 18.2898C34.206 18.2898 34.0295 18.2898 33.8618 18.2898C33.6297 18.2873 33.4057 18.2031 33.2284 18.0517C33.0512 17.9003 32.9318 17.6912 32.8907 17.4604C32.8825 17.4043 32.8825 17.3472 32.8907 17.291C32.8775 17.0593 32.8775 16.8271 32.8907 16.5954C32.9173 16.4083 32.995 16.2325 33.1151 16.0875C33.2352 15.9426 33.3928 15.8344 33.5704 15.775C33.8305 15.6613 34.1161 15.6203 34.3972 15.6564C34.6783 15.6925 34.9446 15.8043 35.1683 15.9801C35.479 16.2442 35.7061 16.5945 35.8216 16.9878C35.9645 17.3907 36.0225 17.8193 35.9921 18.2462C35.9617 18.6731 35.8435 19.0889 35.645 19.467C35.1797 20.4591 34.3779 21.25 33.385 21.6964C32.9272 21.9035 32.43 22.007 31.9284 21.9996C31.6469 21.9788 31.3745 21.8901 31.1339 21.741C30.7086 21.5117 30.345 21.1811 30.0746 20.7779C29.9585 20.6141 29.8967 20.4175 29.898 20.2161C29.898 19.2173 29.898 18.2274 29.898 17.2286V17.1126H28.9799C28.9479 17.1191 28.9148 17.1191 28.8828 17.1126L28 16.2209H29.9421V14.1608C29.9421 14.0984 29.9421 14.036 29.9421 13.9735C29.9393 13.8792 29.9106 13.7876 29.8592 13.7088C29.8077 13.6301 29.7356 13.5673 29.6508 13.5277C29.5406 13.4606 29.4182 13.4166 29.2908 13.3983C29.1634 13.3799 29.0337 13.3875 28.9093 13.4206C28.8484 13.4351 28.7892 13.456 28.7327 13.4831C28.5857 13.2574 28.4726 13.011 28.3973 12.7518C28.3736 12.6682 28.3782 12.5791 28.4101 12.4984C28.4421 12.4177 28.4997 12.35 28.5738 12.3059C28.8933 12.0878 29.2746 11.9813 29.6597 12.0027C29.8929 12.0156 30.117 12.099 30.3027 12.2421C30.4885 12.3852 30.6274 12.5815 30.7014 12.8053C30.8582 13.1685 30.9423 13.5595 30.9485 13.9557V16.096H31.1692C31.2863 16.0779 31.4053 16.0779 31.5224 16.096C31.6195 16.1406 31.6901 16.2565 31.7695 16.3368L32.4228 17.0056L32.4846 17.0859H30.9485V17.184C30.9485 18.0758 30.9485 18.9676 30.9485 19.8593C30.9352 19.9892 30.9503 20.1203 30.9927 20.2436C31.0351 20.3669 31.1038 20.4793 31.1939 20.5729C31.2839 20.6664 31.3932 20.7389 31.5141 20.7851C31.6349 20.8313 31.7643 20.8501 31.8931 20.8403C32.2752 20.85 32.65 20.7342 32.9613 20.5104C33.5867 20.0945 34.0609 19.484 34.312 18.7714C34.3561 18.6108 34.3738 18.4503 34.4091 18.2898Z" fill="#FF8049"/>
</g>
</svg>
