<svg width="54" height="50" viewBox="0 0 54 50" fill="none" xmlns="http://www.w3.org/2000/svg">
<g id="Group 3">
<path id="Vector" d="M26.697 1.93294C30.5163 0.318481 34.6807 -0.299776 38.8024 0.135766C42.3754 0.496123 45.8235 1.65129 48.8955 3.51717C50.6294 4.55095 52.2058 5.83388 53.643 7.25024C51.8518 9.02532 50.0914 10.8305 48.2931 12.5985C49.5005 13.8805 50.5828 15.2951 51.3692 16.8793C53.1595 20.3747 53.6589 24.501 52.802 28.3321C52.1103 31.4464 50.5491 34.2987 48.301 36.5555C48.4208 36.749 48.6031 36.8903 48.7598 37.0538C50.254 38.5576 51.7511 40.0597 53.2511 41.56C53.3797 41.6961 53.5453 41.8136 53.6034 42.0018C51.6528 43.8935 49.4476 45.536 46.9924 46.7121C44.1261 48.111 41.0148 48.934 37.8337 49.1348C33.9509 49.3999 30.0197 48.6842 26.446 47.1494C25.9308 45.4707 25.4324 43.7839 24.9128 42.1043C26.2021 42.8853 27.5319 43.6063 28.9523 44.1223C33.0023 45.6404 37.4223 45.8584 41.6011 44.7461C43.9357 44.1453 46.1346 43.0833 48.1311 41.742C47.2451 40.7878 46.2817 39.9104 45.3958 38.9526C44.3848 39.5463 43.3535 40.1171 42.2466 40.5147C39.1938 41.668 35.8748 41.9155 32.6856 41.2277C29.4964 40.5399 26.5719 38.9459 24.2611 36.6359C25.133 35.7523 26.0224 34.8811 26.8855 33.9852C28.1458 35.2433 29.6425 36.2379 31.2887 36.9116C34.9275 38.4092 39.2383 38.1591 42.6649 36.2135C41.6786 35.2814 40.7486 34.2882 39.7737 33.3437C38.4962 33.8641 37.12 34.0954 35.7432 34.0211C34.3664 33.9468 33.0229 33.5687 31.8083 32.9139C30.5938 32.259 29.5382 31.3435 28.7166 30.2325C27.8951 29.1215 27.3279 27.8424 27.0554 26.4864C28.1527 26.5111 29.2509 26.4811 30.349 26.5014C30.5316 26.5021 30.7136 26.4819 30.8915 26.4413C31.3217 27.705 32.1816 28.7765 33.3203 29.4678C34.4591 30.1591 35.8041 30.4262 37.1195 30.2221C38.3318 30.0353 39.4511 29.4589 40.3092 28.5795C42.0986 30.3643 43.884 32.1533 45.6652 33.9463C46.6506 32.9286 47.4764 31.7667 48.1143 30.5004C49.7875 27.1508 49.9364 23.0784 48.5203 19.614C47.8713 17.9856 46.8717 16.5153 45.6644 15.2536C43.8784 17.0428 42.1004 18.84 40.3074 20.623C39.3368 19.6293 38.0371 19.0267 36.6539 18.9291C35.2706 18.8314 33.8996 19.2454 32.7999 20.0929C31.9213 20.7647 31.2597 21.6815 30.8977 22.7285C29.6137 22.7109 28.3288 22.7285 27.0449 22.7224C27.6261 19.7439 29.7432 17.1223 32.5322 15.9454C34.7913 14.9743 37.3388 14.9249 39.6337 15.8076C39.6555 15.8214 39.6799 15.8307 39.7054 15.8349C39.7308 15.8391 39.7569 15.8382 39.782 15.8322C39.8071 15.8262 39.8307 15.8152 39.8515 15.7999C39.8724 15.7846 39.8899 15.7653 39.9032 15.7431C40.8155 14.8127 41.7525 13.9061 42.6552 12.966C41.2999 12.2724 39.8583 11.729 38.348 11.5046C35.1834 10.9931 31.9414 11.6535 29.2262 13.3628C29.3648 14.1588 29.2326 14.9784 28.8511 15.6901C28.482 16.3931 27.8977 16.9587 27.1843 17.3036C26.4709 17.6486 25.6659 17.7546 24.8879 17.6063C24.1099 17.4579 23.3998 17.0628 22.8623 16.4793C22.3248 15.8958 21.9881 15.1546 21.9019 14.3647C21.6967 12.8167 22.6064 11.2236 24.0225 10.5822C24.9029 10.1768 25.906 10.1312 26.8194 10.4549C29.5671 8.62537 32.7842 7.63354 36.0818 7.59936C39.3794 7.56518 42.6162 8.4901 45.401 10.2623C45.5058 10.0856 45.6652 9.95749 45.8062 9.8117C46.5794 9.02974 47.364 8.25839 48.1346 7.47467C45.2872 5.48099 41.987 4.23541 38.5359 3.85185C35.0848 3.46829 31.5929 3.95898 28.3796 5.27905C25.1664 6.59912 22.3342 8.70644 20.1423 11.4083C17.9504 14.1101 16.4686 17.3202 15.8325 20.7449C14.5749 20.7494 13.3165 20.7317 12.0589 20.7538C12.7052 16.6275 14.3884 12.7345 16.9498 9.44173C19.5112 6.149 22.8663 3.56513 26.6988 1.93382L26.697 1.93294Z" fill="white"/>
<path id="Vector_2" d="M19.4262 22.7214C21.9651 22.7214 24.5049 22.7214 27.0447 22.7214C28.3287 22.7214 29.6136 22.71 30.8975 22.7276C30.5016 23.934 30.4982 25.2355 30.8879 26.4439C30.7099 26.4845 30.5279 26.5047 30.3454 26.504C29.2472 26.4837 28.149 26.5137 27.0518 26.489C26.8862 26.4792 26.7215 26.4616 26.5577 26.4474C24.8152 28.2988 23.0833 30.1599 21.3619 32.0307C20.963 32.4619 20.5341 32.8683 20.1809 33.3384C21.737 38.3579 23.2306 43.3978 24.7753 48.4217C21.6358 48.4491 18.4945 48.4306 15.3524 48.4306C14.5774 45.3522 13.7672 42.2818 13.0037 39.2026C12.3265 39.9095 11.6237 40.5871 10.9412 41.2878C10.8338 41.4097 10.6673 41.4999 10.6356 41.6722C10.1883 43.7927 9.73942 45.9106 9.28912 48.0259C9.23452 48.1779 9.28912 48.4906 9.03725 48.4323C6.02544 48.4323 3.01275 48.4438 6.10352e-05 48.4253C1.84942 39.8617 3.62568 31.2841 5.47152 22.7188C8.53441 22.7347 11.5973 22.7082 14.6593 22.732C14.2313 24.6759 13.828 26.6268 13.4061 28.5724C13.1719 29.7599 12.8681 30.9351 12.6699 32.1288C14.7676 29.2563 16.8186 26.3476 18.8723 23.4433C19.0705 23.2118 19.1937 22.9141 19.4262 22.7214Z" fill="#FF8049"/>
</g>
</svg>
