<svg width="266" height="70" viewBox="0 0 266 70" fill="none" xmlns="http://www.w3.org/2000/svg">
<path d="M31.697 11.9329C35.5163 10.3185 39.6807 9.70022 43.8024 10.1358C47.3754 10.4961 50.8235 11.6513 53.8955 13.5172C55.6294 14.5509 57.2058 15.8339 58.643 17.2502C56.8518 19.0253 55.0914 20.8305 53.2931 22.5985C54.5005 23.8805 55.5828 25.2951 56.3692 26.8793C58.1595 30.3747 58.6589 34.501 57.802 38.3321C57.1103 41.4464 55.5491 44.2987 53.301 46.5555C53.4208 46.749 53.6031 46.8903 53.7598 47.0538C55.254 48.5576 56.7511 50.0597 58.2511 51.56C58.3797 51.6961 58.5453 51.8136 58.6034 52.0018C56.6528 53.8935 54.4476 55.536 51.9924 56.7121C49.1261 58.111 46.0148 58.934 42.8337 59.1348C38.9509 59.3999 35.0197 58.6842 31.446 57.1494C30.9308 55.4707 30.4324 53.7839 29.9128 52.1043C31.2021 52.8853 32.5319 53.6063 33.9523 54.1223C38.0023 55.6404 42.4223 55.8584 46.6011 54.7461C48.9357 54.1453 51.1346 53.0833 53.1311 51.742C52.2451 50.7878 51.2817 49.9104 50.3958 48.9526C49.3848 49.5463 48.3535 50.1171 47.2466 50.5147C44.1938 51.668 40.8748 51.9155 37.6856 51.2277C34.4964 50.5399 31.5719 48.9459 29.2611 46.6359C30.133 45.7523 31.0224 44.8811 31.8855 43.9852C33.1458 45.2433 34.6425 46.2379 36.2887 46.9116C39.9275 48.4092 44.2383 48.1591 47.6649 46.2135C46.6786 45.2814 45.7486 44.2882 44.7737 43.3437C43.4962 43.8641 42.12 44.0954 40.7432 44.0211C39.3664 43.9468 38.0229 43.5687 36.8083 42.9139C35.5938 42.259 34.5382 41.3435 33.7166 40.2325C32.8951 39.1215 32.3279 37.8424 32.0554 36.4864C33.1527 36.5111 34.2509 36.4811 35.349 36.5014C35.5316 36.5021 35.7136 36.4819 35.8915 36.4413C36.3217 37.705 37.1816 38.7765 38.3203 39.4678C39.4591 40.1591 40.8041 40.4262 42.1195 40.2221C43.3318 40.0353 44.4511 39.4589 45.3092 38.5795C47.0986 40.3643 48.884 42.1533 50.6652 43.9463C51.6506 42.9286 52.4764 41.7667 53.1143 40.5004C54.7875 37.1508 54.9364 33.0784 53.5203 29.614C52.8713 27.9856 51.8717 26.5153 50.6644 25.2536C48.8784 27.0428 47.1004 28.84 45.3074 30.623C44.3368 29.6293 43.0371 29.0267 41.6539 28.9291C40.2706 28.8314 38.8996 29.2454 37.7999 30.0929C36.9213 30.7647 36.2597 31.6815 35.8977 32.7285C34.6137 32.7109 33.3288 32.7285 32.0449 32.7224C32.6261 29.7439 34.7432 27.1223 37.5322 25.9454C39.7913 24.9743 42.3388 24.9249 44.6337 25.8076C44.6555 25.8214 44.6799 25.8307 44.7054 25.8349C44.7308 25.8391 44.7569 25.8382 44.782 25.8322C44.8071 25.8262 44.8307 25.8152 44.8515 25.7999C44.8724 25.7846 44.8899 25.7653 44.9032 25.7431C45.8155 24.8127 46.7525 23.9061 47.6552 22.966C46.2999 22.2724 44.8583 21.729 43.348 21.5046C40.1834 20.9931 36.9414 21.6535 34.2262 23.3628C34.3648 24.1588 34.2326 24.9784 33.8511 25.6901C33.482 26.3931 32.8977 26.9587 32.1843 27.3036C31.4709 27.6486 30.6659 27.7546 29.8879 27.6063C29.1099 27.4579 28.3998 27.0628 27.8623 26.4793C27.3248 25.8958 26.9881 25.1546 26.9019 24.3647C26.6967 22.8167 27.6064 21.2236 29.0225 20.5822C29.9029 20.1768 30.906 20.1312 31.8194 20.4549C34.5671 18.6254 37.7842 17.6335 41.0818 17.5994C44.3794 17.5652 47.6162 18.4901 50.401 20.2623C50.5058 20.0856 50.6652 19.9575 50.8062 19.8117C51.5794 19.0297 52.364 18.2584 53.1346 17.4747C50.2872 15.481 46.987 14.2354 43.5359 13.8518C40.0848 13.4683 36.5929 13.959 33.3796 15.2791C30.1664 16.5991 27.3342 18.7064 25.1423 21.4083C22.9504 24.1101 21.4686 27.3202 20.8325 30.7449C19.5749 30.7494 18.3165 30.7317 17.0589 30.7538C17.7052 26.6275 19.3884 22.7345 21.9498 19.4417C24.5112 16.149 27.8663 13.5651 31.6988 11.9338L31.697 11.9329Z" fill="white"/>
<path d="M24.4262 32.7214C26.9651 32.7214 29.5049 32.7214 32.0447 32.7214C33.3287 32.7214 34.6136 32.71 35.8975 32.7276C35.5016 33.934 35.4982 35.2355 35.8879 36.4439C35.7099 36.4845 35.5279 36.5047 35.3454 36.504C34.2472 36.4837 33.149 36.5137 32.0518 36.489C31.8862 36.4792 31.7215 36.4616 31.5577 36.4474C29.8152 38.2988 28.0833 40.1599 26.3619 42.0307C25.963 42.4619 25.5341 42.8683 25.1809 43.3384C26.737 48.3579 28.2306 53.3978 29.7753 58.4217C26.6358 58.4491 23.4945 58.4306 20.3524 58.4306C19.5774 55.3522 18.7672 52.2818 18.0037 49.2026C17.3265 49.9095 16.6237 50.5871 15.9412 51.2878C15.8338 51.4097 15.6673 51.4999 15.6356 51.6722C15.1883 53.7927 14.7394 55.9106 14.2891 58.0259C14.2345 58.1779 14.2891 58.4906 14.0373 58.4323C11.0254 58.4323 8.01275 58.4438 5.00006 58.4253C6.84942 49.8617 8.62568 41.2841 10.4715 32.7188C13.5344 32.7347 16.5973 32.7082 19.6593 32.732C19.2313 34.6759 18.828 36.6268 18.4061 38.5724C18.1719 39.7599 17.8681 40.9351 17.6699 42.1288C19.7676 39.2563 21.8186 36.3476 23.8723 33.4433C24.0705 33.2118 24.1937 32.9141 24.4262 32.7214Z" fill="#FF8049"/>
<path d="M97.8771 47.0239H92.6662L86.3902 36.2291L82.8835 40.3674V47.0239H77.9184V23.8303H82.8835V34.4487L91.5192 23.8303H97.0086L89.815 32.8126L97.8771 47.0239Z" fill="#FF8049"/>
<path d="M103.68 39.806C103.669 40.6507 103.806 41.3886 104.09 42.0195C104.374 42.6397 104.784 43.1209 105.319 43.4631C105.865 43.7945 106.521 43.9603 107.285 43.9603C108.105 43.9603 108.82 43.7892 109.432 43.447C110.055 43.1048 110.486 42.5434 110.726 41.7628H115.036C114.85 42.9391 114.37 43.9443 113.594 44.7783C112.829 45.6124 111.901 46.2486 110.808 46.6871C109.716 47.1255 108.58 47.3447 107.4 47.3447C105.729 47.3447 104.254 47.0025 102.976 46.3181C101.708 45.6231 100.72 44.6447 100.01 43.3829C99.2996 42.1211 98.9446 40.6347 98.9446 38.9238C98.9446 37.2663 99.2668 35.7746 99.9114 34.4487C100.556 33.112 101.49 32.0587 102.713 31.2888C103.948 30.5082 105.428 30.1179 107.154 30.1179C108.88 30.1179 110.328 30.4761 111.497 31.1926C112.676 31.8983 113.561 32.8875 114.151 34.16C114.752 35.4218 115.052 36.8814 115.052 38.5388V39.806H103.68ZM103.664 37.015H110.579C110.579 36.3521 110.453 35.7426 110.202 35.1865C109.951 34.6305 109.568 34.192 109.055 33.8712C108.552 33.5504 107.919 33.39 107.154 33.39C106.411 33.39 105.778 33.5665 105.253 33.9194C104.74 34.2615 104.347 34.7107 104.074 35.2667C103.8 35.8228 103.664 36.4055 103.664 37.015Z" fill="#FF8049"/>
<path d="M118.374 52.1887V30.4387H123.176L123.192 32.8287C123.443 32.433 123.749 32.0748 124.11 31.754C124.481 31.4225 124.891 31.1338 125.339 30.8878C125.786 30.6419 126.273 30.4548 126.797 30.3264C127.321 30.1874 127.873 30.1179 128.452 30.1179C129.708 30.1179 130.828 30.4227 131.811 31.0322C132.794 31.631 133.565 32.5613 134.122 33.8231C134.69 35.0742 134.974 36.6675 134.974 38.603C134.974 40.6133 134.668 42.2654 134.056 43.5593C133.455 44.8425 132.625 45.7942 131.565 46.4144C130.506 47.0346 129.31 47.3447 127.977 47.3447C127.431 47.3447 126.917 47.2698 126.436 47.1201C125.956 46.9811 125.508 46.7833 125.093 46.5267C124.689 46.27 124.323 45.976 123.995 45.6445C123.678 45.3023 123.399 44.9334 123.159 44.5377V52.1887H118.374ZM126.83 43.9122C127.868 43.9122 128.736 43.4898 129.435 42.645C130.145 41.8003 130.5 40.4636 130.5 38.6351C130.5 37.0311 130.162 35.78 129.484 34.8818C128.818 33.9728 127.933 33.5184 126.83 33.5184C125.595 33.5184 124.672 34.0103 124.06 34.994C123.46 35.9671 123.159 37.1808 123.159 38.6351C123.159 39.5654 123.29 40.4315 123.552 41.2335C123.826 42.0355 124.23 42.6825 124.765 43.1743C125.311 43.6662 125.999 43.9122 126.83 43.9122Z" fill="#FF8049"/>
<path d="M147.933 33.6948H144.164L144.197 42.5327C144.197 42.9391 144.246 43.2438 144.344 43.447C144.453 43.6395 144.617 43.7678 144.836 43.832C145.065 43.8854 145.355 43.9122 145.704 43.9122H147.982V46.7993C147.763 46.8956 147.419 46.9865 146.95 47.072C146.491 47.1576 145.846 47.2003 145.016 47.2003C143.53 47.2003 142.378 47.0132 141.558 46.6389C140.75 46.2647 140.187 45.7407 139.871 45.067C139.554 44.3934 139.395 43.6128 139.395 42.7252V33.6948H136.642V30.4387H139.559L140.755 25.4343H144.164V30.4227H147.933V33.6948Z" fill="#FF8049"/>
<path d="M158.199 47.3447C156.538 47.3447 155.091 46.9972 153.856 46.3021C152.633 45.607 151.682 44.6233 151.005 43.3508C150.339 42.0783 150.006 40.5705 150.006 38.8275C150.006 37.0846 150.339 35.5608 151.005 34.2562C151.682 32.9516 152.633 31.9358 153.856 31.2086C155.091 30.4815 156.544 30.1179 158.215 30.1179C159.887 30.1179 161.334 30.4761 162.558 31.1926C163.781 31.8983 164.726 32.9035 165.392 34.2081C166.059 35.5127 166.392 37.0525 166.392 38.8275C166.392 40.4957 166.064 41.9714 165.409 43.2545C164.764 44.527 163.83 45.5268 162.607 46.254C161.394 46.9811 159.925 47.3447 158.199 47.3447ZM158.215 43.8641C159.056 43.8641 159.734 43.6235 160.247 43.1423C160.761 42.6611 161.132 42.0302 161.361 41.2496C161.602 40.4583 161.722 39.5975 161.722 38.6671C161.722 37.7903 161.613 36.9616 161.394 36.181C161.187 35.4004 160.826 34.7695 160.313 34.2883C159.799 33.8071 159.1 33.5665 158.215 33.5665C157.374 33.5665 156.691 33.7964 156.167 34.2562C155.653 34.7053 155.277 35.3202 155.036 36.1008C154.796 36.8707 154.676 37.7261 154.676 38.6671C154.676 39.5333 154.785 40.3674 155.003 41.1694C155.222 41.9607 155.588 42.6076 156.101 43.1102C156.615 43.6128 157.319 43.8641 158.215 43.8641Z" fill="#FF8049"/>
<path d="M186.785 23.5095C188.566 23.5095 190.15 23.8624 191.537 24.5681C192.935 25.2632 194.061 26.2149 194.913 27.4232C195.776 28.6316 196.284 29.995 196.437 31.5134H191.422C191.269 30.7114 190.991 30.0003 190.587 29.3801C190.183 28.7492 189.653 28.2573 188.997 27.9044C188.342 27.5409 187.555 27.3591 186.638 27.3591C185.534 27.3591 184.584 27.6211 183.786 28.145C182.989 28.669 182.377 29.5138 181.951 30.6793C181.525 31.8449 181.312 33.3847 181.312 35.2988C181.312 38.186 181.782 40.2765 182.721 41.5704C183.672 42.8535 184.977 43.4951 186.638 43.4951C187.555 43.4951 188.342 43.292 188.997 42.8856C189.653 42.4686 190.183 41.9232 190.587 41.2496C190.991 40.5652 191.269 39.8167 191.422 39.004H196.437C196.295 40.1054 196.022 41.1587 195.617 42.1638C195.213 43.1583 194.64 44.0458 193.897 44.8264C193.154 45.607 192.198 46.2219 191.029 46.671C189.86 47.1201 188.446 47.3447 186.785 47.3447C184.578 47.3447 182.672 46.8421 181.066 45.837C179.46 44.8318 178.22 43.4203 177.346 41.6024C176.483 39.7846 176.052 37.662 176.052 35.2346C176.052 32.7966 176.483 30.7061 177.346 28.9631C178.209 27.2094 179.444 25.862 181.05 24.921C182.656 23.98 184.567 23.5095 186.785 23.5095Z" fill="white"/>
<path d="M204.519 47.3447C203.437 47.3447 202.465 47.1469 201.602 46.7512C200.739 46.3556 200.056 45.7835 199.553 45.035C199.051 44.2757 198.8 43.3561 198.8 42.2761C198.8 40.4583 199.493 39.0788 200.881 38.1378C202.268 37.1861 204.458 36.6943 207.452 36.6622L209.566 36.6301V35.6356C209.566 34.8764 209.336 34.2936 208.877 33.8873C208.429 33.4702 207.73 33.2671 206.78 33.2778C206.081 33.2885 205.414 33.4489 204.781 33.759C204.158 34.0691 203.732 34.6091 203.503 35.379H199.521C199.586 34.1813 199.941 33.1976 200.586 32.4277C201.23 31.6471 202.104 31.0696 203.208 30.6954C204.322 30.3104 205.584 30.1179 206.993 30.1179C208.73 30.1179 210.123 30.3318 211.171 30.7595C212.22 31.1766 212.979 31.7807 213.449 32.572C213.919 33.3526 214.154 34.2829 214.154 35.3629V47.0239H210.155L209.762 44.1688C209.183 45.3664 208.457 46.1952 207.583 46.655C206.72 47.1148 205.698 47.3447 204.519 47.3447ZM206.124 44.265C206.561 44.265 206.982 44.1902 207.386 44.0405C207.801 43.8801 208.167 43.6716 208.484 43.4149C208.812 43.1476 209.074 42.8482 209.271 42.5167C209.467 42.1852 209.566 41.843 209.566 41.4902V39.0361L207.845 39.0681C207.048 39.0788 206.305 39.1751 205.616 39.3569C204.928 39.528 204.371 39.8113 203.945 40.207C203.53 40.6026 203.322 41.1373 203.322 41.811C203.322 42.5809 203.595 43.185 204.142 43.6235C204.688 44.0512 205.349 44.265 206.124 44.265Z" fill="white"/>
<path d="M224.899 47.3447C223.72 47.3447 222.584 47.1576 221.491 46.7833C220.399 46.3983 219.476 45.7995 218.722 44.9868C217.968 44.1635 217.487 43.0995 217.28 41.7949H221.426C221.568 42.383 221.824 42.8482 222.196 43.1904C222.578 43.5326 223.01 43.7785 223.49 43.9282C223.971 44.0672 224.43 44.1367 224.867 44.1367C225.784 44.1367 226.522 43.9977 227.079 43.7197C227.647 43.431 227.931 42.9926 227.931 42.4044C227.931 41.9553 227.762 41.5971 227.423 41.3298C227.095 41.0624 226.549 40.8593 225.784 40.7202L222.802 40.1107C221.305 39.8006 220.104 39.2767 219.197 38.5388C218.29 37.7903 217.826 36.7317 217.804 35.3629C217.804 34.3685 218.072 33.4756 218.607 32.6843C219.153 31.893 219.956 31.2674 221.016 30.8076C222.076 30.3478 223.376 30.1179 224.916 30.1179C227.002 30.1179 228.668 30.567 229.914 31.4653C231.17 32.3635 231.809 33.6306 231.831 35.2667H227.833C227.712 34.6251 227.385 34.1332 226.849 33.791C226.325 33.4382 225.664 33.2617 224.867 33.2617C224.036 33.2617 223.354 33.4061 222.818 33.6948C222.283 33.9835 222.015 34.4219 222.015 35.0101C222.015 35.4485 222.234 35.796 222.671 36.0527C223.108 36.2986 223.785 36.5125 224.703 36.6943L227.456 37.3038C228.406 37.5283 229.176 37.8384 229.766 38.2341C230.367 38.619 230.831 39.0414 231.159 39.5012C231.487 39.961 231.711 40.4262 231.831 40.8967C231.962 41.3565 232.028 41.7735 232.028 42.1478C232.028 43.2492 231.727 44.1902 231.126 44.9708C230.525 45.7407 229.69 46.3288 228.619 46.7352C227.549 47.1415 226.309 47.3447 224.899 47.3447Z" fill="white"/>
<path d="M235.384 47.0239V23.1887H240.136V32.8287C240.409 32.4437 240.753 32.0641 241.168 31.6898C241.584 31.3049 242.102 30.9841 242.725 30.7274C243.348 30.4708 244.107 30.3425 245.003 30.3425C246.084 30.3425 247.068 30.551 247.952 30.968C248.848 31.3744 249.564 31.9678 250.099 32.7485C250.645 33.5291 250.918 34.4808 250.918 35.6035V47.0239H246.117V36.2933C246.117 35.5447 245.839 34.9726 245.281 34.577C244.735 34.1707 244.069 33.9675 243.282 33.9675C242.769 33.9675 242.272 34.0584 241.791 34.2402C241.31 34.4219 240.917 34.7 240.611 35.0742C240.316 35.4378 240.169 35.8923 240.169 36.4376V47.0239H235.384Z" fill="white"/>
</svg>
