<svg width="97" height="32" viewBox="0 0 97 32" fill="none" xmlns="http://www.w3.org/2000/svg">
<g id="Frame" clip-path="url(#clip0_402_1210)">
<path id="Vector" d="M92.2563 0.75H4.74368C2.39996 0.75 0.5 2.62561 0.5 4.93929V27.5607C0.5 29.8744 2.39996 31.75 4.74368 31.75H92.2563C94.6 31.75 96.5 29.8744 96.5 27.5607V4.93929C96.5 2.62561 94.6 0.75 92.2563 0.75Z" fill="#231F20"/>
<g id="PLAY">
<g id="Group">
<path id="Vector_2" d="M7.70169 6.71803V17.2144V27.7108L18.4245 17.2144L7.70169 6.71803Z" fill="url(#paint0_linear_402_1210)"/>
<path id="Vector_3" d="M21.3036 14.3962L16.9755 11.9282L7.70169 6.64206V6.71803L18.4245 17.2144L21.3036 14.3962Z" fill="url(#paint1_linear_402_1210)"/>
<path id="Vector_4" d="M7.70169 27.7108V27.7886L16.9755 22.5006L21.3036 20.0345L18.4245 17.2144L7.70169 27.7108Z" fill="url(#paint2_linear_402_1210)"/>
<path id="Vector_5" d="M21.3036 14.3962L18.4245 17.2144L21.3036 20.0344L26.2512 17.2144L21.3036 14.3962Z" fill="url(#paint3_linear_402_1210)"/>
</g>
</g>
<path id="Vector_6" d="M75.2121 21.3185C74.8326 21.323 74.4564 21.2478 74.1085 21.098C73.7736 20.9491 73.4842 20.7159 73.2695 20.4217H73.202C73.2457 20.7578 73.2683 21.0963 73.2695 21.4352V23.9477H72.3311V15.1003H73.0912L73.2207 15.9359H73.2658C73.4802 15.6301 73.7712 15.3844 74.1104 15.2226C74.4553 15.0673 74.8312 14.9907 75.2103 14.9984C76.0298 14.9984 76.6623 15.2751 77.1078 15.8285C77.5533 16.3819 77.7766 17.1582 77.7779 18.1575C77.7779 19.1593 77.5514 19.9381 77.0984 20.494C76.8712 20.7674 76.5822 20.9844 76.2546 21.1276C75.927 21.2708 75.5699 21.3362 75.2121 21.3185ZM75.077 15.7747C74.4451 15.7747 73.9878 15.9477 73.705 16.2935C73.4222 16.6394 73.277 17.1891 73.2695 17.9426V18.1482C73.2695 19.0055 73.4147 19.6194 73.705 19.99C73.9953 20.3605 74.4601 20.5458 75.0995 20.5458C75.3468 20.5535 75.592 20.4987 75.8118 20.3865C76.0316 20.2743 76.2186 20.1084 76.3552 19.9047C76.6567 19.4786 76.8081 18.89 76.8094 18.139C76.8106 17.388 76.6592 16.8037 76.3552 16.3862C76.2094 16.1887 76.0164 16.0299 75.7934 15.9239C75.5704 15.8179 75.3243 15.7679 75.077 15.7785V15.7747Z" fill="#F9F9F9"/>
<path id="Vector_7" d="M79.9475 21.2054H79.0091V12.5378H79.9475V21.2054Z" fill="#F9F9F9"/>
<path id="Vector_8" d="M85.3324 21.2054L85.1447 20.3365H85.0997C84.8592 20.6642 84.5433 20.9309 84.1781 21.1146C83.8138 21.2608 83.4225 21.3302 83.0294 21.3185C82.5061 21.3485 81.9908 21.1809 81.588 20.8497C81.2389 20.5384 81.0662 20.0937 81.0662 19.5193C81.0662 18.2841 82.0672 17.6375 84.0692 17.5794L85.1184 17.5461V17.1755C85.1184 16.6956 85.0152 16.3417 84.805 16.1138C84.5948 15.8859 84.2626 15.771 83.8046 15.771C83.1932 15.7951 82.5952 15.9553 82.0553 16.2398L81.7663 15.532C82.0837 15.3648 82.4202 15.2355 82.7685 15.1466C83.1252 15.0547 83.4923 15.008 83.8609 15.0077C84.5992 15.0077 85.1453 15.1695 85.4994 15.4931C85.8536 15.8167 86.0312 16.3349 86.0325 17.0476V21.2128L85.3324 21.2054ZM83.2171 20.5551C83.4665 20.5694 83.7163 20.5348 83.9521 20.4534C84.1879 20.372 84.405 20.2454 84.591 20.0808C84.7628 19.9063 84.896 19.6983 84.9819 19.4702C85.0679 19.2422 85.1048 18.9989 85.0903 18.756V18.2001L84.1518 18.239C83.4011 18.265 82.8643 18.3792 82.5414 18.5818C82.3799 18.6801 82.2486 18.8201 82.1616 18.9866C82.0746 19.1531 82.0353 19.3398 82.0478 19.5268C82.0379 19.6684 82.0604 19.8104 82.1137 19.9422C82.167 20.074 82.2497 20.1923 82.3556 20.2883C82.5997 20.479 82.9065 20.574 83.2171 20.5551Z" fill="#F9F9F9"/>
<path id="Vector_9" d="M86.5712 15.1003H87.5753L88.9304 18.5837C89.1539 19.1443 89.3383 19.7195 89.4823 20.305H89.5273C89.5761 20.1135 89.6787 19.7893 89.8351 19.3322C89.9915 18.8752 90.502 17.4645 91.3667 15.1003H92.3727L89.7131 22.0522C89.4503 22.739 89.1431 23.2269 88.7915 23.516C88.4259 23.8079 87.9665 23.9611 87.4965 23.9477C87.2116 23.9478 86.9276 23.9161 86.65 23.8532V23.112C86.8784 23.1587 87.1112 23.1811 87.3445 23.1787C87.9889 23.1787 88.4474 22.8224 88.7202 22.1096L89.0656 21.2407L86.5712 15.1003Z" fill="#F9F9F9"/>
<path id="Vector_10" d="M57.8601 15.6691C58.1395 15.865 58.3681 16.1231 58.5276 16.4225C58.6871 16.7218 58.7728 17.0541 58.7779 17.3923C58.7779 18.3372 58.2355 18.7838 57.6912 19.2062C57.5223 19.3711 57.329 19.5509 57.329 19.8325C57.3355 19.945 57.3695 20.0543 57.428 20.151C57.4865 20.2478 57.5678 20.3292 57.6649 20.3883L58.1323 20.7441C58.6954 21.2184 59.2171 21.652 59.2171 22.5339C59.2171 23.7346 58.0403 24.9426 55.8162 24.9426C53.9393 24.9426 53.0346 24.0625 53.0346 23.1157C53.0346 22.6562 53.2673 22.004 54.0312 21.5593C54.8327 21.0739 55.9194 21.0035 56.5012 20.9701C56.3136 20.7404 56.1127 20.4995 56.1127 20.103C56.1175 19.9294 56.1618 19.7591 56.2422 19.6046C56.0996 19.6176 55.957 19.6305 55.8274 19.6305C54.4573 19.6305 53.6821 18.6207 53.6821 17.6257C53.6882 17.299 53.7651 16.9774 53.9075 16.6824C54.05 16.3874 54.2547 16.126 54.508 15.9156C55.2456 15.3152 56.1259 15.2115 56.8259 15.2115H59.4893L58.6616 15.6728L57.8601 15.6691ZM56.9404 21.3389C56.842 21.3275 56.7429 21.3231 56.6439 21.3259C56.1838 21.3343 55.7269 21.4028 55.285 21.5297C55.0016 21.6316 54.172 21.9392 54.172 22.8452C54.172 23.7513 55.0654 24.4035 56.4506 24.4035C57.6912 24.4035 58.3519 23.8161 58.3519 23.0249C58.3444 22.3709 57.9239 22.0281 56.9404 21.337V21.3389ZM57.3158 18.9116C57.5431 18.657 57.6591 18.324 57.6387 17.9852C57.6387 17.0588 57.0756 15.6358 56.0095 15.6358C55.837 15.6379 55.667 15.6765 55.5109 15.7491C55.3548 15.8216 55.2163 15.9264 55.1048 16.0564C54.9033 16.33 54.8026 16.6634 54.8195 17.0013C54.8195 17.8574 55.3244 19.2748 56.4374 19.2748C56.7659 19.2664 57.0793 19.1369 57.3158 18.9116Z" fill="#F9F9F9"/>
<path id="Vector_11" d="M49.7106 21.1332C49.3017 21.1469 48.8943 21.0791 48.5124 20.9341C48.1306 20.789 47.7823 20.5695 47.4882 20.2887C47.1942 20.0079 46.9604 19.6716 46.8008 19.2997C46.6412 18.9278 46.5591 18.528 46.5593 18.1242C46.5593 16.4566 47.9407 15.028 49.9058 15.028C50.3102 15.0191 50.7122 15.0905 51.0881 15.2379C51.464 15.3854 51.806 15.6059 52.0939 15.8864C52.3817 16.167 52.6095 16.5017 52.7637 16.8709C52.9179 17.24 52.9953 17.6359 52.9914 18.0352C52.9971 19.5397 51.8221 21.1332 49.7106 21.1332ZM51.3248 20.1011C51.6067 19.6835 51.7431 19.1866 51.7133 18.6856C51.7133 17.5646 51.1708 15.4227 49.568 15.4227C49.1408 15.4261 48.7288 15.5798 48.4062 15.8563C47.9032 16.3028 47.8112 16.8624 47.8112 17.4127C47.8112 18.6726 48.4456 20.7478 50.0072 20.7478C50.2635 20.7489 50.5165 20.691 50.7461 20.5787C50.9758 20.4665 51.1759 20.303 51.3304 20.1011H51.3248Z" fill="#F9F9F9"/>
<path id="Vector_12" d="M42.7154 21.1332C42.3065 21.1469 41.899 21.0791 41.5172 20.9341C41.1354 20.789 40.7871 20.5695 40.493 20.2887C40.1989 20.0079 39.9651 19.6716 39.8055 19.2997C39.6459 18.9278 39.5638 18.528 39.5641 18.1242C39.5641 16.4566 40.9473 15.028 42.9106 15.028C43.315 15.0191 43.717 15.0905 44.0929 15.2379C44.4688 15.3854 44.8108 15.6059 45.0986 15.8864C45.3865 16.167 45.6142 16.5017 45.7684 16.8709C45.9226 17.24 46.0001 17.6359 45.9962 18.0352C45.9962 19.5397 44.8307 21.1332 42.7154 21.1332ZM44.3314 20.1011C44.6128 19.6833 44.7485 19.1864 44.718 18.6856C44.718 17.5646 44.1756 15.4227 42.5746 15.4227C42.1474 15.4261 41.7354 15.5798 41.4128 15.8563C40.9079 16.3028 40.8178 16.8624 40.8178 17.4127C40.8178 18.6726 41.4503 20.7478 43.0138 20.7478C43.2691 20.7476 43.5208 20.6891 43.7494 20.5769C43.978 20.4647 44.1771 20.3019 44.3314 20.1011Z" fill="#F9F9F9"/>
<path id="Vector_13" d="M38.5787 20.9349L36.7205 21.3574C36.0135 21.4844 35.2975 21.5569 34.579 21.5742C30.996 21.5742 29.6315 18.9802 29.6315 16.942C29.6315 14.4555 31.5666 12.1487 34.8868 12.1487C35.5585 12.1501 36.2271 12.2405 36.8744 12.4174C37.4908 12.5748 38.0719 12.8443 38.5881 13.2123L37.5088 14.2258L37.0546 14.3277L37.3793 13.8144C36.9383 13.392 36.1331 12.6101 34.6015 12.6101C32.5501 12.6101 31.0054 14.1479 31.0054 16.3917C31.0054 18.8005 32.7697 21.0702 35.6 21.0702C36.1671 21.0839 36.7303 20.9745 37.2498 20.7496V18.6782L35.2903 18.7801L36.3283 18.2242H39.0798L38.7438 18.5429C38.7088 18.5664 38.679 18.5968 38.6564 18.6322C38.6338 18.6676 38.6188 18.7072 38.6125 18.7486C38.5993 18.8634 38.5881 19.2359 38.5881 19.3637L38.5787 20.9349Z" fill="#F9F9F9"/>
<path id="Vector_14" d="M61.9631 20.5644C61.5351 20.5273 61.445 20.4495 61.445 19.9492V12.6953C61.445 12.6675 61.445 12.6397 61.445 12.6119C61.4976 12.1635 61.6327 12.0876 62.0306 11.856H60.1725L59.1984 12.3173H60.1913V20.2253C60.1913 20.481 60.1406 20.5199 59.8421 20.9034H62.1395L62.62 20.6218C62.406 20.5959 62.1845 20.5959 61.9631 20.5644Z" fill="#F9F9F9"/>
<path id="Vector_15" d="M67.2465 20.6829C67.1058 20.7589 66.9631 20.8497 66.8224 20.9127C66.4273 21.0805 66.0004 21.1627 65.5705 21.1536C64.9586 21.1807 64.3551 21.006 63.855 20.657C62.9409 20.0196 62.5411 18.9264 62.5411 17.9722C62.5411 15.9989 64.1647 15.0317 65.4935 15.0317C65.9615 15.0253 66.4218 15.1486 66.8224 15.3875C67.2736 15.6796 67.5956 16.1299 67.7233 16.6474L64.694 17.8573L63.7011 17.9333C64.0239 19.5508 65.1331 20.4921 66.3569 20.4921C66.911 20.4748 67.4521 20.322 67.9316 20.0474L67.2465 20.6829ZM66.0397 16.8902C66.2837 16.8012 66.4151 16.7253 66.4151 16.5474C66.4151 16.0378 65.8351 15.4523 65.1388 15.4523C64.6208 15.4523 63.6541 15.847 63.6541 17.2218C63.6541 17.4386 63.6804 17.6684 63.6936 17.8981L66.0397 16.8902Z" fill="#F9F9F9"/>
<path id="Vector_16" d="M68.4909 15.1188V15.9637H68.3877V15.1244H68.1043V15.0373H68.7706V15.1244L68.4909 15.1188Z" fill="#F9F9F9"/>
<path id="Vector_17" d="M69.6508 15.9637V15.1151L69.3881 15.9637H69.3074L69.0427 15.1151V15.9637H68.9489V15.0373H69.1084L69.3487 15.7784L69.5833 15.0373H69.7466V15.9637H69.6508Z" fill="#F9F9F9"/>
<path id="Vector_18" d="M32.2103 9.64552H31.5665C31.5264 9.39346 31.4636 9.14543 31.3789 8.90438H30.4404C30.3524 9.14446 30.2895 9.3928 30.2527 9.64552H29.6446C29.6446 9.59364 29.8016 9.16872 30.1157 8.37076C30.3036 7.94299 30.461 7.5028 30.5868 7.05339H31.3488C31.4636 7.49398 31.6059 7.92714 31.7749 8.35038C31.9468 8.77289 32.0922 9.20541 32.2103 9.64552ZM31.2719 8.52084C31.138 8.15622 31.0227 7.78518 30.9265 7.40913H30.8946C30.7947 7.78538 30.6757 8.15642 30.538 8.52084H31.2719Z" fill="#F9F9FA"/>
<path id="Vector_19" d="M34.8098 9.64552H34.32C34.32 9.5924 34.1323 9.30521 33.7569 8.78395C33.3684 8.22809 33.1488 7.85752 33.0944 7.65927H33.0625C33.0944 7.9206 33.1113 8.18351 33.1131 8.44673C33.1131 8.77406 33.1225 9.17366 33.1413 9.64552H32.6458C32.6671 9.23419 32.6771 8.78209 32.6758 8.28923C32.6746 7.79638 32.6646 7.38443 32.6458 7.05339H33.2445C33.2445 7.12379 33.4103 7.40481 33.7419 7.89643C33.9889 8.22339 34.1938 8.57939 34.3519 8.95626H34.3819C34.3516 8.69233 34.3353 8.42701 34.3331 8.16139C34.3331 7.80194 34.3237 7.43137 34.305 7.04968H34.808C34.7892 7.37949 34.7798 7.79144 34.7798 8.28553C34.7798 8.77962 34.7898 9.23295 34.8098 9.64552Z" fill="#F9F9FA"/>
<path id="Vector_20" d="M37.7322 8.2596C37.7378 8.62209 37.6074 8.97382 37.3662 9.24716C37.2381 9.38954 37.079 9.50148 36.9009 9.57463C36.7228 9.64779 36.5303 9.68026 36.3376 9.66961C36.1387 9.66961 35.8647 9.66961 35.5156 9.64552C35.5331 9.24531 35.5418 8.79321 35.5418 8.28924C35.5418 7.8075 35.5418 7.39431 35.5156 7.05339H35.8684H36.1256H36.3508C36.835 7.05339 37.1866 7.17259 37.4056 7.41099C37.6189 7.64311 37.7356 7.9462 37.7322 8.2596ZM37.1823 8.34668C37.1897 8.11178 37.1095 7.88235 36.957 7.70189C36.8689 7.61023 36.7612 7.53919 36.6417 7.49398C36.5222 7.44878 36.3939 7.43055 36.2663 7.44064C36.1873 7.44209 36.1083 7.44766 36.0298 7.45731C36.043 7.72412 36.0486 8.00019 36.0486 8.28924C36.0486 8.60793 36.0486 8.92106 36.0693 9.23419C36.1558 9.25107 36.2438 9.25976 36.332 9.26013C36.4529 9.27016 36.5744 9.25112 36.6862 9.20465C36.798 9.15819 36.8967 9.08568 36.9739 8.99332C37.1159 8.80746 37.1894 8.57935 37.1823 8.34668Z" fill="#F9F9FA"/>
<path id="Vector_21" d="M40.4274 9.64552H39.8306C39.747 9.34264 39.6267 9.05086 39.4721 8.77653C39.4236 8.71847 39.3615 8.67294 39.2912 8.64389C39.2209 8.61483 39.1445 8.60312 39.0686 8.60977H38.8452C38.8452 8.95255 38.8452 9.29533 38.864 9.64367H38.3009C38.3172 9.24345 38.3259 8.79136 38.3272 8.28738C38.3272 7.80564 38.3178 7.39245 38.3009 7.05153H38.65H38.9034H39.2581C39.875 7.05153 40.1834 7.25966 40.1834 7.67594C40.1866 7.83281 40.1364 7.9862 40.0408 8.11152C39.9451 8.23683 39.8096 8.32682 39.656 8.36705V8.3967C39.8114 8.45161 39.9393 8.56385 40.0126 8.70983C40.1739 9.01131 40.3125 9.32404 40.4274 9.64552ZM39.6767 7.8149C39.6767 7.54994 39.5059 7.41839 39.1605 7.41839C39.0481 7.41528 38.9356 7.42273 38.8246 7.44063C38.8396 7.64629 38.8471 7.91496 38.8471 8.24476H39.0348C39.4571 8.25403 39.671 8.10765 39.671 7.8112L39.6767 7.8149Z" fill="#F9F9FA"/>
<path id="Vector_22" d="M43.3179 8.3022C43.3318 8.67549 43.197 9.03931 42.9425 9.31571C42.8242 9.44502 42.6793 9.54782 42.5174 9.61718C42.3555 9.68654 42.1805 9.72084 42.004 9.71778C41.8377 9.7214 41.6724 9.69026 41.5191 9.62639C41.3658 9.56253 41.2278 9.46739 41.1144 9.34721C40.9943 9.22237 40.9006 9.07517 40.8387 8.91421C40.7768 8.75324 40.748 8.58173 40.754 8.40967C40.7409 8.0365 40.8756 7.67297 41.1294 7.39616C41.2475 7.26665 41.3924 7.16373 41.5543 7.09435C41.7162 7.02498 41.8914 6.99079 42.0679 6.99409C42.2345 6.99056 42.4 7.02173 42.5536 7.08558C42.7072 7.14943 42.8455 7.24453 42.9594 7.36466C43.0791 7.48965 43.1725 7.63691 43.234 7.79787C43.2956 7.95883 43.3241 8.13027 43.3179 8.3022ZM42.7548 8.35964C42.7663 8.11695 42.6905 7.87808 42.5408 7.6852C42.4783 7.6043 42.3976 7.53879 42.3051 7.49378C42.2126 7.44878 42.1109 7.42552 42.0078 7.42581C41.9094 7.42653 41.8127 7.45065 41.7258 7.49613C41.6389 7.54161 41.5643 7.6071 41.5085 7.68705C41.3649 7.87694 41.292 8.1099 41.3021 8.34667C41.2909 8.58904 41.3674 8.82743 41.5179 9.01925C41.58 9.10022 41.6603 9.16582 41.7525 9.21085C41.8447 9.25587 41.9462 9.27909 42.0491 9.27865C42.1477 9.27792 42.2447 9.2538 42.3319 9.20834C42.4191 9.16287 42.494 9.09739 42.5502 9.0174C42.6945 8.83089 42.7705 8.60167 42.7661 8.36705L42.7548 8.35964Z" fill="#F9F9FA"/>
<path id="Vector_23" d="M44.4553 9.64552H43.8922C43.911 9.23419 43.9185 8.78209 43.9185 8.28924C43.9185 7.79638 43.9185 7.39431 43.8922 7.05339H44.4553C44.439 7.38814 44.4302 7.80009 44.429 8.28924C44.4277 8.77839 44.4365 9.23049 44.4553 9.64552Z" fill="#F9F9FA"/>
<path id="Vector_24" d="M47.3795 8.2596C47.3825 8.62331 47.2487 8.97519 47.0041 9.24716C46.8758 9.38932 46.7167 9.50112 46.5387 9.57426C46.3606 9.6474 46.1681 9.67999 45.9756 9.66961C45.7766 9.66961 45.5026 9.66961 45.1535 9.64552C45.1697 9.24531 45.1785 8.79321 45.1798 8.28924C45.1798 7.8075 45.1797 7.39431 45.1535 7.05339H45.5063H45.7635H45.9868C46.4729 7.05339 46.8239 7.17197 47.0435 7.41099C47.2603 7.6417 47.3803 7.94495 47.3795 8.2596ZM46.8296 8.34668C46.837 8.11178 46.7568 7.88235 46.6043 7.70189C46.5162 7.61023 46.4085 7.53919 46.289 7.49398C46.1694 7.44878 46.0412 7.43055 45.9136 7.44064C45.8346 7.44209 45.7556 7.44766 45.6771 7.45731C45.6903 7.72412 45.6959 8.00019 45.6959 8.28924C45.6959 8.60793 45.6959 8.92106 45.7165 9.23419C45.8031 9.25107 45.8911 9.25976 45.9793 9.26013C46.1002 9.27016 46.2217 9.25112 46.3335 9.20465C46.4453 9.15819 46.544 9.08568 46.6212 8.99332C46.7632 8.80746 46.8367 8.57935 46.8296 8.34668Z" fill="#F9F9FA"/>
<path id="Vector_25" d="M51.2572 9.64552H50.6115C50.5724 9.39326 50.5096 9.14514 50.4238 8.90438H49.4854C49.3983 9.14475 49.3355 9.393 49.2977 9.64552H48.6914C48.8267 9.21306 48.9839 8.7876 49.1625 8.37076C49.3504 7.94317 49.5072 7.50294 49.6318 7.05339H50.3938C50.5088 7.49414 50.6517 7.92733 50.8217 8.35038C50.9926 8.77326 51.138 9.20573 51.2572 9.64552ZM50.3187 8.52084C50.1837 8.15657 50.0685 7.78548 49.9734 7.40913H49.9415C49.9415 7.46101 49.8213 7.82973 49.5848 8.52084H50.3187Z" fill="#F9F9FA"/>
<path id="Vector_26" d="M53.6089 7.73338C53.6179 7.87133 53.5895 8.00916 53.5264 8.13261C53.4634 8.25607 53.3681 8.36067 53.2505 8.43561C52.9859 8.59304 52.6808 8.67154 52.3721 8.66165C52.327 8.66405 52.2819 8.66405 52.2369 8.66165C52.2369 8.91179 52.2369 9.23975 52.2595 9.64922H51.6964C51.7151 9.26569 51.7226 8.81359 51.7226 8.29294C51.7226 7.81676 51.7227 7.40357 51.6964 7.05709H52.0474H52.3345H52.7005C52.9286 7.0501 53.1538 7.10938 53.3481 7.22755C53.4318 7.28273 53.4998 7.35822 53.5455 7.4468C53.5912 7.53538 53.613 7.63406 53.6089 7.73338ZM53.089 7.8427C53.089 7.55921 52.9014 7.41654 52.526 7.41654C52.4245 7.41675 52.3233 7.42668 52.2238 7.44619C52.2388 7.69632 52.2444 7.98166 52.2444 8.2985H52.3627C52.8469 8.30097 53.089 8.14904 53.089 7.8427Z" fill="#F9F9FA"/>
<path id="Vector_27" d="M56.0264 7.73338C56.0356 7.87116 56.0074 8.00886 55.9447 8.1323C55.882 8.25574 55.7871 8.36044 55.6698 8.43561C55.4052 8.59304 55.1001 8.67154 54.7914 8.66165C54.7464 8.66413 54.7013 8.66413 54.6562 8.66165C54.6562 8.91179 54.6562 9.23975 54.6788 9.64922H54.1157C54.132 9.26507 54.1407 8.81297 54.142 8.29294C54.142 7.81676 54.1326 7.40357 54.1157 7.05709H54.4667H54.752H55.1273C55.3554 7.0501 55.5806 7.10938 55.7749 7.22755C55.8566 7.28405 55.9226 7.36007 55.9666 7.44852C56.0105 7.53696 56.0311 7.63496 56.0264 7.73338ZM55.5065 7.8427C55.5065 7.55921 55.3188 7.41654 54.9434 7.41654C54.842 7.41685 54.7408 7.42677 54.6412 7.44619C54.6563 7.69632 54.6638 7.98166 54.6638 8.2985H54.7801C55.2625 8.3022 55.5065 8.14842 55.5065 7.8427Z" fill="#F9F9FA"/>
<path id="Vector_28" d="M59.981 8.3022C59.9942 8.67537 59.8595 9.0389 59.6057 9.31571C59.4874 9.44502 59.3425 9.54782 59.1806 9.61718C59.0187 9.68654 58.8437 9.72084 58.6672 9.71778C58.5008 9.7214 58.3356 9.69026 58.1823 9.62639C58.0289 9.56253 57.891 9.46739 57.7776 9.34721C57.6575 9.22237 57.5638 9.07517 57.5019 8.91421C57.44 8.75324 57.4112 8.58173 57.4172 8.40967C57.4041 8.0365 57.5387 7.67297 57.7926 7.39616C57.9106 7.26656 58.0555 7.16356 58.2174 7.09418C58.3794 7.02481 58.5545 6.99066 58.731 6.99409C58.8977 6.99056 59.0632 7.02173 59.2168 7.08558C59.3704 7.14943 59.5087 7.24453 59.6226 7.36466C59.7423 7.48965 59.8357 7.63691 59.8972 7.79787C59.9588 7.95883 59.9873 8.13027 59.981 8.3022ZM59.418 8.35964C59.4297 8.11662 59.3532 7.87745 59.2021 7.6852C59.1401 7.60423 59.0598 7.53863 58.9676 7.49361C58.8754 7.44859 58.7738 7.42537 58.671 7.42581C58.5723 7.42654 58.4753 7.45066 58.3881 7.49612C58.3009 7.54158 58.2261 7.60706 58.1698 7.68705C58.0277 7.87759 57.9555 8.11024 57.9652 8.34667C57.9541 8.58904 58.0306 8.82743 58.1811 9.01925C58.2432 9.10022 58.3235 9.16582 58.4157 9.21085C58.5079 9.25587 58.6094 9.27909 58.7123 9.27865C58.8109 9.27792 58.9079 9.2538 58.9951 9.20834C59.0823 9.16287 59.1572 9.09739 59.2134 9.0174C59.3556 8.83016 59.4297 8.60101 59.4236 8.36705L59.418 8.35964Z" fill="#F9F9FA"/>
<path id="Vector_29" d="M62.7138 9.64552H62.2146C62.2146 9.5924 62.0269 9.30521 61.6515 8.78395C61.2648 8.22809 61.0434 7.85752 60.9908 7.65927H60.972C61.0025 7.92071 61.0188 8.18357 61.0208 8.44673C61.0208 8.77406 61.0302 9.17366 61.049 9.64552H60.5535C60.5735 9.23419 60.5835 8.78209 60.5835 8.28923C60.5835 7.79638 60.5735 7.38443 60.5535 7.05339H61.1522C61.1522 7.12379 61.3186 7.40481 61.6515 7.89643C61.8974 8.22375 62.1017 8.5797 62.2596 8.95626H62.2896C62.2593 8.69233 62.243 8.42701 62.2408 8.16139C62.2408 7.80194 62.2408 7.43137 62.2127 7.04968H62.7176C62.6988 7.37949 62.6894 7.79144 62.6894 8.28553C62.6894 8.77962 62.6976 9.23295 62.7138 9.64552Z" fill="#F9F9FA"/>
</g>
<defs>
<linearGradient id="paint0_linear_402_1210" x1="13.0621" y1="6.71803" x2="13.0621" y2="27.7108" gradientUnits="userSpaceOnUse">
<stop stop-color="#257CB0"/>
<stop offset="0.21" stop-color="#3C8FB3"/>
<stop offset="0.74" stop-color="#73BDBA"/>
<stop offset="1" stop-color="#89CFBD"/>
</linearGradient>
<linearGradient id="paint1_linear_402_1210" x1="7.69981" y1="11.9282" x2="21.3036" y2="11.9282" gradientUnits="userSpaceOnUse">
<stop stop-color="#52C1AD"/>
<stop offset="1" stop-color="#DEE89A"/>
</linearGradient>
<linearGradient id="paint2_linear_402_1210" x1="14.5017" y1="17.2144" x2="14.5017" y2="27.7886" gradientUnits="userSpaceOnUse">
<stop stop-color="#EC413D"/>
<stop offset="0.19" stop-color="#D74352"/>
<stop offset="0.74" stop-color="#A04888"/>
<stop offset="1" stop-color="#8A4A9D"/>
</linearGradient>
<linearGradient id="paint3_linear_402_1210" x1="22.3378" y1="14.3962" x2="22.3378" y2="20.0344" gradientUnits="userSpaceOnUse">
<stop stop-color="#F58879"/>
<stop offset="0.62" stop-color="#FBB276"/>
<stop offset="1" stop-color="#FEC874"/>
</linearGradient>
<clipPath id="clip0_402_1210">
<rect width="96" height="31" fill="white" transform="translate(0.5 0.75)"/>
</clipPath>
</defs>
</svg>
