<svg width="201" height="48" viewBox="0 0 201 48" fill="none" xmlns="http://www.w3.org/2000/svg">
<path d="M31.8997 10.1768C33.9815 9.29675 36.2515 8.95976 38.4981 9.19716C40.4457 9.39358 42.3251 10.0232 43.9996 11.0403C44.9448 11.6038 45.804 12.3031 46.5874 13.0751C45.611 14.0427 44.6515 15.0266 43.6713 15.9903C44.3294 16.6891 44.9193 17.4602 45.348 18.3237C46.3239 20.229 46.596 22.4781 46.129 24.5664C45.7519 26.2639 44.901 27.8186 43.6756 29.0487C43.7409 29.1542 43.8402 29.2312 43.9257 29.3203C44.7401 30.1401 45.5562 30.9588 46.3738 31.7766C46.4439 31.8507 46.5341 31.9148 46.5658 32.0174C45.5026 33.0485 44.3006 33.9438 42.9623 34.5848C41.3999 35.3474 39.704 35.796 37.9701 35.9054C35.8537 36.0499 33.7109 35.6598 31.7629 34.8232C31.4821 33.9082 31.2104 32.9888 30.9272 32.0732C31.63 32.499 32.3548 32.892 33.1291 33.1732C35.3366 34.0007 37.7458 34.1195 40.0236 33.5133C41.2961 33.1858 42.4947 32.6069 43.583 31.8758C43.1 31.3556 42.5749 30.8774 42.092 30.3553C41.5409 30.679 40.9788 30.9901 40.3755 31.2068C38.7115 31.8354 36.9023 31.9703 35.164 31.5954C33.4257 31.2205 31.8316 30.3517 30.572 29.0925C31.0472 28.6109 31.532 28.1361 32.0025 27.6477C32.6894 28.3335 33.5052 28.8756 34.4026 29.2428C36.386 30.0591 38.7357 29.9228 40.6035 28.8623C40.0658 28.3542 39.5589 27.8129 39.0276 27.2981C38.3312 27.5817 37.5811 27.7078 36.8306 27.6673C36.0801 27.6268 35.3478 27.4207 34.6858 27.0638C34.0238 26.7068 33.4484 26.2078 33.0006 25.6022C32.5528 24.9966 32.2436 24.2994 32.0951 23.5603C32.6932 23.5738 33.2918 23.5574 33.8904 23.5685C33.9899 23.5688 34.0891 23.5578 34.1861 23.5357C34.4206 24.2245 34.8892 24.8086 35.51 25.1854C36.1307 25.5622 36.8638 25.7078 37.5808 25.5965C38.2416 25.4947 38.8517 25.1805 39.3194 24.7012C40.2948 25.6741 41.268 26.6492 42.2389 27.6265C42.776 27.0718 43.2261 26.4385 43.5738 25.7482C44.4859 23.9224 44.567 21.7027 43.7951 19.8143C43.4413 18.9267 42.8965 18.1253 42.2384 17.4375C41.2649 18.4128 40.2958 19.3924 39.3185 20.3643C38.7894 19.8227 38.081 19.4942 37.327 19.441C36.573 19.3877 35.8257 19.6134 35.2263 20.0753C34.7474 20.4415 34.3868 20.9412 34.1894 21.512C33.4896 21.5023 32.7892 21.512 32.0893 21.5086C32.4062 19.8851 33.5601 18.4561 35.0803 17.8146C36.3118 17.2853 37.7003 17.2584 38.9512 17.7395C38.9631 17.747 38.9764 17.7521 38.9903 17.7544C39.0042 17.7567 39.0184 17.7562 39.0321 17.7529C39.0457 17.7497 39.0586 17.7437 39.07 17.7353C39.0813 17.727 39.0909 17.7165 39.0981 17.7044C39.5954 17.1972 40.1062 16.7031 40.5982 16.1906C39.8594 15.8126 39.0736 15.5164 38.2504 15.3941C36.5255 15.1152 34.7583 15.4752 33.2784 16.4069C33.3539 16.8408 33.2818 17.2876 33.0739 17.6755C32.8727 18.0587 32.5542 18.3669 32.1653 18.555C31.7765 18.743 31.3377 18.8008 30.9136 18.7199C30.4895 18.639 30.1025 18.4237 29.8095 18.1057C29.5165 17.7876 29.333 17.3836 29.286 16.953C29.1742 16.1093 29.67 15.2409 30.4419 14.8913C30.9218 14.6703 31.4686 14.6455 31.9665 14.8219C33.4642 13.8247 35.2178 13.284 37.0152 13.2654C38.8126 13.2468 40.577 13.7509 42.0949 14.7169C42.152 14.6206 42.2389 14.5508 42.3157 14.4713C42.7372 14.0451 43.1649 13.6246 43.5849 13.1974C42.0328 12.1107 40.234 11.4318 38.3528 11.2227C36.4717 11.0136 34.5684 11.2811 32.8169 12.0006C31.0654 12.7202 29.5217 13.8688 28.3269 15.3415C27.1321 16.8142 26.3245 18.564 25.9777 20.4308C25.2923 20.4332 24.6063 20.4235 23.9208 20.4356C24.2731 18.1865 25.1906 16.0644 26.5868 14.2696C27.9829 12.4748 29.8117 11.0664 31.9007 10.1772L31.8997 10.1768Z" fill="white"/>
<path d="M27.9367 21.5081C29.3206 21.5081 30.7049 21.5081 32.0893 21.5081C32.7892 21.5081 33.4895 21.5018 34.1894 21.5115C33.9736 22.169 33.9718 22.8784 34.1841 23.5371C34.0871 23.5593 33.9879 23.5703 33.8884 23.5699C33.2899 23.5588 32.6913 23.5752 32.0932 23.5617C32.0029 23.5564 31.9132 23.5468 31.8239 23.5391C30.8741 24.5482 29.93 25.5626 28.9918 26.5824C28.7743 26.8174 28.5405 27.0389 28.348 27.2951C29.1962 30.0312 30.0104 32.7783 30.8523 35.5167C29.141 35.5317 27.4288 35.5216 25.7161 35.5216C25.2937 33.8436 24.8521 32.17 24.4359 30.4916C24.0667 30.8769 23.6837 31.2463 23.3117 31.6282C23.2531 31.6947 23.1624 31.7438 23.1451 31.8377C22.9013 32.9936 22.6566 34.148 22.4112 35.301C22.3814 35.3838 22.4112 35.5543 22.2739 35.5225C20.6322 35.5225 18.9901 35.5288 17.3479 35.5187C18.3559 30.8509 19.3241 26.1754 20.3303 21.5067C21.9998 21.5153 23.6693 21.5009 25.3383 21.5139C25.105 22.5734 24.8852 23.6368 24.6553 24.6973C24.5276 25.3446 24.362 25.9852 24.254 26.6358C25.3974 25.0701 26.5153 23.4846 27.6347 21.9016C27.7427 21.7754 27.8099 21.6131 27.9367 21.5081Z" fill="#FF8049"/>
<path d="M68.1925 29.2737H65.3612L61.9511 23.318L60.0457 25.6012V29.2737H57.3479V16.4773H60.0457V22.3357L64.7379 16.4773H67.7206L63.8119 21.433L68.1925 29.2737Z" fill="#FF8049"/>
<path d="M71.3457 25.2914C71.3397 25.7575 71.4139 26.1646 71.5683 26.5127C71.7226 26.8549 71.9452 27.1203 72.236 27.3091C72.5328 27.492 72.889 27.5835 73.3045 27.5835C73.7497 27.5835 74.1384 27.4891 74.4708 27.3003C74.8092 27.1115 75.0436 26.8018 75.1742 26.3711H77.5159C77.415 27.02 77.1538 27.5746 76.7324 28.0348C76.3169 28.495 75.8123 28.846 75.2188 29.0879C74.6252 29.3298 74.0079 29.4507 73.3668 29.4507C72.4586 29.4507 71.6573 29.2619 70.9628 28.8844C70.2743 28.5009 69.7371 27.961 69.3513 27.2649C68.9654 26.5687 68.7725 25.7487 68.7725 24.8047C68.7725 23.8903 68.9476 23.0672 69.2978 22.3357C69.648 21.5982 70.1556 21.0171 70.8204 20.5923C71.4911 20.1616 72.2954 19.9463 73.2332 19.9463C74.1711 19.9463 74.9576 20.1439 75.5927 20.5392C76.2338 20.9286 76.7146 21.4743 77.0351 22.1764C77.3616 22.8726 77.5248 23.6779 77.5248 24.5923V25.2914H71.3457ZM71.3368 23.7516H75.0941C75.0941 23.3858 75.0258 23.0495 74.8893 22.7428C74.7528 22.436 74.545 22.1941 74.2661 22.0171C73.993 21.8401 73.6487 21.7516 73.2332 21.7516C72.8296 21.7516 72.4853 21.849 72.2004 22.0436C71.9214 22.2324 71.7077 22.4802 71.5594 22.787C71.411 23.0938 71.3368 23.4153 71.3368 23.7516Z" fill="#FF8049"/>
<path d="M79.3297 32.1233V20.1233H81.9385L81.9474 21.4419C82.0839 21.2236 82.2501 21.0259 82.446 20.849C82.6478 20.6661 82.8704 20.5068 83.1138 20.3711C83.3571 20.2354 83.6213 20.1321 83.9062 20.0613C84.1911 19.9846 84.4909 19.9463 84.8055 19.9463C85.4881 19.9463 86.0965 20.1144 86.6307 20.4507C87.1649 20.7811 87.5834 21.2944 87.8861 21.9905C88.1948 22.6808 88.3491 23.5599 88.3491 24.6277C88.3491 25.7369 88.1829 26.6484 87.8505 27.3622C87.524 28.0702 87.0729 28.5953 86.4972 28.9375C85.9214 29.2796 85.2714 29.4507 84.5473 29.4507C84.2505 29.4507 83.9715 29.4094 83.7103 29.3268C83.4491 29.2501 83.2058 29.141 82.9802 28.9994C82.7606 28.8578 82.5617 28.6956 82.3837 28.5127C82.2115 28.3239 82.0602 28.1203 81.9296 27.9021V32.1233H79.3297ZM83.924 27.5569C84.4879 27.5569 84.9598 27.3239 85.3397 26.8578C85.7255 26.3917 85.9184 25.6543 85.9184 24.6454C85.9184 23.7605 85.7344 23.0702 85.3664 22.5746C85.0043 22.0731 84.5235 21.8224 83.924 21.8224C83.2533 21.8224 82.7517 22.0938 82.4193 22.6366C82.0928 23.1734 81.9296 23.8431 81.9296 24.6454C81.9296 25.1587 82.0008 25.6366 82.1433 26.079C82.2917 26.5215 82.5113 26.8785 82.8021 27.1498C83.0989 27.4212 83.4729 27.5569 83.924 27.5569Z" fill="#FF8049"/>
<path d="M95.3904 21.9198H93.3425L93.3603 26.7959C93.3603 27.02 93.387 27.1882 93.4405 27.3003C93.4998 27.4065 93.5889 27.4773 93.7076 27.5127C93.8322 27.5422 93.9895 27.5569 94.1795 27.5569H95.4171V29.1498C95.2984 29.2029 95.1114 29.2531 94.8561 29.3003C94.6068 29.3475 94.2566 29.3711 93.8055 29.3711C92.9982 29.3711 92.372 29.2678 91.9268 29.0613C91.4876 28.8549 91.1819 28.5658 91.0098 28.1941C90.8376 27.8224 90.7516 27.3917 90.7516 26.9021V21.9198H89.2558V20.1233H90.8406L91.4906 17.3622H93.3425V20.1144H95.3904V21.9198Z" fill="#FF8049"/>
<path d="M100.968 29.4507C100.066 29.4507 99.2798 29.259 98.609 28.8755C97.9442 28.492 97.4278 27.9492 97.0598 27.2472C96.6977 26.5451 96.5167 25.7133 96.5167 24.7516C96.5167 23.79 96.6977 22.9492 97.0598 22.2295C97.4278 21.5097 97.9442 20.9492 98.609 20.5481C99.2798 20.1469 100.069 19.9463 100.977 19.9463C101.886 19.9463 102.672 20.1439 103.337 20.5392C104.002 20.9286 104.515 21.4832 104.877 22.2029C105.239 22.9227 105.42 23.7723 105.42 24.7516C105.42 25.672 105.242 26.4861 104.886 27.1941C104.536 27.8962 104.028 28.4478 103.364 28.849C102.705 29.2501 101.906 29.4507 100.968 29.4507ZM100.977 27.5304C101.434 27.5304 101.802 27.3976 102.081 27.1321C102.36 26.8667 102.562 26.5186 102.687 26.0879C102.817 25.6513 102.883 25.1764 102.883 24.6631C102.883 24.1793 102.823 23.7221 102.705 23.2914C102.592 22.8608 102.396 22.5127 102.117 22.2472C101.838 21.9817 101.458 21.849 100.977 21.849C100.52 21.849 100.149 21.9758 99.8644 22.2295C99.5855 22.4773 99.3807 22.8165 99.2501 23.2472C99.1195 23.672 99.0542 24.1439 99.0542 24.6631C99.0542 25.141 99.1136 25.6012 99.2323 26.0436C99.351 26.4802 99.5498 26.8372 99.8288 27.1144C100.108 27.3917 100.491 27.5304 100.977 27.5304Z" fill="#FF8049"/>
<path d="M116.501 16.3003C117.468 16.3003 118.329 16.495 119.083 16.8844C119.843 17.2678 120.454 17.7929 120.917 18.4596C121.386 19.1262 121.662 19.8785 121.745 20.7162H119.021C118.938 20.2737 118.786 19.8814 118.567 19.5392C118.347 19.1911 118.059 18.9198 117.703 18.7251C117.347 18.5245 116.919 18.4242 116.421 18.4242C115.821 18.4242 115.305 18.5687 114.872 18.8578C114.438 19.1469 114.106 19.613 113.874 20.256C113.643 20.8991 113.527 21.7487 113.527 22.8047C113.527 24.3976 113.782 25.551 114.293 26.2649C114.809 26.9728 115.519 27.3268 116.421 27.3268C116.919 27.3268 117.347 27.2147 117.703 26.9905C118.059 26.7605 118.347 26.4596 118.567 26.0879C118.786 25.7103 118.938 25.2973 119.021 24.849H121.745C121.668 25.4566 121.52 26.0377 121.3 26.5923C121.08 27.141 120.769 27.6307 120.365 28.0613C119.961 28.492 119.442 28.8313 118.807 29.079C118.172 29.3268 117.403 29.4507 116.501 29.4507C115.302 29.4507 114.266 29.1734 113.394 28.6189C112.521 28.0643 111.847 27.2855 111.372 26.2826C110.903 25.2796 110.669 24.1085 110.669 22.7693C110.669 21.4242 110.903 20.2708 111.372 19.3091C111.841 18.3416 112.512 17.5982 113.385 17.079C114.257 16.5599 115.296 16.3003 116.501 16.3003Z" fill="white"/>
<path d="M126.136 29.4507C125.549 29.4507 125.021 29.3416 124.552 29.1233C124.083 28.905 123.712 28.5894 123.439 28.1764C123.166 27.7575 123.029 27.2501 123.029 26.6543C123.029 25.6513 123.406 24.8903 124.16 24.3711C124.914 23.846 126.104 23.5746 127.73 23.5569L128.879 23.5392V22.9905C128.879 22.5717 128.754 22.2501 128.505 22.0259C128.261 21.7959 127.882 21.6838 127.365 21.6897C126.985 21.6956 126.623 21.7841 126.279 21.9551C125.941 22.1262 125.709 22.4242 125.584 22.849H123.421C123.456 22.1882 123.649 21.6454 124 21.2206C124.35 20.79 124.825 20.4714 125.424 20.2649C126.03 20.0525 126.715 19.9463 127.481 19.9463C128.425 19.9463 129.181 20.0643 129.751 20.3003C130.321 20.5304 130.734 20.8637 130.989 21.3003C131.244 21.731 131.372 22.2442 131.372 22.8401V29.2737H129.199L128.986 27.6985C128.671 28.3593 128.276 28.8165 127.801 29.0702C127.332 29.3239 126.777 29.4507 126.136 29.4507ZM127.009 27.7516C127.246 27.7516 127.475 27.7103 127.695 27.6277C127.92 27.5392 128.119 27.4242 128.291 27.2826C128.469 27.1351 128.612 26.9699 128.718 26.787C128.825 26.6041 128.879 26.4153 128.879 26.2206V24.8667L127.944 24.8844C127.511 24.8903 127.107 24.9433 126.733 25.0436C126.359 25.138 126.056 25.2944 125.825 25.5127C125.599 25.731 125.486 26.0259 125.486 26.3976C125.486 26.8224 125.635 27.1557 125.932 27.3976C126.228 27.6336 126.588 27.7516 127.009 27.7516Z" fill="white"/>
<path d="M137.21 29.4507C136.569 29.4507 135.952 29.3475 135.358 29.141C134.765 28.9286 134.263 28.5982 133.854 28.1498C133.444 27.6956 133.183 27.1085 133.07 26.3888H135.323C135.4 26.7133 135.54 26.9699 135.741 27.1587C135.949 27.3475 136.184 27.4832 136.445 27.5658C136.706 27.6425 136.955 27.6808 137.193 27.6808C137.691 27.6808 138.092 27.6041 138.395 27.4507C138.703 27.2914 138.858 27.0495 138.858 26.7251C138.858 26.4773 138.766 26.2796 138.582 26.1321C138.404 25.9846 138.107 25.8726 137.691 25.7959L136.071 25.4596C135.258 25.2885 134.605 24.9994 134.112 24.5923C133.619 24.1793 133.367 23.5953 133.355 22.8401C133.355 22.2914 133.501 21.7988 133.791 21.3622C134.088 20.9257 134.525 20.5805 135.1 20.3268C135.676 20.0731 136.382 19.9463 137.219 19.9463C138.353 19.9463 139.258 20.1941 139.935 20.6897C140.618 21.1852 140.965 21.8844 140.977 22.787H138.804C138.739 22.433 138.561 22.1616 138.27 21.9728C137.985 21.7782 137.626 21.6808 137.193 21.6808C136.742 21.6808 136.371 21.7605 136.08 21.9198C135.789 22.079 135.643 22.3209 135.643 22.6454C135.643 22.8873 135.762 23.079 136 23.2206C136.237 23.3563 136.605 23.4743 137.104 23.5746L138.599 23.9109C139.116 24.0348 139.534 24.2059 139.855 24.4242C140.181 24.6366 140.434 24.8696 140.612 25.1233C140.79 25.377 140.911 25.6336 140.977 25.8932C141.048 26.1469 141.084 26.377 141.084 26.5835C141.084 27.1911 140.92 27.7103 140.594 28.141C140.267 28.5658 139.813 28.8903 139.232 29.1144C138.65 29.3386 137.976 29.4507 137.21 29.4507Z" fill="white"/>
<path d="M142.907 29.2737V16.1233H145.489V21.4419C145.638 21.2295 145.825 21.02 146.05 20.8136C146.276 20.6012 146.558 20.4242 146.896 20.2826C147.234 20.141 147.647 20.0702 148.134 20.0702C148.721 20.0702 149.256 20.1852 149.736 20.4153C150.223 20.6395 150.612 20.9669 150.903 21.3976C151.2 21.8283 151.348 22.3534 151.348 22.9728V29.2737H148.739V23.3534C148.739 22.9404 148.588 22.6248 148.285 22.4065C147.988 22.1823 147.626 22.0702 147.199 22.0702C146.92 22.0702 146.65 22.1203 146.389 22.2206C146.127 22.3209 145.914 22.4743 145.748 22.6808C145.587 22.8814 145.507 23.1321 145.507 23.433V29.2737H142.907Z" fill="white"/>
</svg>
