<svg width="48" height="48" viewBox="0 0 48 48" fill="none" xmlns="http://www.w3.org/2000/svg">
<g id="icon">
<path id="Vector" d="M42.5602 30.8H33.6202C33.1353 30.8529 32.6448 30.797 32.1843 30.6363C31.7238 30.4757 31.305 30.2144 30.9582 29.8715C30.6114 29.5286 30.3455 29.1126 30.1798 28.6539C30.014 28.1953 29.9527 27.7054 30.0002 27.22V23.7C29.9324 23.2034 29.9794 22.698 30.1374 22.2224C30.2955 21.7468 30.5604 21.3137 30.9119 20.9565C31.2633 20.5992 31.692 20.3272 32.1649 20.1614C32.6379 19.9956 33.1425 19.9404 33.6402 20H42.5602V18C42.5602 17.34 42.5602 16.68 42.5602 16C42.5602 15.32 42.3402 14.98 41.5602 14.98H13.7002C12.1002 14.98 11.4802 15.62 11.4802 17.26C11.4802 18.2 11.4802 19.26 11.4802 20.12C11.4802 20.62 11.3202 21.02 10.7602 21.02C10.2002 21.02 10.0002 20.72 10.0002 20.22C10.0002 17.32 10.0002 14.44 10.0002 11.54C9.98872 11.249 10.038 10.9587 10.1447 10.6877C10.2515 10.4167 10.4135 10.1709 10.6204 9.96586C10.8273 9.76083 11.0746 9.6011 11.3466 9.49679C11.6185 9.39249 11.9092 9.34591 12.2002 9.36H32.7202C33.9006 9.32922 35.0546 9.71226 35.9824 10.4428C36.9101 11.1733 37.5532 12.2053 37.8002 13.36C37.8002 13.36 37.8002 13.52 37.9202 13.68H41.5402C41.8722 13.6342 42.2104 13.6655 42.5283 13.7716C42.8463 13.8777 43.1355 14.0557 43.3735 14.2918C43.6114 14.5278 43.7918 14.8156 43.9005 15.1326C44.0092 15.4497 44.0433 15.7876 44.0002 16.12V35.14C44.04 35.6114 43.9762 36.0859 43.8131 36.53C43.65 36.9741 43.3917 37.3771 43.0562 37.7107C42.7207 38.0443 42.3162 38.3003 41.8712 38.4609C41.4261 38.6214 40.9513 38.6826 40.4802 38.64H13.5002C12.6704 38.7198 11.842 38.4747 11.1892 37.9562C10.5365 37.4377 10.1102 36.6863 10.0002 35.86C10.0002 35.22 10.1202 34.78 10.5802 34.74C11.0402 34.7 11.3402 35.06 11.4202 35.6C11.456 36.0636 11.6738 36.4942 12.026 36.7977C12.3783 37.1013 12.8363 37.2531 13.3002 37.22H40.6402C40.8934 37.2516 41.1504 37.2284 41.3939 37.1519C41.6374 37.0754 41.8615 36.9475 42.0512 36.7768C42.2409 36.606 42.3917 36.3965 42.4933 36.1624C42.5949 35.9284 42.645 35.6751 42.6402 35.42C42.6002 34 42.5602 32.42 42.5602 30.8ZM36.4202 13.66C36.3386 13.3452 36.2316 13.0375 36.1002 12.74C35.7794 12.1071 35.2815 11.5812 34.6672 11.2261C34.0529 10.871 33.3487 10.7021 32.6402 10.74H12.4402C12.3345 10.7195 12.2258 10.7195 12.1202 10.74C11.9002 10.92 11.5402 11.12 11.5202 11.32C11.5202 12.22 11.5202 13.12 11.5202 13.86C12.4202 13.86 13.2402 13.6 14.0802 13.6H36.4202V13.66ZM42.5602 21.66H42.3002H33.2202C32.9803 21.6622 32.7433 21.7134 32.524 21.8104C32.3046 21.9075 32.1073 22.0484 31.9444 22.2244C31.7814 22.4005 31.6562 22.608 31.5764 22.8343C31.4965 23.0605 31.4638 23.3007 31.4802 23.54C31.4802 24.82 31.4802 26.08 31.4802 27.34C31.4802 28.6 32.1602 29.5 33.6202 29.5H42.5602V21.66Z" fill="#FF8049"/>
<path id="Vector_2" d="M10.5401 24.0001H5.00008C4.32008 24.0001 3.96008 23.7401 4.00008 23.2601C4.04008 22.7801 4.50008 22.5601 5.00008 22.5601H16.2201C16.7401 22.5601 17.1801 22.7001 17.1801 23.2801C17.1801 23.8601 16.7401 24.0401 16.2201 24.0001H10.5401Z" fill="#FF8049"/>
<path id="Vector_3" d="M11.8001 28.3H7.50008C6.82008 28.3 6.46008 28.02 6.50008 27.54C6.54008 27.06 6.98008 26.86 7.50008 26.86H16.1801C16.7001 26.86 17.1201 26.96 17.1801 27.54C17.2401 28.12 16.8601 28.3 16.1801 28.3H11.8001Z" fill="#FF8049"/>
<path id="Vector_4" d="M13.0401 32.58H10.0001C9.5201 32.58 9.1001 32.42 9.1001 31.86C9.1001 31.3 9.5001 31.16 9.9801 31.16H16.3801C16.8801 31.16 17.2801 31.3 17.2801 31.86C17.2801 32.42 16.8801 32.58 16.4001 32.58H13.0401Z" fill="#FF8049"/>
<path id="Vector_5" d="M32.92 25.42C32.9226 25.0444 32.9992 24.6731 33.1453 24.3271C33.2915 23.9811 33.5044 23.6673 33.7718 23.4035C34.0392 23.1398 34.356 22.9314 34.704 22.7901C35.052 22.6488 35.4244 22.5774 35.8 22.58C36.3656 22.584 36.9174 22.7556 37.3855 23.0732C37.8536 23.3907 38.217 23.8399 38.4298 24.364C38.6426 24.8881 38.6952 25.4635 38.581 26.0175C38.4668 26.5715 38.1908 27.0792 37.7881 27.4764C37.3853 27.8735 36.8738 28.1424 36.3183 28.2488C35.7627 28.3553 35.1881 28.2947 34.667 28.0745C34.146 27.8544 33.7019 27.4848 33.3909 27.0123C33.0799 26.5398 32.916 25.9857 32.92 25.42ZM37.2 25.42C37.1958 25.1336 37.1062 24.855 36.9428 24.6197C36.7794 24.3844 36.5495 24.2033 36.2825 24.0994C36.0156 23.9955 35.7237 23.9735 35.4443 24.0363C35.1648 24.0992 34.9104 24.2439 34.7136 24.4521C34.5169 24.6603 34.3867 24.9224 34.3397 25.205C34.2927 25.4875 34.331 25.7777 34.4498 26.0384C34.5686 26.299 34.7624 26.5184 35.0065 26.6683C35.2505 26.8182 35.5338 26.8919 35.82 26.88C36.1967 26.8594 36.5507 26.6938 36.808 26.4179C37.0652 26.142 37.2057 25.7772 37.2 25.4V25.42Z" fill="#FF8049"/>
</g>
</svg>
