<svg width="25" height="24" viewBox="0 0 25 24" fill="none" xmlns="http://www.w3.org/2000/svg">
<g id="next arrow">
<path id="Vector" d="M14 17.425C13.85 17.275 13.775 17.0958 13.775 16.8875C13.775 16.6792 13.8417 16.5083 13.975 16.375L17.65 12.7H5.25C5.03333 12.7 4.85417 12.6292 4.7125 12.4875C4.57083 12.3458 4.5 12.1667 4.5 11.95C4.5 11.7333 4.57083 11.5542 4.7125 11.4125C4.85417 11.2708 5.03333 11.2 5.25 11.2H17.65L13.95 7.5C13.8 7.35 13.7292 7.175 13.7375 6.975C13.7458 6.775 13.825 6.6 13.975 6.45C14.125 6.31667 14.3042 6.25 14.5125 6.25C14.7208 6.25 14.8917 6.31667 15.025 6.45L20 11.425C20.0833 11.5083 20.1417 11.5917 20.175 11.675C20.2083 11.7583 20.225 11.85 20.225 11.95C20.225 12.05 20.2083 12.1417 20.175 12.225C20.1417 12.3083 20.0833 12.3917 20 12.475L15.05 17.425C14.9 17.575 14.725 17.65 14.525 17.65C14.325 17.65 14.15 17.575 14 17.425Z" fill="#FF8049"/>
</g>
</svg>
