<svg width="24" height="25" viewBox="0 0 24 25" fill="none" xmlns="http://www.w3.org/2000/svg">
<g id="next arrow">
<path id="Vector" d="M13.5 17.675C13.35 17.525 13.275 17.3458 13.275 17.1375C13.275 16.9292 13.3417 16.7583 13.475 16.625L17.15 12.95H4.75C4.53333 12.95 4.35417 12.8792 4.2125 12.7375C4.07083 12.5958 4 12.4167 4 12.2C4 11.9833 4.07083 11.8042 4.2125 11.6625C4.35417 11.5208 4.53333 11.45 4.75 11.45H17.15L13.45 7.75C13.3 7.6 13.2292 7.425 13.2375 7.225C13.2458 7.025 13.325 6.85 13.475 6.7C13.625 6.56667 13.8042 6.5 14.0125 6.5C14.2208 6.5 14.3917 6.56667 14.525 6.7L19.5 11.675C19.5833 11.7583 19.6417 11.8417 19.675 11.925C19.7083 12.0083 19.725 12.1 19.725 12.2C19.725 12.3 19.7083 12.3917 19.675 12.475C19.6417 12.5583 19.5833 12.6417 19.5 12.725L14.55 17.675C14.4 17.825 14.225 17.9 14.025 17.9C13.825 17.9 13.65 17.825 13.5 17.675Z" fill="white"/>
</g>
</svg>
