<svg width="133" height="21" viewBox="0 0 133 21" fill="none" xmlns="http://www.w3.org/2000/svg">
<rect width="133" height="21" fill="#F5F5F5"/>
<g id="container">
<g id="Testiimonials Section">
<g id="Group 15">
<g id="Frame 16">
<g id="Testiimonial 1">
<rect x="-153" y="-74" width="390" height="294" rx="18" fill="#F9F8F8"/>
<path id="BG" d="M-113 -62C-113 -68.6274 -107.627 -74 -101 -74H265C271.627 -74 277 -68.6274 277 -62V208C277 214.627 271.627 220 265 220H-101C-107.627 220 -113 214.627 -113 208V-62Z" fill="#F9F8F8"/>
<g id="Testiimonial 1 Box">
<g id="Name">
<g id="Stars">
<path id="Star 6" d="M10.2476 0.296143L13.0812 7.52586L20.4362 8.15159L14.8325 13.2455L16.5445 20.862L10.2476 16.7805L3.95076 20.862L5.66278 13.2455L0.059082 8.15159L7.41403 7.52586L10.2476 0.296143Z" fill="#F24C27"/>
<path id="Star 11" d="M37.8448 0.296143L40.6784 7.52586L48.0333 8.15159L42.4296 13.2455L44.1417 20.862L37.8448 16.7805L31.5479 20.862L33.2599 13.2455L27.6562 8.15159L35.0112 7.52586L37.8448 0.296143Z" fill="#F24C27"/>
<path id="Star 12" d="M65.9659 0.296143L68.7995 7.52586L76.1544 8.15159L70.5507 13.2455L72.2627 20.862L65.9659 16.7805L59.669 20.862L61.381 13.2455L55.7773 8.15159L63.1323 7.52586L65.9659 0.296143Z" fill="#F24C27"/>
<path id="Star 13" d="M94.087 0.296143L96.9206 7.52586L104.276 8.15159L98.6718 13.2455L100.384 20.862L94.087 16.7805L87.7901 20.862L89.5021 13.2455L83.8984 8.15159L91.2534 7.52586L94.087 0.296143Z" fill="#F24C27"/>
<path id="Star 14" d="M122.209 0.296143L125.042 7.52586L132.397 8.15159L126.793 13.2455L128.505 20.862L122.209 16.7805L115.912 20.862L117.624 13.2455L112.02 8.15159L119.375 7.52586L122.209 0.296143Z" fill="#F24C27"/>
</g>
</g>
</g>
</g>
</g>
</g>
</g>
</g>
</svg>
