<svg width="223" height="95" viewBox="0 0 223 95" fill="none" xmlns="http://www.w3.org/2000/svg">
<g id="logo-6">
<path id="Vector" d="M73.5918 37.0291H77.3987V55.5076H73.5918V37.0291Z" fill="#1E1B1B"/>
<path id="Vector_2" d="M79.5309 49.1774C79.5309 47.848 79.9226 46.5484 80.6563 45.4436C81.3901 44.3387 82.4328 43.4782 83.6524 42.9712C84.8719 42.4642 86.2134 42.3335 87.5068 42.5957C88.8001 42.8579 89.9871 43.5011 90.9173 44.4439C91.8475 45.3866 92.479 46.5865 92.7317 47.8913C92.9845 49.1962 92.8471 50.5473 92.337 51.7733C91.8269 52.9994 90.9671 54.0453 89.8665 54.7783C88.7659 55.5114 87.4742 55.8987 86.1549 55.8911C85.2799 55.898 84.4124 55.7288 83.6031 55.3933C82.7939 55.0579 82.0592 54.563 81.4422 53.9377C80.8253 53.3124 80.3384 52.5692 80.0102 51.7518C79.682 50.9344 79.519 50.0592 79.5309 49.1774ZM89.0736 49.1774C89.0586 48.6043 88.8763 48.0483 88.5494 47.579C88.2225 47.1097 87.7656 46.748 87.2358 46.539C86.706 46.3301 86.1268 46.2832 85.5706 46.4042C85.0145 46.5252 84.5061 46.8088 84.1091 47.2194C83.712 47.6301 83.4439 48.1496 83.3383 48.713C83.2327 49.2764 83.2943 49.8586 83.5153 50.3869C83.7364 50.9152 84.1071 51.3662 84.5811 51.6833C85.0551 52.0004 85.6114 52.1696 86.1803 52.1698C86.5677 52.1774 86.9524 52.1044 87.3105 51.9554C87.6687 51.8064 87.9924 51.5845 88.2616 51.3036C88.5307 51.0228 88.7395 50.689 88.8748 50.3232C89.0102 49.9573 89.0692 49.5673 89.0482 49.1774H89.0736Z" fill="#1E1B1B"/>
<path id="Vector_3" d="M107.842 42.8477V54.8811C107.842 59.1267 104.542 60.9298 101.205 60.9298C100.028 61.0272 98.847 60.7915 97.7955 60.2492C96.7441 59.707 95.8637 58.8798 95.2534 57.8607L98.4639 55.9936C98.7241 56.5222 99.1379 56.9584 99.6503 57.244C100.163 57.5295 100.749 57.651 101.332 57.5921C101.703 57.6382 102.08 57.6011 102.435 57.4834C102.79 57.3657 103.115 57.1703 103.387 56.9113C103.658 56.6523 103.87 56.336 104.006 55.985C104.142 55.634 104.2 55.2571 104.174 54.8811V53.7174C103.731 54.2587 103.169 54.6884 102.533 54.9726C101.896 55.2567 101.202 55.3874 100.507 55.3543C98.8242 55.3543 97.2104 54.6806 96.0205 53.4815C94.8306 52.2824 94.1621 50.6561 94.1621 48.9603C94.1621 47.2645 94.8306 45.6382 96.0205 44.4391C97.2104 43.24 98.8242 42.5663 100.507 42.5663C101.202 42.5332 101.896 42.6639 102.533 42.948C103.169 43.2321 103.731 43.6619 104.174 44.2032V42.9244L107.842 42.8477ZM104.174 48.9219C104.2 48.3101 104.043 47.7046 103.724 47.1834C103.405 46.6621 102.939 46.2489 102.385 45.9969C101.831 45.7449 101.215 45.6656 100.616 45.7692C100.017 45.8727 99.4629 46.1545 99.0242 46.5782C98.5855 47.0019 98.2826 47.5481 98.1544 48.1467C98.0262 48.7453 98.0787 49.3688 98.305 49.9371C98.5313 50.5054 98.9211 50.9925 99.4243 51.3357C99.9275 51.6789 100.521 51.8626 101.129 51.8631C101.525 51.8919 101.923 51.8366 102.297 51.7007C102.671 51.5648 103.013 51.3514 103.3 51.0742C103.587 50.797 103.813 50.4622 103.964 50.0915C104.114 49.7208 104.186 49.3223 104.174 48.9219Z" fill="#1E1B1B"/>
<path id="Vector_4" d="M109.986 49.1775C109.986 47.8491 110.377 46.5506 111.109 45.4463C111.842 44.342 112.883 43.4815 114.101 42.9737C115.319 42.4659 116.66 42.3337 117.952 42.5938C119.245 42.8539 120.432 43.4946 121.363 44.4348C122.294 45.375 122.928 46.5724 123.184 47.8756C123.439 49.1788 123.305 50.5291 122.799 51.7556C122.293 52.9822 121.437 54.0298 120.34 54.766C119.243 55.5021 117.953 55.8937 116.635 55.8912C115.759 55.8998 114.889 55.7319 114.078 55.3974C113.266 55.0628 112.529 54.5684 111.91 53.9431C111.291 53.3178 110.801 52.5742 110.471 51.7559C110.141 50.9375 109.976 50.0609 109.986 49.1775ZM119.528 49.1775C119.513 48.6038 119.331 48.0474 119.003 47.5778C118.676 47.1083 118.218 46.7466 117.688 46.538C117.157 46.3294 116.577 46.2833 116.021 46.4053C115.464 46.5274 114.956 46.8122 114.56 47.2241C114.163 47.6361 113.896 48.1567 113.792 48.721C113.688 49.2852 113.751 49.8678 113.974 50.3959C114.197 50.924 114.57 51.374 115.045 51.6896C115.521 52.0051 116.078 52.1722 116.648 52.1699C117.035 52.1775 117.42 52.1045 117.778 51.9555C118.136 51.8065 118.46 51.5846 118.729 51.3037C118.998 51.0229 119.207 50.6891 119.342 50.3233C119.478 49.9574 119.537 49.5674 119.516 49.1775H119.528Z" fill="#1E1B1B"/>
<path id="Vector_5" d="M125.049 39.4586C125.049 39.0084 125.181 38.5683 125.429 38.194C125.678 37.8197 126.03 37.5279 126.443 37.3556C126.856 37.1834 127.31 37.1383 127.748 37.2261C128.186 37.3139 128.589 37.5307 128.905 37.8491C129.221 38.1674 129.436 38.573 129.523 39.0146C129.61 39.4561 129.565 39.9138 129.394 40.3297C129.223 40.7456 128.934 41.1011 128.562 41.3513C128.191 41.6014 127.754 41.7349 127.308 41.7349C126.711 41.7282 126.14 41.4863 125.718 41.0608C125.296 40.6354 125.055 40.0603 125.049 39.4586ZM125.417 42.8474H129.224V55.5075H125.417V42.8474Z" fill="#1E1B1B"/>
<path id="Vector_6" d="M145.517 49.1777C145.56 50.0196 145.437 50.8618 145.156 51.6557C144.874 52.4495 144.439 53.1795 143.877 53.8035C143.314 54.4274 142.635 54.9331 141.878 55.2915C141.12 55.6498 140.3 55.8536 139.464 55.8913C138.755 55.9389 138.045 55.8244 137.385 55.5565C136.726 55.2886 136.136 54.8741 135.658 54.344V60.5973H131.851V42.8476H135.658V44.0369C136.136 43.5084 136.727 43.0958 137.386 42.8301C138.046 42.5643 138.756 42.4523 139.464 42.5024C140.297 42.5401 141.114 42.7428 141.868 43.0987C142.623 43.4546 143.301 43.9568 143.863 44.5767C144.425 45.1965 144.86 45.9219 145.144 46.7113C145.428 47.5008 145.555 48.3388 145.517 49.1777ZM141.711 49.1777C141.696 48.5837 141.507 48.0075 141.168 47.5211C140.83 47.0347 140.356 46.6599 139.807 46.4436C139.258 46.2273 138.658 46.1791 138.082 46.3051C137.505 46.4311 136.979 46.7257 136.568 47.1519C136.158 47.5782 135.881 48.1171 135.773 48.7012C135.665 49.2852 135.73 49.8884 135.961 50.4352C136.191 50.982 136.577 51.448 137.069 51.7748C137.562 52.1016 138.139 52.2747 138.728 52.2723C139.132 52.2896 139.535 52.2207 139.911 52.07C140.286 51.9194 140.626 51.6905 140.907 51.3982C141.189 51.106 141.406 50.7572 141.545 50.3745C141.683 49.9918 141.74 49.5839 141.711 49.1777Z" fill="#1E1B1B"/>
<path id="Vector_7" d="M157.103 51.7097C157.103 54.6253 154.565 55.8658 151.875 55.8658C150.778 55.9653 149.676 55.7309 148.713 55.1929C147.749 54.6549 146.967 53.838 146.469 52.8478L149.743 50.9808C149.873 51.4371 150.154 51.8347 150.54 52.107C150.926 52.3794 151.393 52.51 151.862 52.477C152.763 52.477 153.22 52.1956 153.22 51.6841C153.22 50.2902 147.04 51.0319 147.04 46.6457C147.04 43.8835 149.35 42.5024 151.964 42.5024C152.958 42.4575 153.945 42.6847 154.821 43.1598C155.696 43.6349 156.428 44.3401 156.938 45.2006L153.664 46.9398C153.52 46.6099 153.283 46.3293 152.984 46.1318C152.684 45.9344 152.334 45.8286 151.977 45.8272C151.317 45.8272 150.923 46.083 150.923 46.5306C150.923 47.9884 157.103 47.0293 157.103 51.7097Z" fill="#1E1B1B"/>
<path id="Vector_8" d="M170.897 42.8477V55.5077H167.09V54.3184C166.658 54.8449 166.108 55.2615 165.487 55.5347C164.865 55.8079 164.189 55.9301 163.512 55.8913C160.974 55.8913 158.804 54.0627 158.804 50.6483V42.8477H162.611V50.0728C162.581 50.3749 162.616 50.6799 162.715 50.9668C162.813 51.2537 162.972 51.5156 163.181 51.7345C163.39 51.9533 163.643 52.1239 163.924 52.2345C164.204 52.345 164.505 52.3928 164.806 52.3747C166.176 52.3747 167.141 51.5562 167.141 49.8171V42.8477H170.897Z" fill="#1E1B1B"/>
<path id="Vector_9" d="M192.469 47.7325V55.5076H188.662V48.065C188.662 46.7862 188.066 45.9934 186.86 45.9934C185.655 45.9934 184.893 46.8757 184.893 48.3719V55.5076H181.087V48.065C181.087 46.7862 180.49 45.9934 179.285 45.9934C178.079 45.9934 177.318 46.8757 177.318 48.3719V55.5076H173.511V42.8475H177.318V44.0112C177.712 43.4971 178.227 43.09 178.816 42.8265C179.405 42.5631 180.05 42.4517 180.693 42.5023C181.337 42.4684 181.978 42.6039 182.555 42.8953C183.131 43.1868 183.622 43.6242 183.98 44.1647C184.398 43.6 184.951 43.1514 185.588 42.8607C186.225 42.57 186.925 42.4466 187.622 42.5023C190.591 42.5023 192.469 44.5739 192.469 47.7325Z" fill="#1E1B1B"/>
<path id="Vector_10" d="M50.9154 33.7042V28.2693H33.9111V65.6101H50.9154V60.1752C47.4321 60.1752 44.0914 58.7807 41.6283 56.2986C39.1653 53.8165 37.7815 50.4499 37.7815 46.9397C37.7815 43.4294 39.1653 40.0629 41.6283 37.5808C44.0914 35.0986 47.4321 33.7042 50.9154 33.7042Z" fill="#1E1B1B"/>
<path id="Vector_11" d="M50.915 33.7041V60.1751C54.3984 60.1751 57.739 58.7807 60.2021 56.2985C62.6652 53.8164 64.0489 50.4499 64.0489 46.9396C64.0489 43.4293 62.6652 40.0628 60.2021 37.5807C57.739 35.0986 54.3984 33.7041 50.915 33.7041Z" fill="#1E1B1B"/>
<path id="Vector_12" d="M195.667 42.7707C197.209 42.7707 198.459 41.5112 198.459 39.9574C198.459 38.4036 197.209 37.144 195.667 37.144C194.125 37.144 192.875 38.4036 192.875 39.9574C192.875 41.5112 194.125 42.7707 195.667 42.7707Z" fill="#1E1B1B"/>
</g>
</svg>
