<svg width="222" height="95" viewBox="0 0 222 95" fill="none" xmlns="http://www.w3.org/2000/svg">
<g id="logo-8 1">
<path id="Vector" d="M52.2796 45.4792C51.8013 45.9622 51.4349 46.5451 51.2067 47.1864C50.9785 47.8277 50.8941 48.5117 50.9593 49.1895L50.9366 49.1667C51.0037 49.9645 50.8965 50.7675 50.6225 51.5194C50.3485 52.2714 49.9143 52.9543 49.3501 53.5205C48.786 54.0867 48.1055 54.5225 47.3562 54.7975C46.6069 55.0725 45.8068 55.18 45.0118 55.1127L45.0345 55.1355C44.0836 55.0467 43.1284 55.2544 42.2994 55.7303C41.4703 56.2061 40.8077 56.9271 40.4019 57.7947C39.996 58.6624 39.8667 59.6346 40.0316 60.5787C40.1965 61.5228 40.6475 62.3929 41.3231 63.0704C41.9988 63.7479 42.8662 64.1997 43.8071 64.3643C44.748 64.5289 45.7166 64.3983 46.5808 63.9902C47.445 63.5821 48.1627 62.9165 48.6362 62.084C49.1096 61.2515 49.3157 60.2928 49.2263 59.3385L49.2503 59.3613C49.1832 58.5635 49.2904 57.7605 49.5644 57.0085C49.8384 56.2566 50.2727 55.5736 50.8368 55.0075C51.401 54.4413 52.0814 54.0055 52.8307 53.7305C53.58 53.4555 54.3801 53.3479 55.1751 53.4153L55.1511 53.3925C55.9279 53.4626 56.7098 53.3348 57.4243 53.0209C58.1388 52.707 58.7628 52.2171 59.2384 51.5968C59.714 50.9764 60.0259 50.2456 60.1452 49.472C60.2645 48.6985 60.1872 47.9072 59.9206 47.1716C59.6541 46.436 59.2068 45.7798 58.6202 45.2639C58.0336 44.748 57.3268 44.389 56.5652 44.2202C55.8036 44.0514 55.0118 44.0783 54.2633 44.2984C53.5148 44.5185 52.8338 44.9247 52.2834 45.4792H52.2796Z" fill="#1E1B1B"/>
<path id="Vector_2" d="M42.9681 52.1486L42.9441 52.1258C43.6198 52.1941 44.3022 52.1109 44.9419 51.8822C45.5816 51.6534 46.1627 51.2848 46.6431 50.8031C47.1235 50.3213 47.4912 49.7384 47.7196 49.0966C47.948 48.4548 48.0315 47.77 47.9639 47.0918L47.9879 47.1146C47.9208 46.3168 48.028 45.5138 48.302 44.7619C48.576 44.0099 49.0102 43.327 49.5744 42.7608C50.1385 42.1946 50.819 41.7588 51.5683 41.4838C52.3176 41.2088 53.1177 41.1013 53.9127 41.1686L53.8887 41.1458C54.8397 41.2354 55.7952 41.0285 56.6247 40.5531C57.4542 40.0777 58.1174 39.3572 58.5239 38.4896C58.9303 37.6221 59.0602 36.6498 58.8959 35.7055C58.7315 34.7611 58.2808 33.8906 57.6054 33.2127C56.9299 32.5349 56.0626 32.0826 55.1216 31.9176C54.1806 31.7527 53.2118 31.883 52.3474 32.291C51.4829 32.6989 50.7649 33.3645 50.2913 34.197C49.8176 35.0295 49.6114 35.9883 49.7007 36.9428L49.678 36.9187C49.7453 37.7166 49.6383 38.5197 49.3643 39.2717C49.0904 40.0238 48.6561 40.7068 48.0919 41.2731C47.5278 41.8393 46.8472 42.2751 46.0978 42.55C45.3484 42.8249 44.5482 42.9323 43.7532 42.8648L43.7759 42.8888C43.1002 42.8205 42.4178 42.9037 41.7781 43.1325C41.1384 43.3613 40.5573 43.7298 40.0769 44.2116C39.5966 44.6933 39.2288 45.2762 39.0004 45.918C38.772 46.5599 38.6885 47.2446 38.7561 47.9228L38.7334 47.9C38.8003 48.6978 38.6929 49.5006 38.4188 50.2525C38.1447 51.0044 37.7105 51.6872 37.1464 52.2534C36.5823 52.8195 35.9019 53.2553 35.1527 53.5304C34.4035 53.8054 33.6036 53.9132 32.8086 53.846L32.8313 53.8688C31.8803 53.7792 30.9248 53.9862 30.0953 54.4615C29.2658 54.9369 28.6026 55.6575 28.1961 56.525C27.7897 57.3926 27.6598 58.3648 27.8241 59.3092C27.9885 60.2535 28.4392 61.124 29.1146 61.8019C29.7901 62.4798 30.6574 62.932 31.5984 63.097C32.5394 63.262 33.5082 63.1316 34.3726 62.7237C35.2371 62.3158 35.9551 61.6502 36.4287 60.8177C36.9024 59.9852 37.1086 59.0263 37.0193 58.0719L37.0433 58.0947C36.9762 57.2968 37.0834 56.4939 37.3574 55.7419C37.6314 54.9899 38.0657 54.307 38.6298 53.7408C39.194 53.1746 39.8744 52.7389 40.6237 52.4639C41.373 52.1889 42.1731 52.0813 42.9681 52.1486Z" fill="#1E1B1B"/>
<path id="Vector_3" d="M34.5086 49.6063C34.987 49.1234 35.3533 48.5405 35.5813 47.8991C35.8093 47.2578 35.8934 46.5738 35.8276 45.896L35.8516 45.9188C35.7844 45.1208 35.8917 44.3176 36.1658 43.5654C36.44 42.8132 36.8745 42.1302 37.4389 41.564C38.0033 40.9977 38.6841 40.562 39.4337 40.2872C40.1834 40.0124 40.9837 39.9051 41.7789 39.9728L41.7549 39.95C42.7056 40.0394 43.6607 39.8323 44.4898 39.357C45.319 38.8817 45.9819 38.1612 46.3881 37.294C46.7943 36.4267 46.924 35.4548 46.7597 34.5108C46.5953 33.5668 46.1448 32.6966 45.4696 32.019C44.7944 31.3414 43.9274 30.8893 42.9867 30.7243C42.0461 30.5594 41.0777 30.6896 40.2135 31.0973C39.3493 31.5049 38.6315 32.1702 38.1578 33.0023C37.6842 33.8344 37.4779 34.7929 37.5669 35.747L37.5442 35.7242C37.6113 36.522 37.5041 37.325 37.2301 38.077C36.9561 38.829 36.5219 39.5119 35.9577 40.078C35.3936 40.6442 34.7131 41.08 33.9638 41.355C33.2145 41.63 32.4144 41.7376 31.6194 41.6702L31.6421 41.693C30.8654 41.6231 30.0835 41.7511 29.3692 42.0652C28.6548 42.3792 28.0309 42.8691 27.5554 43.4896C27.08 44.11 26.7682 44.8408 26.6491 45.6144C26.53 46.3879 26.6073 47.1791 26.874 47.9146C27.1407 48.6501 27.588 49.3062 28.1746 49.8221C28.7612 50.3379 29.468 50.6968 30.2296 50.8655C30.9912 51.0342 31.7829 51.0072 32.5313 50.7871C33.2798 50.567 33.9607 50.1608 34.5111 49.6063H34.5086Z" fill="#1E1B1B"/>
<path id="Vector_4" d="M73.6079 36.9719H77.3566V55.28H73.6079V36.9719Z" fill="#1E1B1B"/>
<path id="Vector_5" d="M79.4797 49.0108C79.4744 47.6951 79.8584 46.4075 80.5829 45.3109C81.3074 44.2144 82.3399 43.3584 83.5496 42.8513C84.7593 42.3441 86.0917 42.2087 87.3782 42.4621C88.6646 42.7156 89.8472 43.3465 90.776 44.275C91.7049 45.2034 92.3383 46.3877 92.596 47.6777C92.8537 48.9677 92.7241 50.3055 92.2236 51.5215C91.7231 52.7376 90.8743 53.7772 89.7846 54.5087C88.6949 55.2402 87.4134 55.6307 86.1025 55.6307C85.2322 55.6407 84.3687 55.4764 83.5625 55.1476C82.7562 54.8188 82.0234 54.332 81.4067 53.7156C80.7901 53.0993 80.3021 52.3657 79.9712 51.5579C79.6403 50.7501 79.4732 49.8842 79.4797 49.0108ZM88.9765 49.0108C88.9609 48.4437 88.779 47.8938 88.4536 47.4298C88.1283 46.9659 87.6739 46.6085 87.1473 46.4023C86.6206 46.1961 86.0451 46.1503 85.4926 46.2706C84.9402 46.3909 84.4353 46.6719 84.0412 47.0786C83.647 47.4853 83.3811 47.9996 83.2765 48.5571C83.172 49.1147 83.2336 49.6908 83.4536 50.2134C83.6735 50.736 84.0421 51.182 84.5133 51.4955C84.9844 51.809 85.5372 51.9762 86.1025 51.9762C86.4896 51.9866 86.8747 51.9163 87.2334 51.7699C87.5922 51.6235 87.9168 51.404 88.1868 51.1254C88.4569 50.8468 88.6664 50.5151 88.8024 50.1511C88.9383 49.7872 88.9976 49.3989 88.9765 49.0108Z" fill="#1E1B1B"/>
<path id="Vector_6" d="M107.666 42.7406V54.6479C107.666 58.861 104.392 60.642 101.068 60.642C99.8981 60.7299 98.7265 60.4927 97.6818 59.9565C96.6372 59.4202 95.7598 58.6055 95.146 57.6019L98.3444 55.7461C98.6024 56.2693 99.0135 56.7009 99.5226 56.9832C100.032 57.2655 100.615 57.385 101.193 57.3257C101.563 57.3772 101.94 57.3445 102.295 57.2301C102.651 57.1157 102.976 56.9226 103.247 56.665C103.518 56.4074 103.728 56.0919 103.861 55.7419C103.995 55.3918 104.048 55.0162 104.017 54.6428V53.4964C103.578 54.0355 103.019 54.4637 102.385 54.7468C101.752 55.03 101.061 55.1601 100.368 55.1267C98.7191 55.0745 97.1553 54.3806 96.0075 53.1917C94.8596 52.0028 94.2178 50.4124 94.2178 48.757C94.2178 47.1015 94.8596 45.5111 96.0075 44.3222C97.1553 43.1333 98.7191 42.4394 100.368 42.3872C101.061 42.3538 101.752 42.4839 102.385 42.7671C103.019 43.0502 103.578 43.4784 104.017 44.0175V42.7381L107.666 42.7406ZM104.018 48.7589C104.043 48.1525 103.887 47.5525 103.57 47.0361C103.252 46.5196 102.788 46.1103 102.237 45.8608C101.686 45.6113 101.073 45.5331 100.477 45.6362C99.8808 45.7394 99.3293 46.0191 98.8931 46.4394C98.457 46.8597 98.1562 47.4015 98.0294 47.9948C97.9027 48.5882 97.9557 49.206 98.1818 49.7688C98.4079 50.3317 98.7966 50.8137 99.298 51.153C99.7994 51.4922 100.39 51.6731 100.995 51.6723C101.389 51.6999 101.784 51.6444 102.155 51.5094C102.527 51.3743 102.866 51.1628 103.15 50.8883C103.435 50.6139 103.659 50.2826 103.809 49.9158C103.958 49.549 104.03 49.1549 104.018 48.7589Z" fill="#1E1B1B"/>
<path id="Vector_7" d="M109.789 49.0108C109.784 47.6951 110.167 46.4075 110.892 45.3109C111.617 44.2144 112.649 43.3584 113.859 42.8513C115.068 42.3441 116.401 42.2087 117.687 42.4621C118.974 42.7156 120.156 43.3465 121.085 44.275C122.014 45.2034 122.647 46.3877 122.905 47.6777C123.163 48.9677 123.033 50.3055 122.533 51.5215C122.032 52.7376 121.183 53.7772 120.094 54.5087C119.004 55.2402 117.723 55.6307 116.412 55.6307C115.541 55.6407 114.678 55.4764 113.872 55.1476C113.065 54.8188 112.332 54.332 111.716 53.7156C111.099 53.0993 110.611 52.3657 110.28 51.5579C109.949 50.7501 109.782 49.8842 109.789 49.0108ZM119.286 49.0108C119.27 48.4437 119.088 47.8938 118.763 47.4298C118.437 46.9659 117.983 46.6085 117.456 46.4023C116.93 46.1961 116.354 46.1503 115.802 46.2706C115.249 46.3909 114.744 46.6719 114.35 47.0786C113.956 47.4853 113.69 47.9996 113.586 48.5571C113.481 49.1147 113.543 49.6908 113.763 50.2134C113.983 50.736 114.351 51.182 114.822 51.4955C115.293 51.809 115.846 51.9762 116.412 51.9762C116.799 51.9866 117.184 51.9163 117.543 51.7699C117.901 51.6235 118.226 51.404 118.496 51.1254C118.766 50.8468 118.976 50.5151 119.111 50.1511C119.247 49.7872 119.307 49.3989 119.286 49.0108Z" fill="#1E1B1B"/>
<path id="Vector_8" d="M124.783 39.3799C124.783 38.9334 124.915 38.497 125.162 38.1258C125.409 37.7546 125.76 37.4652 126.171 37.2944C126.582 37.1235 127.034 37.0788 127.471 37.1659C127.907 37.253 128.308 37.468 128.622 37.7837C128.937 38.0994 129.151 38.5016 129.238 38.9395C129.325 39.3774 129.28 39.8312 129.11 40.2437C128.94 40.6562 128.651 41.0087 128.282 41.2568C127.912 41.5048 127.477 41.6372 127.032 41.6372C126.437 41.6312 125.869 41.3915 125.448 40.9695C125.028 40.5474 124.789 39.9767 124.783 39.3799ZM125.161 42.7405H128.911V55.2811H125.156L125.161 42.7405Z" fill="#1E1B1B"/>
<path id="Vector_9" d="M145.098 49.0108C145.141 49.8396 145.021 50.6688 144.744 51.4507C144.467 52.2327 144.038 52.9519 143.483 53.5671C142.928 54.1824 142.257 54.6814 141.51 55.0355C140.762 55.3897 139.951 55.5919 139.125 55.6307C138.431 55.6687 137.736 55.5511 137.092 55.2865C136.449 55.0218 135.871 54.6167 135.403 54.1005V60.2961H131.654V42.7404H135.403V43.9185C135.872 43.4027 136.449 42.9979 137.093 42.7334C137.736 42.469 138.431 42.3515 139.125 42.3896C139.951 42.4281 140.762 42.6303 141.51 42.9845C142.258 43.3387 142.929 43.8378 143.484 44.4532C144.039 45.0686 144.468 45.788 144.745 46.5702C145.022 47.3524 145.142 48.1818 145.098 49.0108ZM141.349 49.0108C141.335 48.4238 141.148 47.8543 140.812 47.3734C140.477 46.8925 140.007 46.5217 139.463 46.3073C138.918 46.0928 138.322 46.0444 137.751 46.1679C137.179 46.2915 136.656 46.5816 136.247 47.0019C135.839 47.4222 135.563 47.9541 135.454 48.531C135.346 49.1079 135.409 49.7041 135.636 50.245C135.864 50.786 136.245 51.2477 136.732 51.5723C137.22 51.8969 137.792 52.07 138.377 52.0699C138.778 52.0878 139.179 52.0204 139.553 51.872C139.927 51.7235 140.265 51.4975 140.546 51.2086C140.827 50.9198 141.043 50.5746 141.182 50.1959C141.32 49.8171 141.377 49.4132 141.349 49.0108Z" fill="#1E1B1B"/>
<path id="Vector_10" d="M156.666 51.5178C156.666 54.4021 154.168 55.6308 151.469 55.6308C150.379 55.7299 149.284 55.4985 148.326 54.9665C147.368 54.4344 146.592 53.6263 146.096 52.6464L149.344 50.7907C149.475 51.2436 149.757 51.6376 150.143 51.9068C150.529 52.1761 150.996 52.3044 151.464 52.2702C152.363 52.2702 152.814 51.994 152.814 51.4937C152.814 50.113 146.665 50.8413 146.665 46.5028C146.665 43.7679 148.965 42.3897 151.564 42.3897C152.541 42.3587 153.508 42.5912 154.365 43.0631C155.222 43.535 155.937 44.229 156.436 45.0726L153.238 46.803C153.097 46.4745 152.864 46.1947 152.566 45.9985C152.269 45.8023 151.92 45.6984 151.564 45.6997C150.914 45.6997 150.514 45.953 150.514 46.4014C150.519 47.8316 156.666 46.8777 156.666 51.5178Z" fill="#1E1B1B"/>
<path id="Vector_11" d="M170.36 42.7407V55.2814H166.611V54.102C166.178 54.6224 165.629 55.0324 165.008 55.2984C164.387 55.5644 163.712 55.6788 163.039 55.6322C160.514 55.6322 158.369 53.8271 158.369 50.4386V42.7407H162.117V49.8876C162.086 50.1863 162.12 50.4882 162.217 50.7724C162.313 51.0567 162.471 51.3163 162.677 51.5333C162.884 51.7503 163.136 51.9195 163.415 52.0291C163.693 52.1386 163.992 52.1859 164.291 52.1677C165.665 52.1677 166.615 51.3659 166.615 49.5849V42.7445L170.36 42.7407Z" fill="#1E1B1B"/>
<path id="Vector_12" d="M191.855 47.5808V55.28H188.106V47.9063C188.106 46.6523 187.507 45.8504 186.308 45.8504C185.058 45.8504 184.358 46.7283 184.358 48.2078V55.28H180.61V47.9063C180.61 46.6523 180.011 45.8504 178.81 45.8504C177.561 45.8504 176.862 46.7283 176.862 48.2078V55.28H173.113V42.7393H176.862V43.892C177.25 43.3807 177.76 42.9751 178.345 42.7124C178.93 42.4498 179.571 42.3384 180.21 42.3884C180.852 42.357 181.49 42.4928 182.064 42.7827C182.637 43.0727 183.126 43.5068 183.483 44.0428C183.898 43.482 184.449 43.0362 185.082 42.7468C185.716 42.4575 186.413 42.3342 187.107 42.3884C189.976 42.3897 191.855 44.4456 191.855 47.5808Z" fill="#1E1B1B"/>
<path id="Vector_13" d="M195.026 42.6633C196.562 42.6633 197.807 41.4134 197.807 39.8715C197.807 38.3296 196.562 37.0796 195.026 37.0796C193.489 37.0796 192.244 38.3296 192.244 39.8715C192.244 41.4134 193.489 42.6633 195.026 42.6633Z" fill="#1E1B1B"/>
</g>
</svg>
