<svg width="223" height="95" viewBox="0 0 223 95" fill="none" xmlns="http://www.w3.org/2000/svg">
<g id="logo-1 1">
<path id="Vector" d="M91.0356 40.2717H95.1091V56.7392H91.0356V40.2717ZM96.7333 50.5449C96.7333 46.466 99.2713 44.0212 103.078 44.0212C106.885 44.0212 109.423 46.466 109.423 50.5449C109.423 54.6237 106.974 57.0938 103.078 57.0938C99.1825 57.0938 96.7333 54.7124 96.7333 50.5449ZM105.388 50.5449C105.388 48.3027 104.512 46.9853 103.116 46.9853C101.72 46.9853 100.858 48.2521 100.858 50.5449C100.858 52.8376 101.72 54.0917 103.116 54.0917C104.512 54.0917 105.413 52.8376 105.413 50.5575L105.388 50.5449ZM111.047 57.5879H114.981C115.16 58.0106 115.473 58.3633 115.872 58.592C116.27 58.8207 116.733 58.913 117.189 58.8546C118.75 58.8546 119.562 58.0186 119.562 56.7772V54.497H119.575C119.239 55.207 118.695 55.7988 118.016 56.1945C117.336 56.5902 116.553 56.7712 115.768 56.7138C112.786 56.7138 110.806 54.4464 110.806 50.5449C110.806 46.6433 112.697 44.2112 115.882 44.2112C116.687 44.1682 117.485 44.3754 118.167 44.8042C118.849 45.233 119.381 45.8622 119.689 46.6053H119.575V44.3125H123.61V56.6505C123.61 59.6273 120.971 61.4894 117.088 61.4894C113.56 61.4767 111.301 59.868 111.073 57.6005L111.047 57.5879ZM119.575 50.5449C119.575 48.5561 118.661 47.302 117.215 47.302C115.768 47.302 114.88 48.5688 114.88 50.5449C114.88 52.5209 115.755 53.6863 117.215 53.6863C118.674 53.6863 119.575 52.6096 119.575 50.5449ZM125.222 50.5449C125.222 46.466 127.76 44.0212 131.567 44.0212C135.374 44.0212 137.912 46.466 137.912 50.5449C137.912 54.6237 135.45 57.0938 131.567 57.0938C127.684 57.0938 125.247 54.7124 125.247 50.5449H125.222ZM133.876 50.5449C133.876 48.3027 132.988 46.9853 131.605 46.9853C130.222 46.9853 129.346 48.2521 129.346 50.5449C129.346 52.8376 130.209 54.0917 131.605 54.0917C133.001 54.0917 133.902 52.8376 133.902 50.5575L133.876 50.5449ZM139.561 41.3104C139.544 40.8962 139.65 40.4862 139.868 40.1331C140.086 39.78 140.404 39.5 140.783 39.3291C141.161 39.1581 141.582 39.1041 141.991 39.174C142.401 39.2439 142.78 39.4344 143.08 39.7211C143.38 40.0078 143.587 40.3775 143.675 40.7827C143.762 41.1879 143.727 41.6101 143.572 41.9949C143.418 42.3797 143.151 42.7095 142.807 42.9419C142.463 43.1744 142.058 43.2988 141.642 43.2992C141.377 43.3059 141.113 43.2599 140.865 43.164C140.618 43.068 140.392 42.9239 140.201 42.74C140.01 42.5562 139.857 42.3363 139.751 42.093C139.646 41.8498 139.59 41.5881 139.587 41.3231L139.561 41.3104ZM139.561 44.2999H143.685V56.7898H139.625L139.561 44.2999ZM158.52 50.5449C158.52 54.6111 156.692 56.9672 153.583 56.9672C152.788 57.0162 151.996 56.8202 151.315 56.4056C150.634 55.9911 150.097 55.3779 149.777 54.6491H149.7V60.8054H145.627V44.3379H149.675V46.5673H149.751C150.061 45.8241 150.592 45.1942 151.274 44.7635C151.955 44.3328 152.753 44.1223 153.558 44.1605C156.756 44.1352 158.596 46.4787 158.596 50.5575L158.52 50.5449ZM154.37 50.5449C154.37 48.5688 153.444 47.2894 152.01 47.2894C150.576 47.2894 149.675 48.5561 149.662 50.5449C149.65 52.5336 150.576 53.7877 152.01 53.7877C153.444 53.7877 154.446 52.6096 154.446 50.5575L154.37 50.5449ZM165.474 44.0085C168.887 44.0085 171.007 45.6173 171.032 48.2014H167.314C167.314 47.302 166.565 46.7447 165.448 46.7447C164.332 46.7447 163.799 47.1754 163.799 47.8214C163.799 48.4674 164.268 48.6701 165.207 48.8601L167.821 49.3921C170.359 49.9242 171.375 50.9375 171.375 52.825C171.375 55.3584 169.027 57.0812 165.537 57.0812C162.048 57.0812 159.776 55.4091 159.611 52.863H163.558C163.672 53.7877 164.408 54.3324 165.601 54.3324C166.794 54.3324 167.352 53.9524 167.352 53.281C167.352 52.6096 166.971 52.4956 165.994 52.2929L163.634 51.7989C161.185 51.2796 159.903 50.0002 159.903 48.0874C159.979 45.6046 162.111 44.0212 165.55 44.0212L165.474 44.0085ZM185.016 56.7772H181.069V54.4337H180.993C180.772 55.2154 180.291 55.8985 179.629 56.3706C178.967 56.8427 178.164 57.0754 177.351 57.0305C176.738 57.0504 176.127 56.9407 175.56 56.7084C174.992 56.4762 174.479 56.1267 174.056 55.6829C173.633 55.2391 173.309 54.7111 173.105 54.1334C172.901 53.5557 172.821 52.9414 172.872 52.3309V44.3125H176.945V51.4569C176.945 52.9263 177.719 53.7243 178.988 53.7243C179.286 53.7221 179.58 53.6561 179.85 53.5309C180.12 53.4056 180.36 53.224 180.553 52.9982C180.747 52.7725 180.89 52.5079 180.972 52.2224C181.055 51.9368 181.075 51.6369 181.031 51.3429V44.3125H185.092L185.016 56.7772ZM186.983 44.2999H190.942V46.7067H191.031C191.25 45.9357 191.718 45.2588 192.364 44.7821C193.009 44.3053 193.794 44.0555 194.597 44.0719C195.402 44.0019 196.205 44.2345 196.848 44.7241C197.491 45.2137 197.928 45.9252 198.074 46.7193H198.251C198.505 45.9209 199.016 45.2286 199.704 44.7498C200.393 44.271 201.22 44.0327 202.058 44.0719C202.615 44.0507 203.171 44.1472 203.688 44.3551C204.205 44.5629 204.672 44.8774 205.059 45.278C205.446 45.6786 205.744 46.1562 205.933 46.6796C206.122 47.2031 206.199 47.7605 206.157 48.3154V56.7898H202.058V49.3541C202.058 48.0874 201.462 47.378 200.307 47.378C200.051 47.3738 199.797 47.425 199.563 47.5279C199.328 47.6309 199.119 47.7833 198.949 47.9746C198.779 48.1659 198.652 48.3916 198.578 48.6363C198.504 48.881 198.483 49.1388 198.518 49.3921V56.7898H194.635V49.3161C194.635 48.0494 194.013 47.378 192.896 47.378C192.638 47.376 192.381 47.4292 192.145 47.5341C191.908 47.6391 191.697 47.7933 191.525 47.9865C191.353 48.1796 191.225 48.4073 191.148 48.6541C191.072 48.9009 191.049 49.1612 191.082 49.4175V56.7898H187.008L186.983 44.2999Z" fill="#1E1B1B"/>
<path id="Vector_2" d="M82.9777 41.3487C82.9778 38.8275 82.2151 36.365 80.7895 34.2839C79.3639 32.2027 77.3419 30.5999 74.9883 29.6853C72.6347 28.7707 70.0592 28.587 67.5993 29.1583C65.1393 29.7296 62.9096 31.0292 61.202 32.8869H45.3652V66.2526H78.8027V50.6591C80.1151 49.4874 81.1653 48.0525 81.8847 46.4482C82.604 44.844 82.9765 43.1063 82.9777 41.3487ZM76.544 41.3487C76.5465 42.5568 76.1899 43.7385 75.5193 44.7442C74.8488 45.7499 73.8944 46.5345 72.777 46.9986C71.6596 47.4626 70.4293 47.5853 69.242 47.3512C68.0547 47.117 66.9637 46.5365 66.107 45.6831C65.2503 44.8298 64.6665 43.7419 64.4295 42.5571C64.1925 41.3724 64.3129 40.1441 64.7754 39.0277C65.238 37.9113 66.0219 36.957 67.0281 36.2856C68.0342 35.6141 69.2172 35.2557 70.4275 35.2557C72.0475 35.2557 73.6013 35.8972 74.748 37.0395C75.8947 38.1818 76.5406 39.7315 76.544 41.3487ZM72.369 59.8302H51.7989V39.3092H58.0677C57.9466 39.9824 57.8829 40.6647 57.8773 41.3487C57.8807 44.6703 59.204 47.8548 61.5569 50.2036C63.9098 52.5523 67.1 53.8733 70.4275 53.8766C71.078 53.8732 71.7272 53.8181 72.369 53.7119V59.8302Z" fill="#1E1B1B"/>
</g>
</svg>
