<svg width="97" height="33" viewBox="0 0 97 33" fill="none" xmlns="http://www.w3.org/2000/svg">
<g id="Frame" clip-path="url(#clip0_402_1242)">
<path id="Vector" d="M92.2563 0.75H4.74368C2.39996 0.75 0.5 2.68611 0.5 5.07443V28.4256C0.5 30.8139 2.39996 32.75 4.74368 32.75H92.2563C94.6 32.75 96.5 30.8139 96.5 28.4256V5.07443C96.5 2.68611 94.6 0.75 92.2563 0.75Z" fill="#A7A9AC"/>
<path id="Vector_2" d="M17.0806 6.222H9.26139C8.81338 6.222 8.38373 6.40335 8.06694 6.72617C7.75015 7.04899 7.57217 7.48682 7.57217 7.94335V25.5968C7.57093 25.8237 7.61373 26.0485 7.69807 26.2585C7.78241 26.4684 7.90662 26.6593 8.0636 26.8202C8.22058 26.981 8.40723 27.1087 8.61278 27.1958C8.81834 27.2829 9.03876 27.3277 9.26139 27.3277H17.0806C17.304 27.329 17.5254 27.2851 17.7321 27.1986C17.9387 27.112 18.1265 26.9846 18.2844 26.8236C18.4424 26.6626 18.5675 26.4713 18.6524 26.2607C18.7373 26.0501 18.7804 25.8245 18.7792 25.5968V7.94335C18.7792 7.71649 18.7352 7.49187 18.6497 7.2824C18.5642 7.07293 18.439 6.88274 18.2811 6.72277C18.1233 6.56281 17.9359 6.43621 17.7299 6.35027C17.5239 6.26433 17.3032 6.22074 17.0806 6.222ZM13.171 26.0654C12.8723 26.0654 12.5859 25.9445 12.3747 25.7293C12.1635 25.5141 12.0449 25.2222 12.0449 24.9178C12.0449 24.6135 12.1635 24.3216 12.3747 24.1064C12.5859 23.8912 12.8723 23.7703 13.171 23.7703C13.4697 23.7703 13.7561 23.8912 13.9673 24.1064C14.1785 24.3216 14.2971 24.6135 14.2971 24.9178C14.2971 25.2222 14.1785 25.5141 13.9673 25.7293C13.7561 25.9445 13.4697 26.0654 13.171 26.0654ZM17.4447 23.1965H8.89728V10.1792H17.4447V23.1965Z" fill="white"/>
<path id="Vector_3" d="M25.1832 9.37781L24.7083 10.8448H24.0965L25.6505 6.17992H26.3638L27.9254 10.8448H27.2947L26.8049 9.37781H25.1832ZM26.6847 8.90731L26.2305 7.56848C26.1348 7.26437 26.0672 6.99469 25.9997 6.71736H25.979C25.9189 6.98704 25.8439 7.27776 25.7556 7.56083L25.3071 8.91113L26.6847 8.90731Z" fill="white"/>
<path id="Vector_4" d="M28.5372 7.48624L29.1829 9.36061C29.2917 9.67236 29.3799 9.94969 29.4475 10.227H29.4682C29.5432 9.94969 29.6371 9.67236 29.7459 9.36061L30.3841 7.48624H31.0091L29.7197 10.8352H29.1566L27.9066 7.48624H28.5372Z" fill="white"/>
<path id="Vector_5" d="M33.7588 10.0319C33.7563 10.3005 33.7726 10.569 33.8076 10.8352H33.2708L33.2164 10.4125H33.1957C33.0799 10.5717 32.9282 10.7001 32.7534 10.787C32.5787 10.8739 32.386 10.9167 32.1916 10.9117C32.0628 10.9212 31.9334 10.9035 31.8117 10.8597C31.6899 10.8159 31.5783 10.747 31.4839 10.6572C31.3894 10.5674 31.3142 10.4588 31.2629 10.338C31.2115 10.2173 31.1852 10.087 31.1856 9.95542C31.1856 9.14447 31.8931 8.70266 33.1619 8.71031V8.63955C33.1619 8.36413 33.0869 7.85728 32.4112 7.86493C32.1065 7.86177 31.8074 7.9481 31.5497 8.11358L31.4126 7.70619C31.743 7.51228 32.1182 7.4119 32.4994 7.41547C33.511 7.41547 33.755 8.11357 33.755 8.78682L33.7588 10.0319ZM33.1751 9.12535C32.5238 9.11196 31.7843 9.23054 31.7843 9.88083C31.7783 9.95772 31.7888 10.035 31.815 10.1074C31.8412 10.1797 31.8825 10.2454 31.936 10.3C31.9896 10.3545 32.0541 10.3966 32.1251 10.4233C32.1961 10.45 32.2719 10.4607 32.3473 10.4546C32.523 10.4603 32.6959 10.4091 32.8412 10.3085C32.9866 10.2078 33.0969 10.0628 33.1563 9.89422C33.1748 9.83225 33.1836 9.76772 33.1826 9.70296L33.1751 9.12535Z" fill="white"/>
<path id="Vector_6" d="M34.9675 6.87039C34.9173 6.87041 34.8675 6.86015 34.8212 6.84021C34.7749 6.82028 34.733 6.79107 34.698 6.75432C34.663 6.71758 34.6356 6.67404 34.6174 6.6263C34.5992 6.57856 34.5906 6.52758 34.5921 6.47638C34.5921 6.42517 34.6022 6.37447 34.6218 6.3273C34.6413 6.28013 34.67 6.23744 34.706 6.20176C34.7421 6.16609 34.7848 6.13815 34.8317 6.11962C34.8785 6.10108 34.9285 6.09232 34.9788 6.09386C35.0783 6.09386 35.1738 6.13416 35.2442 6.2059C35.3146 6.27764 35.3542 6.37493 35.3542 6.47638C35.3557 6.52856 35.3468 6.5805 35.3279 6.62902C35.309 6.67755 35.2806 6.72162 35.2444 6.75853C35.2082 6.79543 35.1649 6.8244 35.1173 6.84363C35.0697 6.86287 35.0187 6.87198 34.9675 6.87039ZM34.6822 10.8352V7.48625H35.281V10.8352H34.6822Z" fill="white"/>
<path id="Vector_7" d="M36.2382 5.92172H36.835V10.8352H36.2382V5.92172Z" fill="white"/>
<path id="Vector_8" d="M40.1084 10.0319C40.1053 10.3005 40.121 10.5689 40.1553 10.8352H39.6185L39.5641 10.4125H39.5434C39.4278 10.5719 39.2762 10.7006 39.1013 10.7875C38.9265 10.8744 38.7337 10.917 38.5393 10.9117C38.4105 10.9212 38.2811 10.9035 38.1594 10.8597C38.0376 10.8159 37.926 10.747 37.8315 10.6572C37.7371 10.5674 37.6619 10.4588 37.6106 10.338C37.5592 10.2173 37.5329 10.087 37.5332 9.95542C37.5332 9.14447 38.2408 8.70266 39.5115 8.71031V8.63955C39.5115 8.36413 39.4364 7.85728 38.7607 7.86493C38.4561 7.86178 38.157 7.9481 37.8992 8.11358L37.7622 7.70619C38.0927 7.51254 38.4678 7.41218 38.8489 7.41547C39.8606 7.41547 40.1065 8.11358 40.1065 8.78682L40.1084 10.0319ZM39.5246 9.12535C38.8715 9.11196 38.132 9.23054 38.132 9.88083C38.1261 9.95772 38.1366 10.035 38.1628 10.1074C38.189 10.1797 38.2302 10.2454 38.2837 10.3C38.3373 10.3545 38.4017 10.3966 38.4727 10.4233C38.5437 10.45 38.6196 10.4607 38.6951 10.4546C38.8704 10.4599 39.0429 10.4085 39.1878 10.3079C39.3328 10.2072 39.4428 10.0624 39.5021 9.89422C39.5211 9.83234 39.5306 9.76782 39.5303 9.70296L39.5246 9.12535Z" fill="white"/>
<path id="Vector_9" d="M41.0355 5.92172H41.6343V8.0256H41.6474C41.7619 7.82829 41.9276 7.66706 42.1264 7.55972C42.3251 7.45239 42.5491 7.40313 42.7736 7.41739C43.5881 7.41739 44.1587 8.10976 44.1587 9.11962C44.1587 10.3246 43.4079 10.9194 42.6797 10.9194C42.4564 10.932 42.2342 10.8792 42.0394 10.7674C41.8445 10.6556 41.6851 10.4893 41.5798 10.2882H41.5648L41.531 10.8429H41.0149C41.0355 10.6134 41.0412 10.2691 41.0412 9.97839L41.0355 5.92172ZM41.6343 9.49258C41.6333 9.56708 41.6403 9.64146 41.6549 9.71445C41.7057 9.91738 41.8211 10.0974 41.9832 10.2262C42.1453 10.3549 42.3447 10.4252 42.5502 10.4259C43.1827 10.4259 43.5487 9.90762 43.5487 9.13875C43.5487 8.46168 43.209 7.88789 42.5709 7.88789C42.36 7.8908 42.1563 7.96598 41.9925 8.1013C41.8287 8.23662 41.7144 8.42421 41.6681 8.63381C41.6455 8.71729 41.6341 8.80351 41.6343 8.89011V9.49258Z" fill="white"/>
<path id="Vector_10" d="M44.8607 5.92172H45.4576V10.8352H44.8607V5.92172Z" fill="white"/>
<path id="Vector_11" d="M46.7545 9.26498C46.7676 10.0874 47.2763 10.4259 47.8806 10.4259C48.1919 10.4352 48.5017 10.3792 48.7909 10.2615L48.8998 10.6899C48.5498 10.8412 48.1725 10.9155 47.7924 10.9079C46.7864 10.9079 46.1764 10.2232 46.1764 9.21908C46.1764 8.21495 46.7657 7.40591 47.7248 7.40591C48.7966 7.40591 49.0743 8.36222 49.0743 8.98382C49.0771 9.08119 49.0702 9.17859 49.0537 9.27454L46.7545 9.26498ZM48.5 8.8289C48.5 8.44638 48.3423 7.83817 47.6779 7.83817C47.0679 7.83817 46.8089 8.41195 46.762 8.8289H48.5Z" fill="white"/>
<path id="Vector_12" d="M52.526 10.9079C51.6438 10.9079 50.9512 10.2423 50.9512 9.18655C50.9512 8.06576 51.6776 7.40782 52.5804 7.40782C53.5189 7.40782 54.1626 8.10593 54.1626 9.12918C54.1626 10.3762 53.3124 10.9156 52.5335 10.9156L52.526 10.9079ZM52.5466 10.4508C53.1097 10.4508 53.5433 9.90378 53.5433 9.14256C53.5433 8.56878 53.2655 7.86302 52.5598 7.86302C51.854 7.86302 51.5556 8.5267 51.5556 9.1636C51.5556 9.89805 51.9629 10.4508 52.5391 10.4508H52.5466Z" fill="white"/>
<path id="Vector_13" d="M54.8834 8.39283C54.8834 8.03899 54.8833 7.76357 54.8552 7.48624H55.3845L55.4183 8.03325H55.4314C55.5406 7.83918 55.6992 7.67878 55.8905 7.56903C56.0818 7.45927 56.2987 7.40423 56.5181 7.40974C56.9723 7.40974 57.6799 7.68707 57.6799 8.83464V10.8352H57.0812V8.90349C57.0812 8.36605 56.8935 7.90702 56.3304 7.90702C56.1497 7.91256 55.9751 7.97568 55.8314 8.08752C55.6876 8.19936 55.5819 8.35429 55.529 8.53054C55.5016 8.62291 55.4883 8.71902 55.4896 8.81551V10.8352H54.8927L54.8834 8.39283Z" fill="white"/>
<path id="Vector_14" d="M60.743 6.68294V7.48623H61.5989V7.94909H60.743V9.76034C60.743 10.1754 60.8594 10.4106 61.1916 10.4106C61.3088 10.4148 61.4259 10.4006 61.5389 10.3685L61.5651 10.8314C61.3946 10.8895 61.2157 10.918 61.0359 10.9156C60.9166 10.9212 60.7976 10.9013 60.6864 10.8571C60.5752 10.813 60.4743 10.7456 60.3902 10.6593C60.2269 10.468 60.1593 10.1754 60.1593 9.77947V7.95291H59.6507V7.49006H60.1593V6.8742L60.743 6.68294Z" fill="white"/>
<path id="Vector_15" d="M62.2446 5.92172H62.8415V8.01221H62.8546C62.9538 7.83041 63.1024 7.68165 63.2825 7.58379C63.4669 7.46944 63.6786 7.4092 63.8944 7.40974C64.3355 7.40974 65.0412 7.68707 65.0412 8.84229V10.8352H64.4443V8.91114C64.4443 8.36605 64.2473 7.91467 63.6842 7.91467C63.5054 7.91942 63.3323 7.98042 63.1888 8.08931C63.0454 8.1982 62.9385 8.34964 62.8828 8.52288C62.8501 8.61668 62.8361 8.71615 62.8415 8.81551V10.8352H62.2446V5.92172Z" fill="white"/>
<path id="Vector_16" d="M66.3081 9.26497C66.3231 10.0874 66.8317 10.4259 67.4342 10.4259C67.7455 10.4352 68.0553 10.3792 68.3445 10.2614L68.4534 10.6899C68.1055 10.8388 67.7308 10.9118 67.3535 10.9041C66.3494 10.9041 65.7375 10.2194 65.7375 9.21524C65.7375 8.21112 66.3287 7.40208 67.2859 7.40208C68.3576 7.40208 68.6373 8.35839 68.6373 8.97999C68.6391 9.07734 68.6322 9.17464 68.6167 9.27071L66.3081 9.26497ZM68.0536 8.8289C68.0536 8.44637 67.8978 7.83816 67.2315 7.83816C66.6215 7.83816 66.3625 8.41194 66.3156 8.8289H68.0536Z" fill="white"/>
<path id="Vector_17" d="M71.0285 6.87037C70.9782 6.8704 70.9285 6.86014 70.8822 6.8402C70.8359 6.82026 70.794 6.79105 70.759 6.75431C70.724 6.71756 70.6966 6.67403 70.6784 6.62628C70.6602 6.57854 70.6516 6.52756 70.6531 6.47637C70.6531 6.42499 70.6632 6.37414 70.6829 6.32683C70.7026 6.27953 70.7314 6.23674 70.7677 6.20104C70.8039 6.16534 70.8469 6.13745 70.8939 6.11903C70.941 6.10062 70.9912 6.09205 71.0416 6.09385C71.1412 6.09385 71.2367 6.13415 71.3071 6.20589C71.3775 6.27762 71.417 6.37492 71.417 6.47637C71.4186 6.52854 71.4096 6.58049 71.3908 6.62901C71.3719 6.67753 71.3435 6.7216 71.3072 6.75851C71.271 6.79542 71.2278 6.82438 71.1802 6.84362C71.1325 6.86286 71.0816 6.87197 71.0304 6.87037H71.0285ZM70.7432 10.8352V7.48623H71.3401V10.8352H70.7432Z" fill="white"/>
<path id="Vector_18" d="M72.3179 6.23348C72.6895 6.16534 73.0665 6.13269 73.4441 6.13593C74.0278 6.13593 74.4557 6.27555 74.7279 6.51846C74.861 6.64131 74.9664 6.79216 75.0367 6.96057C75.107 7.12899 75.1406 7.31095 75.1352 7.49389C75.145 7.67625 75.1181 7.85873 75.0561 8.0301C74.9941 8.20147 74.8984 8.3581 74.7748 8.49036C74.4632 8.8289 73.9527 9.00295 73.3765 9.00295C73.2172 9.00795 73.0578 8.99383 72.9017 8.96087V10.8295H72.3104L72.3179 6.23348ZM72.9091 8.47506C73.0693 8.51118 73.2332 8.52723 73.3972 8.52288C74.1179 8.52288 74.5458 8.16522 74.5458 7.53405C74.5458 6.90289 74.1179 6.61409 73.4647 6.61409C73.276 6.61164 73.0874 6.62766 72.9017 6.6619L72.9091 8.47506Z" fill="white"/>
<path id="Vector_19" d="M75.8428 5.92172H76.4396V8.01221H76.4528C76.552 7.83041 76.7006 7.68165 76.8807 7.58379C77.065 7.46925 77.2768 7.409 77.4926 7.40974C77.9337 7.40974 78.6394 7.68707 78.6394 8.84229V10.8352H78.0425V8.91114C78.0425 8.36605 77.8454 7.91467 77.2824 7.91467C77.1035 7.91942 76.9305 7.98042 76.787 8.08931C76.6435 8.1982 76.5366 8.34964 76.4809 8.52288C76.4483 8.61668 76.4343 8.71615 76.4396 8.81551V10.8352H75.8428V5.92172Z" fill="white"/>
<path id="Vector_20" d="M80.9142 10.9079C80.032 10.9079 79.3394 10.2423 79.3394 9.18655C79.3394 8.06576 80.0658 7.40782 80.9686 7.40782C81.9071 7.40782 82.5508 8.10593 82.5508 9.12918C82.5508 10.3762 81.7025 10.9156 80.9217 10.9156L80.9142 10.9079ZM80.9348 10.4508C81.4979 10.4508 81.9333 9.90378 81.9333 9.14256C81.9333 8.56878 81.6556 7.86302 80.948 7.86302C80.2404 7.86302 79.9438 8.5267 79.9438 9.1636C79.9438 9.89805 80.3511 10.4508 80.9273 10.4508H80.9348Z" fill="white"/>
<path id="Vector_21" d="M83.2659 8.39282C83.2659 8.03898 83.2659 7.76356 83.2397 7.48623H83.769L83.8027 8.03325H83.8177C83.9263 7.83904 84.0846 7.67849 84.2756 7.56869C84.4666 7.45889 84.6833 7.40395 84.9026 7.40973C85.3587 7.40973 86.0644 7.68706 86.0644 8.83463V10.8352H85.4675V8.90348C85.4675 8.36604 85.2799 7.90701 84.7055 7.90701C84.5248 7.91209 84.3503 7.97507 84.2068 8.087C84.0633 8.19894 83.958 8.35413 83.906 8.53053C83.8763 8.62246 83.8617 8.71874 83.8628 8.81551V10.8352H83.2659V8.39282Z" fill="white"/>
<path id="Vector_22" d="M87.3444 9.26497C87.3576 10.0874 87.8681 10.4259 88.4706 10.4259C88.7819 10.4352 89.0917 10.3792 89.3809 10.2614L89.4898 10.6899C89.1412 10.8387 88.7659 10.9117 88.388 10.9041C87.3839 10.9041 86.772 10.2194 86.772 9.21524C86.772 8.21112 87.3632 7.40208 88.3205 7.40208C89.394 7.40208 89.6718 8.35839 89.6718 8.97999C89.6746 9.07736 89.6676 9.17476 89.6512 9.27071L87.3444 9.26497ZM89.09 8.8289C89.09 8.44637 88.9323 7.83816 88.2679 7.83816C87.656 7.83816 87.3989 8.41194 87.3501 8.8289H89.09Z" fill="white"/>
<path id="Vector_23" d="M27.9967 13.9949L23.9707 26.0711H25.8138L27.0151 22.3626H30.9134L32.1503 26.0711H34.0441L30.0012 13.9949H27.9967ZM28.952 15.9802C29.0872 16.5195 29.2336 17.078 29.4231 17.6843L30.508 20.886H27.4205L28.4903 17.6633C28.648 17.1392 28.8075 16.575 28.952 15.9802Z" fill="white"/>
<path id="Vector_24" d="M39.2544 17.1258C38.0344 17.1258 37.0546 17.6059 36.4033 18.5182L36.332 17.3171H34.6935V17.4701C34.7404 18.2198 34.761 19.0423 34.761 20.2262V29.5349H36.5535V25.1894C36.8601 25.5402 37.2386 25.8181 37.6621 26.0035C38.0857 26.1889 38.544 26.2773 39.0048 26.2624C39.5128 26.2673 40.0164 26.1654 40.484 25.963C40.9516 25.7606 41.3732 25.4621 41.7225 25.0861C42.5089 24.2408 42.9219 23.0243 42.9219 21.5707C42.9219 20.2874 42.5634 19.1781 41.8802 18.3633C41.5584 17.9733 41.1564 17.6603 40.7026 17.4464C40.2488 17.2325 39.7543 17.1231 39.2544 17.1258ZM38.8077 18.6368C40.4068 18.6368 41.1219 20.1458 41.1219 21.6415C41.1219 23.5694 40.2097 24.7686 38.7401 24.7686C38.2523 24.7686 37.7787 24.6012 37.3957 24.2935C37.0126 23.9857 36.7424 23.5555 36.6286 23.0722C36.582 22.8788 36.5599 22.6802 36.5629 22.4812V21.0123C36.5699 20.8604 36.5893 20.7094 36.6211 20.5609C36.6211 20.5112 36.6398 20.4614 36.6473 20.4117C36.7642 19.9141 37.0397 19.47 37.4305 19.1489C37.8214 18.8278 38.3057 18.6477 38.8077 18.6368Z" fill="white"/>
<path id="Vector_25" d="M48.4887 17.1258C47.2669 17.1258 46.289 17.6059 45.6377 18.5182L45.5664 17.3171H43.926V17.4701C43.9748 18.2198 43.9954 19.0423 43.9954 20.2262V29.5349H45.7879V25.1894C46.0945 25.5402 46.473 25.8181 46.8965 26.0035C47.3201 26.1889 47.7784 26.2773 48.2391 26.2624C48.7471 26.2671 49.2506 26.1651 49.7182 25.9627C50.1858 25.7603 50.6075 25.4619 50.9569 25.0861C51.7414 24.2408 52.1562 23.0243 52.1562 21.5707C52.1562 20.2874 51.7958 19.1781 51.1145 18.3633C50.7928 17.9733 50.3908 17.6603 49.937 17.4464C49.4832 17.2325 48.9887 17.1231 48.4887 17.1258ZM48.042 18.6368C49.6393 18.6368 50.3544 20.1458 50.3544 21.6415C50.3544 23.5694 49.4422 24.7686 47.9726 24.7686C47.4849 24.7683 47.0115 24.6008 46.6285 24.2931C46.2455 23.9854 45.9752 23.5553 45.8611 23.0722C45.8152 22.8787 45.7938 22.6801 45.7973 22.4812V21.0123C45.8042 20.8598 45.8237 20.7082 45.8555 20.559C45.8555 20.5092 45.8723 20.4614 45.8817 20.4117C45.9986 19.9141 46.2741 19.47 46.6649 19.1489C47.0558 18.8278 47.5401 18.6477 48.042 18.6368Z" fill="white"/>
<path id="Vector_26" d="M60.0561 19.1111C58.3819 18.4513 57.8451 17.931 57.8451 16.9728C57.8451 16.1638 58.4758 15.349 59.8834 15.349C60.6204 15.3309 61.3483 15.5173 61.9893 15.8884L62.1413 15.984L62.6462 14.4539L62.5468 14.3946C62.2465 14.2148 61.3906 13.7979 59.936 13.7979C57.6499 13.7979 56.0527 15.173 56.0527 17.143C56.0527 18.7305 57.0531 19.8398 59.2003 20.6355C60.7205 21.2093 61.2874 21.8098 61.2874 22.8273C61.2874 23.9749 60.4146 24.694 59.0088 24.694C58.096 24.6952 57.201 24.4368 56.4243 23.9481L56.2685 23.8449L55.788 25.4055L55.8762 25.4648C56.5519 25.9258 57.8263 26.2586 58.9056 26.2586C61.9874 26.2586 63.0798 24.346 63.0798 22.7049C63.0798 21.018 62.2052 19.9756 60.0561 19.1111Z" fill="white"/>
<path id="Vector_27" d="M66.3081 15.2362L64.5494 15.7985V17.3171H63.2619V18.7783H64.5494V23.25C64.5494 24.3326 64.7521 25.09 65.1707 25.5681C65.3961 25.8009 65.6669 25.9829 65.9656 26.1025C66.2643 26.2221 66.5843 26.2765 66.9049 26.2624C67.376 26.2692 67.8448 26.1955 68.292 26.0444L68.3914 26.008L68.3051 24.5449L68.1343 24.6003C67.8626 24.6768 67.5808 24.7097 67.2991 24.6979C66.6046 24.6979 66.3081 24.2503 66.3081 23.1984V18.7783H68.4703V17.3171H66.3081V15.2362Z" fill="white"/>
<path id="Vector_28" d="M72.9148 17.1258C70.4054 17.1258 68.6542 19.0385 68.6542 21.7639C68.6542 24.4129 70.3435 26.2624 72.7834 26.2624H72.8003C74.8518 26.2624 77.0609 24.8069 77.0609 21.6071C77.0609 20.3065 76.6649 19.1876 75.9179 18.3748C75.5309 17.964 75.0637 17.6407 74.5464 17.4255C74.0291 17.2104 73.4733 17.1083 72.9148 17.1258ZM72.8622 18.5679C74.4764 18.5679 75.2103 20.1707 75.2103 21.6587C75.2103 23.491 74.208 24.8203 72.8285 24.8203H72.8116C71.4508 24.8203 70.4655 23.514 70.4655 21.7123C70.4655 20.1478 71.2068 18.5679 72.8622 18.5679Z" fill="white"/>
<path id="Vector_29" d="M82.5471 17.2196L82.4401 17.1909C82.2942 17.1526 82.144 17.1339 81.9934 17.1354C81.5213 17.1449 81.0611 17.2873 80.6636 17.5469C80.266 17.8065 79.9468 18.1731 79.7411 18.6062L79.6885 17.3267H78.08V17.4797C78.1288 18.2045 78.1476 19.0098 78.1476 20.1114L78.1326 26.0807H79.925V21.4139C79.9241 21.1771 79.9404 20.9406 79.9738 20.7063C80.1765 19.5874 80.9123 18.8644 81.8507 18.8644C82.0119 18.866 82.173 18.8762 82.3331 18.895L82.5208 18.916L82.5471 17.2196Z" fill="white"/>
<path id="Vector_30" d="M86.5787 17.1086C84.1913 17.1086 82.5246 19.0518 82.5246 21.8347C82.5246 24.5124 84.1819 26.2452 86.7495 26.2452C87.7239 26.2671 88.6918 26.0781 89.5892 25.6905L89.6962 25.6408L89.3528 24.279L89.2026 24.3421C88.4876 24.6356 87.7207 24.775 86.9503 24.7514C86.1714 24.7514 84.3752 24.4894 84.2644 22.1005L90.0528 22.1197L90.0754 22.003C90.1177 21.7504 90.1359 21.4942 90.1298 21.238C90.1354 19.333 89.2045 17.1086 86.5787 17.1086ZM86.4586 18.4972C86.7003 18.4867 86.9416 18.5267 87.1675 18.6149C87.3935 18.703 87.5993 18.8374 87.7724 19.0097C88.2867 19.5434 88.3786 20.3314 88.388 20.7101H84.3001C84.469 19.6543 85.1184 18.4972 86.4567 18.4972H86.4586Z" fill="white"/>
</g>
<defs>
<clipPath id="clip0_402_1242">
<rect width="96" height="32" fill="white" transform="translate(0.5 0.75)"/>
</clipPath>
</defs>
</svg>
