<svg width="32" height="32" viewBox="0 0 32 32" fill="none" xmlns="http://www.w3.org/2000/svg">
<g id="next-svgrepo-com 2" opacity="0.6" clip-path="url(#clip0_531_375)">
<g id="Group">
<g id="Group_2">
<g id="Group_3">
<path id="Vector" d="M1.90735e-06 16C1.90735e-06 7.17714 7.17714 0 16 0C24.8229 0 32 7.17714 32 16C32 24.8229 24.8229 32 16 32C7.17714 32 1.90735e-06 24.8229 1.90735e-06 16ZM29.76 16C29.76 8.41143 23.5886 2.24 16 2.24C8.41143 2.24 2.24 8.41143 2.24 16C2.24 23.5886 8.41143 29.76 16 29.76C23.5886 29.76 29.76 23.5886 29.76 16Z" fill="white"/>
<path id="Vector_2" d="M12.2582 15.2098L16.9667 10.5012C17.4043 10.0636 18.1161 10.0636 18.5537 10.5012C18.9912 10.9387 18.9912 11.6506 18.5537 12.0881L14.6353 16.0065L18.5537 19.9249C18.9912 20.3624 18.9912 21.0743 18.5537 21.5118C18.3382 21.7273 18.0508 21.8383 17.7635 21.8383C17.4761 21.8383 17.1888 21.7273 16.9733 21.5118L12.2647 16.8032C11.8206 16.3526 11.8206 15.6473 12.2582 15.2098Z" fill="white"/>
</g>
</g>
</g>
</g>
<defs>
<clipPath id="clip0_531_375">
<rect width="32" height="32" fill="white" transform="matrix(-1 0 0 1 32 0)"/>
</clipPath>
</defs>
</svg>
