<svg width="32" height="32" viewBox="0 0 32 32" fill="none" xmlns="http://www.w3.org/2000/svg">
<g id="next-svgrepo-com 1" opacity="0.6" clip-path="url(#clip0_531_383)">
<g id="Group">
<g id="Group_2">
<g id="Group_3">
<path id="Vector" d="M32 16C32 7.17714 24.8229 0 16 0C7.17714 0 0 7.17714 0 16C0 24.8229 7.17714 32 16 32C24.8229 32 32 24.8229 32 16ZM2.24 16C2.24 8.41143 8.41143 2.24 16 2.24C23.5886 2.24 29.76 8.41143 29.76 16C29.76 23.5886 23.5886 29.76 16 29.76C8.41143 29.76 2.24 23.5886 2.24 16Z" fill="white"/>
<path id="Vector_2" d="M19.7418 15.2098L15.0333 10.5012C14.5957 10.0636 13.8839 10.0636 13.4463 10.5012C13.0088 10.9387 13.0088 11.6506 13.4463 12.0881L17.3647 16.0065L13.4463 19.9249C13.0088 20.3624 13.0088 21.0743 13.4463 21.5118C13.6618 21.7273 13.9492 21.8383 14.2365 21.8383C14.5239 21.8383 14.8112 21.7273 15.0267 21.5118L19.7353 16.8032C20.1794 16.3526 20.1794 15.6473 19.7418 15.2098Z" fill="white"/>
</g>
</g>
</g>
</g>
<defs>
<clipPath id="clip0_531_383">
<rect width="32" height="32" fill="white"/>
</clipPath>
</defs>
</svg>
