<svg width="280" height="301" viewBox="0 0 280 301" fill="none" xmlns="http://www.w3.org/2000/svg">
<g clip-path="url(#clip0_402_424)">
<path d="M140 279.064C217.04 279.064 279.493 216.595 279.493 139.536C279.493 62.4766 217.04 0.00769043 140 0.00769043C62.9607 0.00769043 0.50766 62.4766 0.50766 139.536C0.50766 216.595 62.9607 279.064 140 279.064Z" fill="#F7DBD8"/>
<path d="M93.8169 135.059C119.657 135.059 140.604 114.107 140.604 88.2602C140.604 62.4137 119.657 41.4611 93.8169 41.4611C67.977 41.4611 47.0297 62.4137 47.0297 88.2602C47.0297 114.107 67.977 135.059 93.8169 135.059Z" fill="#F2755E"/>
<path d="M202.422 171.255L205.241 193.704C205.241 193.704 205.017 198.216 201.294 197.426C197.571 196.636 188.776 190.997 189.339 187.612C189.902 184.228 185.054 163.021 185.054 163.021L201.946 160.539L202.422 171.255Z" fill="#2A2929"/>
<path d="M177.893 76.5343L201.068 59.6183C201.068 59.6183 207.496 56.9106 208.347 66.555C209.199 76.1994 202.089 88.7217 184.326 99.8885L177.893 76.5343Z" fill="#F7ABA5"/>
<path d="M184.32 100.9C184.195 100.9 184.07 100.876 183.953 100.831C183.806 100.774 183.674 100.683 183.568 100.567C183.462 100.45 183.385 100.31 183.342 100.159L176.914 76.8077C176.859 76.6092 176.866 76.3986 176.934 76.2041C177.002 76.0096 177.127 75.8404 177.294 75.7189L200.47 58.8028C200.533 58.7578 200.602 58.7202 200.674 58.6908C200.786 58.6449 203.417 57.5638 205.842 59.0269C207.844 60.2345 209.025 62.7406 209.353 66.4778C209.815 71.743 208.015 77.537 204.149 83.2325C199.906 89.4836 193.416 95.3806 184.861 100.76C184.698 100.856 184.51 100.905 184.32 100.9ZM179.057 76.9411L184.933 98.2877C199.871 88.5784 208.222 76.8122 207.333 66.6391C207.068 63.6289 206.192 61.5979 204.796 60.751C203.469 59.9511 201.941 60.3846 201.556 60.5157L179.057 76.9411Z" fill="#2A2929"/>
<path d="M189.395 99.8842L217.646 110.037C217.646 110.037 224.243 113.591 214.263 120.527C204.283 127.464 182.968 121.882 181.615 120.527C180.262 119.173 189.395 99.8842 189.395 99.8842Z" fill="#F7ABA5"/>
<path d="M200.251 124.951C198.363 124.947 196.476 124.845 194.599 124.647C191.574 124.334 188.576 123.803 185.629 123.057C183.837 122.593 181.553 121.903 180.897 121.245C180.307 120.656 180.196 119.711 181.297 116.41C181.893 114.618 182.824 112.225 184.063 109.302C186.162 104.348 188.455 99.4988 188.478 99.4439C188.586 99.2161 188.775 99.0368 189.008 98.9408C189.241 98.8447 189.502 98.8388 189.739 98.9241L217.989 109.076C218.037 109.093 218.083 109.114 218.127 109.138C218.23 109.192 220.64 110.521 220.793 113.195C220.938 115.765 218.936 118.51 214.842 121.356C210.844 124.14 205.326 124.951 200.251 124.951ZM182.492 119.899C183.69 120.528 188.786 122.034 195.097 122.656C200.821 123.216 208.691 123.164 213.689 119.694C218.017 116.685 218.841 114.565 218.771 113.316C218.694 111.947 217.483 111.124 217.22 110.964L189.928 101.156C189.228 102.657 187.695 105.984 186.21 109.459C182.957 117.052 182.524 119.28 182.492 119.899Z" fill="#2A2929"/>
<path d="M180.058 127.337C180.606 127.604 196.419 124.611 203.159 141.626C209.899 158.642 218.968 177.735 211.28 178.946C203.591 180.157 191.008 168.028 184.99 150.059C178.973 132.09 180.058 127.337 180.058 127.337Z" fill="#F7ABA5"/>
<path d="M210.201 180.044C206.255 180.044 201.443 177.32 196.774 172.393C191.416 166.739 186.89 158.922 184.03 150.381C177.994 132.345 179.024 127.317 179.07 127.111C179.104 126.962 179.172 126.822 179.267 126.703C179.363 126.584 179.484 126.487 179.622 126.421C179.818 126.326 180.04 126.298 180.254 126.34C180.357 126.34 180.575 126.33 180.771 126.321C182.401 126.245 186.733 126.042 191.358 127.829C197.182 130.076 201.466 134.593 204.104 141.252C205.016 143.552 205.983 145.926 206.92 148.221C212.393 161.639 217.12 173.227 214.481 177.908C213.839 179.047 212.816 179.734 211.44 179.951C211.03 180.014 210.616 180.045 210.201 180.044ZM181.004 128.343C180.986 130.313 181.443 136.261 185.955 149.74C191.811 167.231 204.075 179.058 211.124 177.946C211.877 177.828 212.382 177.498 212.713 176.912C213.633 175.281 213.265 171.737 211.62 166.382C210.063 161.312 207.624 155.329 205.04 148.997C204.102 146.697 203.136 144.318 202.217 142.008C198.451 132.498 191.314 127.904 181.002 128.343H181.004Z" fill="#2A2929"/>
<path d="M185.054 189.266C185.054 189.266 181.973 213.63 168.525 224.544C155.078 235.458 147.212 235.965 142.391 259.06L113.719 254.243L106.11 178.349L185.054 189.266Z" fill="#F7ABA5"/>
<path d="M142.392 260.076C142.335 260.076 142.278 260.071 142.223 260.061L113.551 255.244C113.332 255.208 113.13 255.101 112.978 254.939C112.826 254.777 112.732 254.569 112.71 254.348L105.094 178.453C105.079 178.3 105.098 178.146 105.151 178.002C105.204 177.857 105.289 177.727 105.4 177.621C105.51 177.514 105.644 177.434 105.79 177.386C105.936 177.339 106.091 177.325 106.243 177.346L185.19 188.26C185.454 188.296 185.694 188.436 185.856 188.648C186.019 188.86 186.091 189.127 186.058 189.392C186.025 189.646 185.247 195.666 182.794 203.129C181.349 207.522 179.622 211.492 177.659 214.93C175.186 219.263 172.327 222.763 169.162 225.332C166.362 227.6 163.774 229.447 161.487 231.079C152.533 237.464 147.128 241.319 143.382 259.267C143.334 259.495 143.21 259.699 143.03 259.846C142.85 259.994 142.624 260.075 142.392 260.076ZM114.65 253.374L141.601 257.898C145.513 239.979 151.431 235.759 160.313 229.426C162.575 227.813 165.14 225.985 167.886 223.755C174.633 218.281 178.662 209.192 180.856 202.533C182.185 198.483 183.202 194.337 183.898 190.132L107.246 179.535L114.65 253.374Z" fill="#2A2929"/>
<path d="M180.018 27.9607H109.658C102.405 27.9607 96.5251 33.842 96.5251 41.0969V189.719C96.5251 196.974 102.405 202.856 109.658 202.856H180.018C187.271 202.856 193.15 196.974 193.15 189.719V41.0969C193.15 33.842 187.271 27.9607 180.018 27.9607Z" fill="white"/>
<path d="M180.018 205.244H109.658C101.099 205.244 94.1361 198.279 94.1361 189.718V41.098C94.1361 32.537 101.099 25.5723 109.658 25.5723H180.018C188.576 25.5723 195.539 32.537 195.539 41.098V189.718C195.539 198.279 188.576 205.244 180.018 205.244ZM109.658 30.3502C106.809 30.3523 104.077 31.4853 102.063 33.5005C100.048 35.5157 98.9158 38.2483 98.914 41.098V189.718C98.9161 192.568 100.049 195.3 102.063 197.315C104.078 199.33 106.809 200.463 109.658 200.465H180.018C182.866 200.463 185.598 199.33 187.612 197.315C189.627 195.3 190.759 192.568 190.762 189.718V41.098C190.759 38.2487 189.626 35.5167 187.612 33.502C185.598 31.4873 182.866 30.3545 180.018 30.3524L109.658 30.3502Z" fill="#2A2929"/>
<path d="M120.755 162.458L124.483 161.786C124.795 162.839 125.601 163.367 126.899 163.367C127.908 163.367 128.413 163.099 128.413 162.562C128.417 162.431 128.387 162.302 128.326 162.187C128.264 162.072 128.173 161.975 128.063 161.905C127.83 161.749 127.413 161.61 126.812 161.489C124.518 161.048 123.045 160.473 122.393 159.765C121.755 159.089 121.405 158.191 121.416 157.262C121.405 156.676 121.526 156.096 121.769 155.563C122.012 155.031 122.371 154.559 122.82 154.183C123.756 153.362 125.103 152.951 126.86 152.951C129.524 152.951 131.284 154.022 132.142 156.163L128.815 157.171C128.47 156.296 127.771 155.858 126.716 155.858C125.841 155.858 125.403 156.13 125.404 156.673C125.401 156.784 125.426 156.894 125.478 156.992C125.53 157.09 125.607 157.173 125.701 157.233C125.899 157.367 126.283 157.495 126.851 157.616C128.419 157.948 129.531 158.241 130.187 158.495C130.855 158.757 131.428 159.212 131.835 159.803C132.282 160.441 132.514 161.206 132.496 161.985C132.496 163.309 131.959 164.382 130.886 165.205C129.813 166.027 128.404 166.438 126.659 166.437C123.471 166.443 121.503 165.117 120.755 162.458Z" fill="#2A2929"/>
<path d="M141.228 161.25L144.898 161.474C144.726 163.08 144.133 164.312 143.121 165.171C142.108 166.03 140.864 166.458 139.388 166.456C137.611 166.456 136.176 165.868 135.084 164.692C133.991 163.515 133.445 161.892 133.445 159.822C133.445 157.771 133.963 156.115 134.998 154.856C136.032 153.596 137.476 152.966 139.33 152.967C141.061 152.967 142.392 153.446 143.322 154.405C144.253 155.364 144.778 156.636 144.898 158.221L141.151 158.421C141.151 157.547 140.983 156.914 140.648 156.524C140.313 156.133 139.918 155.938 139.464 155.939C138.198 155.939 137.566 157.211 137.567 159.755C137.567 161.179 137.731 162.148 138.06 162.659C138.201 162.899 138.404 163.097 138.648 163.232C138.891 163.367 139.167 163.434 139.445 163.427C140.506 163.42 141.1 162.694 141.228 161.25Z" fill="#2A2929"/>
<path d="M153.359 166.244L152.619 163.668H149.115L148.331 166.244H145.071L149.11 153.158H153.356L157.46 166.244H153.359ZM149.797 160.809H151.914L150.855 157.012L149.797 160.809Z" fill="#2A2929"/>
<path d="M169.848 166.244H166.58L162.996 160.463C162.471 159.595 162.006 158.692 161.605 157.76C161.795 158.461 161.901 159.181 161.921 159.907V166.244H158.663V153.158H162.458L165.506 157.951C166.03 158.752 166.491 159.592 166.886 160.464C166.681 159.331 166.578 158.182 166.58 157.031V153.158H169.848V166.244Z" fill="#2A2929"/>
<path d="M172.275 171.673H118.819C117.908 171.672 117.033 171.309 116.389 170.664C115.744 170.019 115.381 169.145 115.38 168.233V150.861C115.381 149.949 115.744 149.074 116.389 148.429C117.033 147.784 117.908 147.422 118.819 147.42H172.275C173.187 147.421 174.061 147.784 174.706 148.429C175.351 149.074 175.714 149.949 175.715 150.861V168.233C175.714 169.145 175.351 170.019 174.706 170.664C174.061 171.309 173.187 171.672 172.275 171.673ZM118.819 149.45C118.446 149.451 118.087 149.6 117.823 149.864C117.559 150.128 117.41 150.487 117.409 150.861V168.233C117.41 168.607 117.559 168.965 117.823 169.229C118.087 169.494 118.446 169.643 118.819 169.643H172.275C172.649 169.643 173.007 169.494 173.272 169.229C173.536 168.965 173.685 168.607 173.685 168.233V150.861C173.685 150.487 173.536 150.128 173.272 149.864C173.007 149.6 172.649 149.451 172.275 149.45H118.819Z" fill="#2A2929"/>
<path d="M138.761 62.2297H136.282V64.7089H138.761H141.239V62.2297H138.761Z" fill="#2A2929"/>
<path d="M153.632 62.2297H151.153V64.7089H153.632V62.2297Z" fill="#2A2929"/>
<path d="M143.718 72.1451H146.196V74.6243H141.239V72.1451H138.761V69.6671H143.718V72.1451Z" fill="#2A2929"/>
<path d="M151.153 64.7088V67.1879H141.239V64.7088H143.718V62.2285H146.196V64.7088H151.153Z" fill="#2A2929"/>
<path d="M153.632 69.6671V67.188H151.153V69.6671V72.1452H153.632V69.6671Z" fill="#2A2929"/>
<path d="M136.282 74.6243V77.1034H138.761V74.6243V72.1451H136.282V74.6243Z" fill="#2A2929"/>
<path d="M151.153 72.1462H148.675V74.6254H151.153V72.1462Z" fill="#2A2929"/>
<path d="M141.239 89.4993H138.761V91.9784H141.239V89.4993Z" fill="#2A2929"/>
<path d="M123.891 77.1035H121.412V79.5827H123.891V77.1035Z" fill="#2A2929"/>
<path d="M148.675 79.5826H151.153V82.0617H153.632V79.5826H156.11V77.1034H153.632V74.6243H151.153V77.1034H148.675H146.196H143.718H141.239V79.5826H143.718H146.196V82.0617H148.675V79.5826Z" fill="#2A2929"/>
<path d="M166.023 79.5827V77.1035H163.546V79.5827V82.0618H166.023V79.5827Z" fill="#2A2929"/>
<path d="M123.891 82.0618H121.412V84.5409H123.891V82.0618Z" fill="#2A2929"/>
<path d="M133.804 84.541H136.282V82.0618H138.761V79.5827H136.282H133.804V77.1035H131.325V79.5827V82.0618H133.804V84.541Z" fill="#2A2929"/>
<path d="M146.196 82.0618H143.718V84.5409H146.196V82.0618Z" fill="#2A2929"/>
<path d="M161.067 82.0618V79.5827V77.1035H158.589V79.5827V82.0618H156.11H153.632V84.541H156.11H158.589V87.0201H161.067V84.541H163.546V82.0618H161.067Z" fill="#2A2929"/>
<path d="M133.804 84.541H131.325V82.0618H128.847V79.5827V77.1035H126.369V79.5827H123.891V82.0618H126.369V84.541H128.847V87.0201H131.325V89.4993H133.804V87.0201V84.541Z" fill="#2A2929"/>
<path d="M143.718 84.5409V89.4992H141.239V87.02H138.761V84.5409H143.718Z" fill="#2A2929"/>
<path d="M166.023 84.5409H163.546V87.02V89.4992H161.067V91.9783H163.546V94.4575H166.023V96.9366V99.4158H168.503V96.9366V94.4575V91.9783H166.023V89.4992H168.503V87.02H166.023V84.5409Z" fill="#2A2929"/>
<path d="M123.891 87.02H121.412V89.4992V91.9783H123.891V94.4575H126.369V91.9783V89.4992H123.891V87.02Z" fill="#2A2929"/>
<path d="M128.848 87.02H126.369V89.4992H128.848V87.02Z" fill="#2A2929"/>
<path d="M153.632 87.02V84.5409H151.153H148.675H146.196V87.02V89.4992H148.675V87.02H151.153V89.4992H153.632V91.9783H156.11V89.4992H158.589V87.02H156.11H153.632Z" fill="#2A2929"/>
<path d="M136.282 89.4993H133.804V91.9784V94.4576H136.282V96.9367V99.4159H138.761V96.9367V94.4576V91.9784H136.282V89.4993Z" fill="#2A2929"/>
<path d="M146.196 89.4993H143.718V91.9784H146.196V89.4993Z" fill="#2A2929"/>
<path d="M143.718 91.9784H141.239V94.4575H143.718V91.9784Z" fill="#2A2929"/>
<path d="M151.153 96.9367V94.4575V91.9784H148.675V94.4575H146.196V96.9367H148.675H151.153Z" fill="#2A2929"/>
<path d="M143.718 96.9366H141.239V99.4158H143.718V96.9366Z" fill="#2A2929"/>
<path d="M148.675 99.4158H146.196V101.895H148.675V99.4158Z" fill="#2A2929"/>
<path d="M161.112 99.4158V91.975H151.15V101.945H153.632V104.377H156.106V101.945H158.584V104.377H161.063V101.945H161.109V101.898H163.543V104.377H166.02V99.4203L161.112 99.4158ZM159.254 100.081H153.058V93.8839H159.254V100.081Z" fill="#2A2929"/>
<path d="M138.761 104.374V106.853H141.239V104.374V101.895V99.4158H138.761V101.895V104.374Z" fill="#2A2929"/>
<path d="M148.675 104.374V106.853H151.153H153.632V104.374H151.153H148.675Z" fill="#2A2929"/>
<path d="M138.761 106.853H136.282V109.332H138.761V106.853Z" fill="#2A2929"/>
<path d="M143.718 109.332H146.196V106.853H143.718H141.239V109.332H143.718Z" fill="#2A2929"/>
<path d="M163.546 106.853V109.332H166.023H168.503V106.853H166.023H163.546Z" fill="#2A2929"/>
<path d="M157.396 95.7437H154.918V98.2228H157.396V95.7437Z" fill="#2A2929"/>
<path d="M133.804 62.2297H121.411V74.6244H133.804V62.2297ZM131.945 72.7602H123.27V64.0827H131.945V72.7602Z" fill="#2A2929"/>
<path d="M130.086 65.9479H125.129V70.9062H130.086V65.9479Z" fill="#2A2929"/>
<path d="M156.106 62.2297V74.6244H168.498V62.2297H156.106ZM166.634 72.7602H157.959V64.0827H166.634V72.7602Z" fill="#2A2929"/>
<path d="M164.785 65.9479H159.828V70.9062H164.785V65.9479Z" fill="#2A2929"/>
<path d="M121.411 109.363H133.804V96.9669H121.411V109.363ZM123.27 98.8322H131.945V107.509H123.27V98.8322Z" fill="#2A2929"/>
<path d="M130.086 100.686H125.129V105.645H130.086V100.686Z" fill="#2A2929"/>
<path d="M131.325 91.9784H128.847V94.4575H131.325V91.9784Z" fill="#2A2929"/>
<path d="M135.799 58.5754H119.444H117.716V60.3051V76.6633H119.444V60.3051H135.799V58.5754Z" fill="#2A2929"/>
<path d="M135.799 113.418H119.444H117.716V111.688V95.3302H119.444V111.688H135.799V113.418Z" fill="#2A2929"/>
<path d="M153.877 58.5754H170.232H171.96V60.3051V76.6633H170.232V60.3051H153.877V58.5754Z" fill="#2A2929"/>
<path d="M153.877 113.418H170.232H171.96V111.688V95.3302H170.232V111.688H153.877V113.418Z" fill="#2A2929"/>
<path d="M121.077 255.761C121.077 255.761 112.229 254.164 102.389 251.434C88.3626 247.543 72.3054 241.351 76.9276 234.188C84.7932 222.006 82.7638 197.134 78.1966 185.967C73.6293 174.799 71.6581 153.862 75.2107 145.571C78.7633 137.28 85.5291 92.4399 86.0364 85.333C86.5438 78.226 97.7089 81.7795 97.7089 81.7795C99.4957 83.1901 101.061 84.8611 102.351 86.7367C110.303 98.4087 104.539 115.097 102.558 131.401C100.28 150.181 122.092 172.261 129.705 194.596C137.317 216.931 121.077 255.761 121.077 255.761Z" fill="#F7ABA5"/>
<path d="M102.389 251.434C88.3626 247.543 72.3054 241.351 76.9276 234.188C84.7932 222.006 82.7638 197.134 78.1966 185.967C73.6293 174.799 71.6581 153.862 75.2107 145.571C78.7633 137.28 85.5291 92.4399 86.0364 85.333C86.5438 78.226 97.7089 81.7795 97.7089 81.7795C99.4957 83.1901 101.061 84.8611 102.351 86.7367C97.6786 86.9966 92.7507 88.9436 92.2893 95.8691C91.3933 109.319 85.3006 145.105 82.2554 152.465C79.2101 159.825 91.1368 191.29 96.5912 200.429C100.973 207.767 106.481 234.848 102.389 251.434Z" fill="white"/>
<path d="M100.443 251.899C100.347 251.898 100.252 251.885 100.161 251.858C93.8349 250.028 88.618 248.123 84.6588 246.219C79.4431 243.703 76.4315 241.202 75.4492 238.576C74.8265 236.91 75.0371 235.248 76.0753 233.639C81.8152 224.75 82.1534 208.418 79.9426 196.174C79.9188 196.043 79.9212 195.909 79.9495 195.778C79.9778 195.648 80.0315 195.524 80.1076 195.415C80.1836 195.305 80.2805 195.212 80.3926 195.14C80.5048 195.068 80.6301 195.018 80.7613 194.995C80.8925 194.971 81.0271 194.973 81.1574 195.002C81.2877 195.03 81.4111 195.084 81.5207 195.16C81.6302 195.236 81.7236 195.333 81.7957 195.445C81.8678 195.557 81.917 195.682 81.9406 195.814C83.1491 202.506 83.5344 209.79 83.0248 216.322C82.4267 223.984 80.6135 230.353 77.781 234.741C77.1001 235.796 76.959 236.818 77.351 237.865C77.8863 239.298 79.7421 241.592 85.5403 244.391C89.3986 246.253 94.508 248.109 100.728 249.91C100.857 249.947 100.977 250.008 101.081 250.091C101.186 250.174 101.273 250.277 101.337 250.394C101.401 250.511 101.442 250.639 101.456 250.772C101.471 250.905 101.458 251.039 101.42 251.167C101.359 251.379 101.23 251.565 101.054 251.696C100.878 251.828 100.663 251.899 100.443 251.899Z" fill="#2A2929"/>
<path d="M131.074 219.722C131.032 219.722 130.99 219.719 130.948 219.715C130.815 219.698 130.688 219.656 130.572 219.59C130.456 219.524 130.354 219.436 130.272 219.33C130.19 219.225 130.13 219.105 130.095 218.976C130.059 218.848 130.05 218.713 130.066 218.581C131.261 208.966 130.817 201.006 128.744 194.923C125.783 186.239 120.6 177.506 115.588 169.062C107.636 155.667 100.133 143.014 101.553 131.278C102.001 127.593 102.644 123.859 103.267 120.248C105.809 105.526 108.21 91.6166 97.2195 82.6925C95.3782 82.1436 90.6956 81.2149 88.4164 82.762C87.5798 83.33 87.1307 84.1948 87.0444 85.4047C86.7924 88.9335 85.0116 101.738 82.7616 115.175C81.188 124.577 78.2346 141.08 76.1391 145.97C73.7558 151.533 73.8152 164.094 76.2791 175.84C76.3345 176.104 76.283 176.378 76.136 176.604C75.989 176.829 75.7585 176.987 75.4952 177.043C75.2318 177.098 74.9573 177.046 74.7319 176.899C74.5066 176.752 74.3488 176.522 74.2934 176.258C73.1186 170.657 72.4354 164.543 72.3704 159.034C72.3211 154.851 72.6112 149.05 74.2744 145.172C75.7438 141.742 78.1081 130.687 80.7613 114.841C83.0013 101.46 84.772 88.7386 85.0172 85.2658C85.1494 83.4196 85.9132 82.017 87.2762 81.0861C90.9319 78.6069 97.7223 80.7265 98.0102 80.8172C98.1285 80.8553 98.2389 80.9145 98.3361 80.992C101.257 83.3277 103.408 86.0119 104.914 89.1968C106.252 92.0311 107.042 95.1981 107.325 98.877C107.846 105.623 106.59 112.898 105.261 120.6C104.642 124.185 104.002 127.893 103.561 131.528C102.217 142.579 109.558 154.942 117.328 168.031C122.392 176.565 127.631 185.389 130.655 194.273C132.828 200.65 133.304 208.914 132.07 218.837C132.039 219.08 131.921 219.304 131.738 219.466C131.555 219.629 131.319 219.72 131.074 219.722Z" fill="#2A2929"/>
<path d="M150.319 249.294L150.101 250.82L143.553 296.671L76.9802 285.049L65.0155 282.959L53.0182 280.867L50.5128 280.427L53.6902 272.861L57.7177 263.265L61.735 253.694L65.7647 244.098L69.7821 234.528L73.3851 225.943L82.3237 228.657L92.2893 231.681L102.282 234.714L112.249 237.739L122.241 240.771L132.207 243.797L142.199 246.831L150.319 249.294Z" fill="#4EC0C7"/>
<path d="M92.2893 231.681L65.7647 244.098L69.7821 234.528L82.3237 228.656L92.2893 231.681Z" fill="#2A2929"/>
<path d="M112.249 237.738L57.7177 263.265L61.7351 253.694L102.282 234.714L112.249 237.738Z" fill="#2A2929"/>
<path d="M132.207 243.797L53.0182 280.867L50.5128 280.427L53.6902 272.861L122.241 240.771L132.207 243.797Z" fill="#2A2929"/>
<path d="M150.319 249.294L150.101 250.82L76.9802 285.048L65.0155 282.959L142.199 246.831L150.319 249.294Z" fill="#2A2929"/>
<path d="M119.649 284.215L113.852 286.577L119.722 300.994L125.519 298.632L119.649 284.215Z" fill="#2A2929"/>
<path d="M217.186 212.611C217.364 213.146 217.322 213.729 217.07 214.233C216.818 214.737 216.377 215.121 215.842 215.3C215.308 215.477 214.725 215.435 214.221 215.183C213.717 214.931 213.333 214.49 213.154 213.955C212.977 213.42 213.019 212.837 213.271 212.333C213.523 211.829 213.964 211.446 214.498 211.267C215.033 211.089 215.616 211.131 216.12 211.383C216.624 211.635 217.008 212.077 217.186 212.611Z" fill="#2A2929"/>
<path d="M227.146 211.413C228.321 211.413 229.273 210.461 229.273 209.286C229.273 208.111 228.321 207.159 227.146 207.159C225.972 207.159 225.02 208.111 225.02 209.286C225.02 210.461 225.972 211.413 227.146 211.413Z" fill="#2A2929"/>
<path d="M240.008 207.216C241.072 206.717 241.529 205.451 241.031 204.387C240.532 203.323 239.265 202.865 238.202 203.364C237.138 203.863 236.681 205.13 237.18 206.194C237.678 207.258 238.945 207.715 240.008 207.216Z" fill="#2A2929"/>
<path d="M251.462 203.411C252.622 203.222 253.409 202.13 253.22 200.97C253.032 199.81 251.939 199.023 250.78 199.211C249.62 199.4 248.833 200.493 249.022 201.652C249.21 202.812 250.303 203.599 251.462 203.411Z" fill="#2A2929"/>
<path d="M220.323 225.73C221.153 224.9 221.153 223.553 220.323 222.722C219.492 221.891 218.146 221.891 217.315 222.722C216.484 223.553 216.484 224.9 217.315 225.73C218.146 226.561 219.492 226.561 220.323 225.73Z" fill="#2A2929"/>
<path d="M232.812 220.863C233.152 219.738 232.517 218.551 231.393 218.21C230.268 217.87 229.081 218.505 228.741 219.629C228.4 220.754 229.035 221.942 230.16 222.282C231.284 222.623 232.471 221.987 232.812 220.863Z" fill="#2A2929"/>
<path d="M244.69 217.182C245.215 216.131 244.789 214.853 243.738 214.327C242.687 213.802 241.41 214.228 240.885 215.279C240.36 216.33 240.785 217.608 241.836 218.133C242.887 218.659 244.164 218.233 244.69 217.182Z" fill="#2A2929"/>
<path d="M255.171 214.316C256.32 214.068 257.05 212.936 256.802 211.787C256.554 210.639 255.422 209.909 254.274 210.157C253.126 210.405 252.396 211.537 252.644 212.685C252.892 213.834 254.023 214.564 255.171 214.316Z" fill="#2A2929"/>
<path d="M223.086 237.209C224.21 236.868 224.845 235.681 224.505 234.556C224.164 233.432 222.976 232.797 221.852 233.137C220.728 233.478 220.093 234.666 220.434 235.79C220.774 236.915 221.962 237.55 223.086 237.209Z" fill="#2A2929"/>
<path d="M235.947 232.684C236.777 231.853 236.777 230.506 235.947 229.675C235.116 228.844 233.769 228.844 232.939 229.675C232.108 230.506 232.108 231.853 232.939 232.684C233.769 233.515 235.116 233.515 235.947 232.684Z" fill="#2A2929"/>
<path d="M246.501 229.3C247.674 229.244 248.58 228.248 248.524 227.074C248.469 225.9 247.473 224.994 246.299 225.05C245.126 225.105 244.22 226.102 244.276 227.275C244.331 228.449 245.327 229.355 246.501 229.3Z" fill="#2A2929"/>
<path d="M260.313 224.133C260.838 223.082 260.412 221.804 259.361 221.279C258.311 220.754 257.033 221.18 256.508 222.231C255.983 223.281 256.409 224.559 257.459 225.085C258.51 225.61 259.788 225.184 260.313 224.133Z" fill="#2A2929"/>
<path d="M226.483 248.232C227.642 248.043 228.43 246.95 228.241 245.791C228.053 244.631 226.96 243.843 225.801 244.032C224.641 244.22 223.854 245.313 224.043 246.473C224.231 247.633 225.324 248.42 226.483 248.232Z" fill="#2A2929"/>
<path d="M238.171 244.239C239.344 244.184 240.251 243.187 240.195 242.014C240.139 240.84 239.143 239.934 237.97 239.989C236.797 240.045 235.89 241.041 235.946 242.215C236.002 243.388 236.998 244.295 238.171 244.239Z" fill="#2A2929"/>
<path d="M251.57 239.636C252.4 238.806 252.4 237.459 251.57 236.628C250.739 235.797 249.393 235.797 248.562 236.628C247.731 237.459 247.731 238.806 248.562 239.636C249.393 240.467 250.739 240.467 251.57 239.636Z" fill="#2A2929"/>
<path d="M263.084 236.007C264.116 235.445 264.497 234.154 263.935 233.122C263.373 232.09 262.082 231.709 261.05 232.271C260.019 232.833 259.638 234.125 260.199 235.156C260.761 236.188 262.053 236.569 263.084 236.007Z" fill="#2A2929"/>
<path d="M230.17 259.293C231.33 259.105 232.117 258.012 231.928 256.852C231.74 255.692 230.647 254.905 229.488 255.094C228.329 255.282 227.541 256.375 227.73 257.535C227.918 258.694 229.011 259.482 230.17 259.293Z" fill="#2A2929"/>
<path d="M241.857 255.301C243.03 255.245 243.937 254.249 243.881 253.075C243.825 251.902 242.829 250.995 241.656 251.051C240.483 251.107 239.577 252.103 239.632 253.277C239.688 254.45 240.684 255.357 241.857 255.301Z" fill="#2A2929"/>
<path d="M253.754 251.322C254.928 251.322 255.881 250.369 255.881 249.194C255.881 248.019 254.928 247.067 253.754 247.067C252.579 247.067 251.627 248.019 251.627 249.194C251.627 250.369 252.579 251.322 253.754 251.322Z" fill="#2A2929"/>
<path d="M266.772 247.069C267.804 246.507 268.185 245.215 267.623 244.183C267.061 243.152 265.77 242.771 264.738 243.332C263.706 243.894 263.325 245.186 263.887 246.218C264.449 247.25 265.741 247.631 266.772 247.069Z" fill="#2A2929"/>
<path d="M235.548 268.379C235.676 267.211 234.833 266.161 233.665 266.033C232.498 265.905 231.447 266.748 231.319 267.916C231.192 269.084 232.035 270.134 233.202 270.262C234.37 270.39 235.42 269.547 235.548 268.379Z" fill="#2A2929"/>
<path d="M246.93 265.638C247.76 264.807 247.76 263.46 246.93 262.629C246.099 261.799 244.753 261.799 243.922 262.629C243.091 263.46 243.091 264.807 243.922 265.638C244.753 266.469 246.099 266.469 246.93 265.638Z" fill="#2A2929"/>
<path d="M257.482 262.255C258.655 262.199 259.561 261.203 259.506 260.029C259.45 258.856 258.454 257.949 257.281 258.005C256.107 258.061 255.201 259.057 255.257 260.231C255.312 261.404 256.309 262.311 257.482 262.255Z" fill="#2A2929"/>
<path d="M270.262 258.072C271.325 257.573 271.783 256.306 271.284 255.242C270.785 254.179 269.519 253.721 268.455 254.22C267.392 254.719 266.934 255.986 267.433 257.049C267.932 258.113 269.198 258.571 270.262 258.072Z" fill="#2A2929"/>
<path d="M25.1071 162.947L42.6864 152.212L50.1444 184.441L25.1071 162.947Z" fill="#2A2929"/>
<path d="M267.075 57.8809L251.033 79.4791L257.027 83.9333L273.069 62.335L267.075 57.8809Z" fill="#4EC0C7"/>
</g>
<defs>
<clipPath id="clip0_402_424">
<rect width="279" height="301" fill="white" transform="translate(0.5)"/>
</clipPath>
</defs>
</svg>
