<svg width="48" height="48" viewBox="0 0 48 48" fill="none" xmlns="http://www.w3.org/2000/svg">
<g id="icon">
<path id="Vector" d="M22.76 9.08005H36.52C37.0552 9.04135 37.5925 9.11828 38.0953 9.30561C38.5982 9.49294 39.0548 9.78629 39.4343 10.1657C39.8137 10.5452 40.1071 11.0018 40.2944 11.5047C40.4818 12.0076 40.5587 12.5448 40.52 13.0801C40.52 16.8201 40.52 20.5801 40.52 24.3201C40.52 24.7401 40.64 24.9001 41.04 24.9401C42 24.9401 43.04 25.1801 43.94 25.2601C44.84 25.3401 44.98 25.5201 44.98 26.3801C44.98 27.9601 44.98 29.5601 44.98 31.1401C44.9476 33.1913 44.2492 35.1764 42.9902 36.7962C41.7312 38.4159 39.9798 39.5825 38 40.1201C37.7637 40.1802 37.5162 40.1802 37.28 40.1201C35.8831 39.7622 34.5886 39.0845 33.4987 38.1403C32.4088 37.1962 31.5534 36.0116 31 34.6801C30.9625 34.5443 30.8769 34.4268 30.7591 34.3495C30.6413 34.2722 30.4995 34.2404 30.36 34.2601H8.99997C8.46475 34.2988 7.92747 34.2218 7.42462 34.0345C6.92176 33.8472 6.4651 33.5538 6.08566 33.1744C5.70621 32.7949 5.41286 32.3383 5.22553 31.8354C5.0382 31.3326 4.96127 30.7953 4.99997 30.2601V13.1001C4.96127 12.5648 5.0382 12.0276 5.22553 11.5247C5.41286 11.0218 5.70621 10.5652 6.08566 10.1857C6.4651 9.80629 6.92176 9.51294 7.42462 9.32561C7.92747 9.13828 8.46475 9.06135 8.99997 9.10005L22.76 9.08005ZM39.02 21.7201H6.43997V30.3601C6.40863 30.69 6.4509 31.0228 6.56374 31.3345C6.67657 31.6461 6.85717 31.9289 7.09249 32.1623C7.32782 32.3957 7.61201 32.574 7.92457 32.6842C8.23713 32.7945 8.57028 32.8341 8.89997 32.8001H30.18V26.1201H28C27.8954 26.134 27.7891 26.1261 27.6877 26.0967C27.5864 26.0674 27.4923 26.0172 27.4114 25.9495C27.3305 25.8818 27.2646 25.7979 27.2178 25.7033C27.1711 25.6087 27.1446 25.5055 27.14 25.4001C27.14 24.9601 27.46 24.6601 28 24.6401H30.42C30.96 24.6401 31.44 24.6401 31.62 25.3201C32.48 25.1801 33.32 25.0801 34.12 24.9001C34.92 24.7201 36.12 24.3801 36.96 24.0601C37.1397 23.9813 37.3338 23.9406 37.53 23.9406C37.7262 23.9406 37.9203 23.9813 38.1 24.0601C38.384 24.1907 38.6784 24.2977 38.98 24.3801L39.02 21.7201ZM39.02 15.7201V13.1001C39.0621 12.759 39.0259 12.4129 38.9142 12.088C38.8024 11.7631 38.618 11.4679 38.3751 11.2249C38.1321 10.982 37.837 10.7976 37.512 10.6859C37.1871 10.5741 36.841 10.5379 36.5 10.5801H8.71997C8.15881 10.5526 7.60937 10.747 7.19028 11.1212C6.77119 11.4954 6.51606 12.0194 6.47997 12.5801C6.47997 13.6601 6.47997 14.7401 6.47997 15.8401L39.02 15.7201ZM43.48 26.7801C41.5217 26.6571 39.5933 26.2391 37.76 25.5401C37.5781 25.4805 37.3819 25.4805 37.2 25.5401C36.16 25.8201 35.2 26.1401 34.08 26.3801C32.96 26.6201 32.46 26.6401 31.6 26.7801C31.6 28.2401 31.6 29.6801 31.6 31.1201C31.6427 32.7727 32.1964 34.3715 33.1848 35.6966C34.1733 37.0218 35.548 38.0081 37.12 38.5201C37.3927 38.6101 37.6872 38.6101 37.96 38.5201C39.1707 38.1368 40.2688 37.4622 41.158 36.5556C42.0472 35.6489 42.7003 34.5379 43.06 33.3201C43.4759 31.1733 43.6237 28.9832 43.5 26.8001L43.48 26.7801ZM39.02 17.2801H6.47997V20.1601H39.02V17.2801Z" fill="#FF8049"/>
<path id="Vector_2" d="M14.5999 24.64H18.8599C19.5199 24.64 19.7799 24.9 19.7799 25.58V29.58C19.7799 30.24 19.5199 30.5 18.8599 30.52H10.3399C9.67992 30.52 9.41992 30.24 9.41992 29.58C9.41992 28.22 9.41992 26.86 9.41992 25.58C9.41992 24.9 9.65992 24.64 10.3399 24.64H14.5999ZM18.2799 26.16H10.9199V29.06H18.2799V26.16Z" fill="#FF8049"/>
<path id="Vector_3" d="M23.4602 26.1199H22.0002C21.8998 26.1281 21.7987 26.1157 21.7032 26.0835C21.6077 26.0513 21.5199 25.9999 21.445 25.9324C21.3701 25.865 21.3097 25.783 21.2676 25.6915C21.2255 25.5999 21.2026 25.5007 21.2002 25.3999C21.1999 25.2949 21.2213 25.1909 21.2632 25.0945C21.3051 24.9982 21.3665 24.9116 21.4436 24.8402C21.5206 24.7688 21.6117 24.7141 21.7109 24.6796C21.8101 24.6452 21.9155 24.6317 22.0202 24.6399H24.8402C25.0365 24.6399 25.2247 24.7179 25.3635 24.8567C25.5022 24.9955 25.5802 25.1837 25.5802 25.3799C25.5802 25.5762 25.5022 25.7644 25.3635 25.9032C25.2247 26.042 25.0365 26.1199 24.8402 26.1199H23.4202H23.4602Z" fill="#FF8049"/>
<path id="Vector_4" d="M41.6598 29.52C41.5587 29.7182 41.4381 29.9058 41.2998 30.08L37.4198 34C37.3558 34.0844 37.2749 34.1544 37.1823 34.2057C37.0897 34.2569 36.9873 34.2883 36.8819 34.2977C36.7765 34.3071 36.6702 34.2944 36.57 34.2603C36.4697 34.2263 36.3777 34.1717 36.2998 34.1L34.2998 32.74C34.2081 32.6925 34.1274 32.6263 34.0628 32.5457C33.9983 32.4651 33.9513 32.3719 33.9249 32.2721C33.8986 32.1722 33.8934 32.068 33.9097 31.966C33.926 31.864 33.9635 31.7666 34.0198 31.68C34.0735 31.5909 34.1458 31.5144 34.2319 31.4559C34.3179 31.3974 34.4156 31.3582 34.5183 31.3411C34.6209 31.324 34.7261 31.3294 34.8265 31.3568C34.9269 31.3842 35.0201 31.4331 35.0998 31.5C35.5598 31.8 36.0198 32.08 36.4398 32.4C36.8598 32.72 36.8398 32.54 37.0198 32.4L40.2998 29.12C40.7398 28.68 41.2798 28.7 41.5398 29.12C41.5993 29.2467 41.6397 29.3815 41.6598 29.52Z" fill="#FF8049"/>
</g>
</svg>
