<svg width="48" height="48" viewBox="0 0 48 48" fill="none" xmlns="http://www.w3.org/2000/svg">
<g id="icon">
<path id="Vector" d="M22.4798 43.64H22.2998L21.6998 43.44C21.0448 43.1642 20.4963 42.6843 20.1359 42.0717C19.7755 41.4591 19.6226 40.7465 19.6998 40.04C19.793 39.3252 20.1136 38.6594 20.6141 38.1408C21.1147 37.6222 21.7688 37.2783 22.4798 37.16H22.9798C23.6143 37.1691 24.2324 37.3632 24.7582 37.7184C25.284 38.0737 25.6946 38.5747 25.9398 39.16C26.0138 39.3474 26.1437 39.5075 26.3119 39.6185C26.4801 39.7294 26.6784 39.7858 26.8798 39.78H27.2198C28.4285 39.8292 29.6357 39.6529 30.7798 39.26C32.3212 38.6888 33.6492 37.6567 34.5832 36.304C35.5172 34.9513 36.0118 33.3437 35.9998 31.7C35.9998 27.54 35.9998 23.1 35.9998 18.7C35.9455 15.6685 34.835 12.751 32.8597 10.4508C30.8844 8.15053 28.1683 6.61179 25.1798 6.09996C24.438 5.99536 23.688 5.96187 22.9398 5.99996C19.8835 6.00913 16.9276 7.09154 14.5881 9.05818C12.2486 11.0248 10.6742 13.7507 10.1398 16.76C10.0279 17.5884 9.98111 18.4242 9.99982 19.26C9.99982 22.12 9.99982 24.98 9.99982 27.84V31.26C9.99982 32.08 9.77982 32.32 8.97982 32.32H4.45982C3.81982 32.32 3.51982 32.14 3.31982 31.68V18.68C3.42053 18.5102 3.56922 18.374 3.74717 18.2886C3.92512 18.2032 4.12438 18.1723 4.31982 18.2H8.25982L8.51982 16.88C8.62001 16.2039 8.76703 15.5356 8.95982 14.88C9.6765 12.3632 11.0636 10.0884 12.9729 8.2989C14.8822 6.50937 17.2419 5.27231 19.7998 4.71996C20.2998 4.59996 20.7798 4.53996 21.2798 4.45996H21.9998H23.9998H24.4398L25.4598 4.61996C28.2612 5.09081 30.8623 6.37525 32.9391 8.31339C35.0159 10.2515 36.4768 12.7577 37.1398 15.52C37.2798 16.04 37.3598 16.58 37.4598 17.12L37.6398 18.24H41.6398C42.3198 18.24 42.5998 18.5 42.5998 19.18V31.4C42.5998 32.1 42.3198 32.36 41.6198 32.36H37.6198L37.4798 33.04C37.2256 34.8241 36.4648 36.4979 35.2879 37.8627C34.111 39.2276 32.5672 40.2261 30.8398 40.74C29.812 41.0641 28.737 41.2128 27.6598 41.18H26.9398C26.7363 41.1621 26.5326 41.211 26.3594 41.3192C26.1862 41.4275 26.0529 41.5892 25.9798 41.78C25.8205 42.1554 25.5882 42.4955 25.2963 42.7805C25.0045 43.0655 24.659 43.2896 24.2798 43.44L23.7198 43.64H23.4998H22.4798ZM22.9598 38.62C22.6149 38.616 22.2765 38.7147 21.9877 38.9034C21.699 39.0922 21.4729 39.3625 21.3381 39.6801C21.2033 39.9977 21.166 40.3482 21.2309 40.687C21.2957 41.0258 21.4598 41.3377 21.7024 41.5831C21.9449 41.8284 22.2549 41.9961 22.5929 42.0649C22.931 42.1337 23.2819 42.1004 23.601 41.9693C23.9201 41.8382 24.193 41.6153 24.3851 41.3287C24.5772 41.0421 24.6798 40.7049 24.6798 40.36C24.6825 40.1324 24.6399 39.9066 24.5547 39.6956C24.4694 39.4846 24.3432 39.2926 24.1832 39.1308C24.0232 38.9689 23.8327 38.8405 23.6227 38.7528C23.4127 38.6651 23.1874 38.6199 22.9598 38.62ZM37.5598 30.74H40.9798V19.78H37.5598V30.74ZM4.91982 30.74H8.33982V19.78H4.91982V30.74Z" fill="#FF8049"/>
<path id="Vector_2" d="M14.2799 31.06C14.1561 31.0691 14.0318 31.0524 13.9148 31.0111C13.7978 30.9698 13.6905 30.9048 13.5999 30.82C13.4463 30.6131 13.375 30.3565 13.3999 30.1C13.4497 29.1111 13.8796 28.1796 14.5999 27.5L15.9999 26L19.2999 22.8C19.4476 22.6754 19.5576 22.5121 19.6177 22.3284C19.6777 22.1447 19.6854 21.9479 19.6399 21.76C19.5416 21.1914 19.2385 20.6785 18.7877 20.3182C18.3369 19.958 17.7697 19.7753 17.1934 19.8049C16.6172 19.8345 16.0717 20.0741 15.6601 20.4786C15.2485 20.8831 14.9994 21.4243 14.9599 22V22.28C14.9365 22.4624 14.8494 22.6307 14.714 22.7551C14.5786 22.8795 14.4036 22.9521 14.2199 22.96C14.0112 22.9548 13.8128 22.8682 13.6671 22.7188C13.5213 22.5693 13.4398 22.3688 13.4399 22.16C13.4417 21.264 13.7442 20.3946 14.2991 19.691C14.8539 18.9875 15.6289 18.4906 16.4999 18.28C16.7662 18.2603 17.0336 18.2603 17.2999 18.28C18.3204 18.2782 19.3031 18.6665 20.0467 19.3655C20.7903 20.0645 21.2386 21.0213 21.2999 22.04C21.3365 22.3754 21.2941 22.7148 21.176 23.0308C21.058 23.3469 20.8675 23.6309 20.6199 23.86C19.3999 24.84 18.2999 26 17.1999 27.08L15.4799 28.84L14.8199 29.52H20.3199C20.8599 29.52 21.2199 29.82 21.2199 30.28C21.2227 30.3757 21.2065 30.4709 21.1722 30.5602C21.1379 30.6494 21.0861 30.731 21.0199 30.8C20.8361 30.9726 20.5919 31.066 20.3399 31.06H14.3399H14.2799Z" fill="#FF8049"/>
<path id="Vector_3" d="M31.0801 31.06C30.9758 31.055 30.8736 31.0291 30.7795 30.9838C30.6854 30.9385 30.6014 30.8749 30.5324 30.7965C30.4634 30.7182 30.4108 30.6268 30.3778 30.5278C30.3447 30.4287 30.3319 30.3241 30.3401 30.22C30.3401 29.74 30.3401 29.26 30.3401 28.78V27.48L29.9401 27.28H25.0001C24.8669 27.2915 24.7329 27.2761 24.6058 27.2349C24.4787 27.1937 24.3611 27.1274 24.2601 27.04C24.0966 26.8226 24.0248 26.5498 24.0601 26.28C24.1384 25.3356 24.5495 24.4496 25.2201 23.78L30.5001 18.5C30.5733 18.4105 30.6646 18.3376 30.768 18.2858C30.8714 18.2341 30.9846 18.2049 31.1001 18.2C31.1993 18.1828 31.3008 18.1828 31.4001 18.2C31.5592 18.2647 31.6925 18.3802 31.7793 18.5285C31.8661 18.6768 31.9015 18.8495 31.8801 19.02V25.6H32.1801C33.0601 25.82 33.1401 26.16 33.1401 26.44C33.1401 26.72 33.0201 27.08 32.2001 27.26H31.8801V30.12C31.8856 30.2248 31.8694 30.3297 31.8325 30.4279C31.7955 30.5262 31.7386 30.6157 31.6653 30.6909C31.592 30.766 31.504 30.8252 31.4067 30.8646C31.3094 30.9041 31.205 30.9229 31.1001 30.92L31.0801 31.06ZM25.6401 25.72H30.3001V21.06L25.6401 25.72Z" fill="#FF8049"/>
</g>
</svg>
