<svg width="222" height="95" viewBox="0 0 222 95" fill="none" xmlns="http://www.w3.org/2000/svg">
<g id="logo-3">
<path id="Vector" d="M95.2669 56.2114C94.5161 56.2519 93.7736 56.0397 93.159 55.6092C92.9022 55.42 92.6956 55.1714 92.557 54.8851C92.4185 54.5987 92.3522 54.2831 92.3638 53.9656V42.3348C92.3577 42.2856 92.3629 42.2356 92.3791 42.1887C92.3954 42.1418 92.4222 42.0991 92.4574 42.064C92.4927 42.029 92.5356 42.0023 92.5828 41.9862C92.63 41.9701 92.6803 41.9649 92.7299 41.971H94.8503C95.0902 41.971 95.2037 42.0965 95.2037 42.3348V53.0622C95.2037 53.539 95.4183 53.7774 95.8601 53.7774C96.0474 53.7851 96.2347 53.7639 96.4155 53.7146C96.6679 53.7146 96.8067 53.7899 96.8194 54.0158L97.0087 55.5841C97.0178 55.6298 97.0169 55.677 97.0061 55.7223C96.9954 55.7677 96.9749 55.8102 96.9462 55.8471C96.9175 55.8839 96.8812 55.9142 96.8397 55.936C96.7982 55.9577 96.7526 55.9703 96.7057 55.973C96.2413 56.1255 95.756 56.2059 95.2669 56.2114Z" fill="#1E1B1B"/>
<path id="Vector_2" d="M107.194 54.8691C106.129 55.7442 104.79 56.2229 103.408 56.2229C102.026 56.2229 100.687 55.7442 99.6211 54.8691C98.6846 53.9294 98.1592 52.66 98.1592 51.3372C98.1592 50.0145 98.6846 48.7451 99.6211 47.8054C100.689 46.9348 102.027 46.459 103.408 46.459C104.788 46.459 106.127 46.9348 107.194 47.8054C108.109 48.7538 108.62 50.017 108.62 51.331C108.62 52.645 108.109 53.9082 107.194 54.8566V54.8691ZM101.615 53.213C102.11 53.6582 102.753 53.9048 103.42 53.9048C104.087 53.9048 104.731 53.6582 105.225 53.213C105.673 52.7015 105.919 52.0465 105.919 51.3686C105.919 50.6908 105.673 50.0357 105.225 49.5243C104.731 49.079 104.087 48.8324 103.42 48.8324C102.753 48.8324 102.11 49.079 101.615 49.5243C101.168 50.0357 100.921 50.6908 100.921 51.3686C100.921 52.0465 101.168 52.7015 101.615 53.213Z" fill="#1E1B1B"/>
<path id="Vector_3" d="M120.296 46.7763C120.535 46.7763 120.649 46.9018 120.649 47.1402V56.1361C120.671 56.7433 120.557 57.3477 120.314 57.9055C120.072 58.4632 119.708 58.9603 119.248 59.3606C118.227 60.2256 116.915 60.674 115.575 60.6153C114.365 60.6576 113.171 60.3291 112.155 59.6743C111.721 59.391 111.35 59.0221 111.065 58.5904C110.781 58.1587 110.589 57.6735 110.501 57.1649C110.501 56.914 110.501 56.8011 110.842 56.8011H112.962C113.052 56.8041 113.14 56.833 113.213 56.8842C113.287 56.9354 113.345 57.0068 113.379 57.0897C113.516 57.4707 113.791 57.7879 114.149 57.9805C114.585 58.2044 115.071 58.3165 115.562 58.3067C115.859 58.3228 116.155 58.2801 116.435 58.181C116.715 58.0819 116.971 57.9284 117.191 57.7295C117.391 57.5215 117.547 57.2752 117.649 57.0057C117.751 56.7362 117.797 56.4489 117.784 56.1612V55.3708C117.025 55.9259 116.101 56.2129 115.159 56.1863C114.499 56.2101 113.842 56.1013 113.226 55.8663C112.61 55.6313 112.048 55.2749 111.574 54.8187C110.664 53.8829 110.155 52.6323 110.155 51.3307C110.155 50.0292 110.664 48.7786 111.574 47.8428C112.05 47.3906 112.613 47.0377 113.228 46.805C113.844 46.5723 114.5 46.4644 115.159 46.4877C116.128 46.4623 117.077 46.7678 117.847 47.3535V47.1527C117.841 47.1046 117.846 47.0559 117.862 47.01C117.877 46.9641 117.903 46.9222 117.937 46.8873C117.971 46.8525 118.012 46.8256 118.057 46.8085C118.103 46.7915 118.152 46.7848 118.2 46.7889L120.296 46.7763ZM115.398 53.953C115.724 53.963 116.047 53.9019 116.346 53.774C116.645 53.6461 116.911 53.4545 117.128 53.2127C117.547 52.6741 117.775 52.0121 117.775 51.3307C117.775 50.6494 117.547 49.9874 117.128 49.4487C116.912 49.2103 116.647 49.0216 116.35 48.8958C116.054 48.7701 115.733 48.7105 115.411 48.721C115.082 48.7108 114.755 48.7716 114.452 48.8994C114.149 49.0273 113.878 49.219 113.657 49.4613C113.192 49.9766 112.947 50.6517 112.975 51.3433C112.952 52.0281 113.191 52.6961 113.644 53.2127C113.866 53.4544 114.137 53.6457 114.44 53.7734C114.743 53.9012 115.07 53.9624 115.398 53.953Z" fill="#1E1B1B"/>
<path id="Vector_4" d="M131.542 54.8689C130.474 55.7395 129.136 56.2153 127.755 56.2153C126.375 56.2153 125.036 55.7395 123.969 54.8689C123.053 53.9183 122.542 52.6531 122.542 51.337C122.542 50.0209 123.053 48.7556 123.969 47.8051C125.037 46.9368 126.375 46.4624 127.755 46.4624C129.136 46.4624 130.473 46.9368 131.542 47.8051C132.457 48.7535 132.968 50.0167 132.968 51.3307C132.968 52.6447 132.457 53.9079 131.542 54.8563V54.8689ZM125.951 53.2127C126.193 53.4415 126.478 53.6204 126.79 53.7388C127.102 53.8573 127.434 53.913 127.768 53.9028C128.1 53.9113 128.43 53.8548 128.74 53.7364C129.049 53.618 129.333 53.44 129.573 53.2127C130.013 52.6978 130.255 52.0441 130.255 51.3684C130.255 50.6926 130.013 50.0389 129.573 49.524C129.333 49.2967 129.049 49.1188 128.74 49.0004C128.43 48.8819 128.1 48.8254 127.768 48.8339C127.434 48.8237 127.102 48.8795 126.79 48.9979C126.478 49.1164 126.193 49.2952 125.951 49.524C125.51 50.0389 125.269 50.6926 125.269 51.3684C125.269 52.0441 125.51 52.6978 125.951 53.2127Z" fill="#1E1B1B"/>
<path id="Vector_5" d="M137.525 44.6436C137.191 44.9339 136.763 45.0939 136.319 45.0939C135.876 45.0939 135.447 44.9339 135.114 44.6436C134.963 44.5017 134.842 44.3306 134.76 44.1407C134.677 43.9508 134.635 43.7463 134.635 43.5395C134.635 43.3327 134.677 43.1281 134.76 42.9383C134.842 42.7484 134.963 42.5773 135.114 42.4354C135.451 42.1523 135.878 41.9971 136.319 41.9971C136.76 41.9971 137.187 42.1523 137.525 42.4354C137.676 42.5773 137.796 42.7484 137.879 42.9383C137.961 43.1281 138.004 43.3327 138.004 43.5395C138.004 43.7463 137.961 43.9508 137.879 44.1407C137.796 44.3306 137.676 44.5017 137.525 44.6436ZM137.79 56.2116C137.039 56.2482 136.298 56.0364 135.682 55.6094C135.429 55.4173 135.226 55.168 135.09 54.882C134.954 54.5961 134.888 54.2819 134.899 53.9658V47.1404C134.893 47.0911 134.898 47.0412 134.915 46.9942C134.931 46.9473 134.958 46.9047 134.993 46.8696C135.028 46.8345 135.071 46.8079 135.118 46.7918C135.165 46.7756 135.216 46.7704 135.265 46.7765H137.386C137.626 46.7765 137.739 46.902 137.739 47.1404V53.0624C137.739 53.5392 137.954 53.7776 138.383 53.7776C138.574 53.7844 138.766 53.7633 138.951 53.7148C139.203 53.7148 139.342 53.7901 139.355 54.0159L139.544 55.5843C139.553 55.63 139.552 55.6771 139.542 55.7225C139.531 55.7679 139.51 55.8104 139.482 55.8473C139.453 55.8841 139.417 55.9144 139.375 55.9362C139.334 55.9579 139.288 55.9705 139.241 55.9732C138.773 56.1266 138.283 56.207 137.79 56.2116Z" fill="#1E1B1B"/>
<path id="Vector_6" d="M147.345 46.4754C148.007 46.4493 148.668 46.5559 149.288 46.7886C149.908 47.0214 150.475 47.3757 150.955 47.8304C151.847 48.7826 152.343 50.0357 152.343 51.3372C152.343 52.6387 151.847 53.8918 150.955 54.844C150.477 55.3027 149.911 55.6604 149.291 55.8955C148.67 56.1306 148.008 56.2381 147.345 56.2115C146.4 56.2324 145.473 55.9461 144.707 55.396V59.9254C144.707 60.1637 144.581 60.2767 144.341 60.2767H142.22C142.172 60.2857 142.122 60.2828 142.075 60.2683C142.028 60.2538 141.985 60.2282 141.95 60.1936C141.916 60.159 141.89 60.1165 141.875 60.0697C141.861 60.023 141.858 59.9735 141.867 59.9254V49.6371C141.882 49.5365 141.873 49.4338 141.841 49.3372C141.808 49.2407 141.754 49.1529 141.682 49.081C141.609 49.0091 141.521 48.955 141.424 48.923C141.327 48.891 141.223 48.8821 141.122 48.8969H140.706C140.428 48.8969 140.289 48.7965 140.289 48.5957V47.1152C140.283 47.0236 140.308 46.9325 140.361 46.8572C140.413 46.7819 140.491 46.7268 140.579 46.7012C141.016 46.5434 141.478 46.4669 141.943 46.4754C142.406 46.4346 142.871 46.5322 143.278 46.7558C143.685 46.9793 144.015 47.3185 144.227 47.73C144.634 47.3212 145.12 46.9991 145.656 46.7834C146.192 46.5676 146.767 46.4628 147.345 46.4754ZM145.376 53.2129C145.601 53.4467 145.871 53.6328 146.17 53.7599C146.47 53.887 146.792 53.9525 147.118 53.9525C147.443 53.9525 147.765 53.887 148.065 53.7599C148.364 53.6328 148.634 53.4467 148.859 53.2129C149.333 52.6873 149.583 51.9986 149.554 51.2933C149.587 50.5873 149.337 49.8971 148.859 49.3736C148.634 49.1398 148.364 48.9538 148.065 48.8266C147.765 48.6995 147.443 48.634 147.118 48.634C146.792 48.634 146.47 48.6995 146.17 48.8266C145.871 48.9538 145.601 49.1398 145.376 49.3736C144.916 49.9063 144.677 50.5923 144.707 51.2933C144.681 51.9937 144.92 52.6783 145.376 53.2129Z" fill="#1E1B1B"/>
<path id="Vector_7" d="M158.301 56.2116C157.168 56.2579 156.044 55.9884 155.057 55.4337C154.661 55.1965 154.324 54.8738 154.07 54.4893C153.817 54.1049 153.653 53.6686 153.593 53.2129C153.593 52.962 153.681 52.8365 153.959 52.8365H155.814C155.902 52.84 155.988 52.8675 156.062 52.9162C156.135 52.9649 156.194 53.0329 156.231 53.1126C156.496 53.7901 157.19 54.1288 158.301 54.1288C158.688 54.1464 159.074 54.0689 159.424 53.903C159.545 53.8488 159.649 53.7629 159.724 53.6546C159.8 53.5464 159.844 53.4197 159.853 53.2882C159.853 52.962 159.651 52.7362 159.247 52.5856C158.768 52.4271 158.273 52.3219 157.771 52.2719C157.175 52.205 156.585 52.1002 156.004 51.9583C155.438 51.831 154.924 51.5382 154.527 51.1176C154.293 50.8318 154.121 50.5012 154.022 50.1465C153.922 49.7918 153.897 49.4205 153.948 49.0556C153.999 48.6908 154.124 48.3403 154.317 48.026C154.51 47.7116 154.766 47.44 155.07 47.2282C155.979 46.6521 157.047 46.3715 158.124 46.4252C159.167 46.3901 160.199 46.6466 161.103 47.1654C161.467 47.3705 161.781 47.6537 162.021 47.9945C162.261 48.3352 162.422 48.725 162.491 49.1353C162.491 49.3862 162.378 49.5117 162.15 49.5117H160.282C160.204 49.5163 160.126 49.4972 160.058 49.4569C159.99 49.4166 159.937 49.357 159.904 49.2858C159.779 48.9887 159.544 48.7506 159.247 48.6209C158.913 48.4469 158.539 48.3605 158.162 48.3699C157.792 48.3499 157.423 48.4233 157.089 48.5832C156.971 48.6283 156.87 48.7074 156.798 48.8103C156.726 48.9131 156.687 49.0351 156.685 49.1604C156.693 49.3319 156.756 49.4964 156.865 49.6297C156.974 49.7629 157.124 49.8579 157.291 49.9006C157.776 50.0822 158.28 50.2085 158.793 50.277C159.383 50.3542 159.969 50.4631 160.547 50.6032C161.113 50.7305 161.627 51.0233 162.024 51.4439C162.236 51.6755 162.4 51.9467 162.507 52.2418C162.613 52.5368 162.659 52.8498 162.643 53.1627C162.654 53.5965 162.551 54.0256 162.345 54.4082C162.14 54.7908 161.838 55.1139 161.469 55.3459C160.526 55.9476 159.421 56.2496 158.301 56.2116Z" fill="#1E1B1B"/>
<path id="Vector_8" d="M175.984 55.5841C175.991 55.6287 175.989 55.6742 175.979 55.718C175.968 55.7618 175.948 55.8031 175.921 55.8393C175.894 55.8755 175.86 55.906 175.821 55.929C175.782 55.952 175.739 55.9669 175.694 55.9731C175.233 56.1226 174.752 56.203 174.268 56.2114C173.788 56.2608 173.303 56.1863 172.861 55.9951C172.419 55.8038 172.034 55.5024 171.743 55.1199C170.852 55.8819 169.699 56.2728 168.525 56.2114C167.979 56.2364 167.435 56.1477 166.926 55.9511C166.418 55.7545 165.956 55.4542 165.571 55.0697C165.189 54.6668 164.892 54.1913 164.699 53.6717C164.506 53.1521 164.421 52.5992 164.448 52.046V47.1402C164.448 46.9018 164.561 46.7764 164.801 46.7764H166.922C167.161 46.7764 167.275 46.9018 167.275 47.1402V51.6696C167.252 52.2339 167.446 52.7857 167.818 53.2128C168.003 53.4085 168.229 53.5623 168.479 53.664C168.73 53.7658 168.999 53.813 169.269 53.8025C169.546 53.8145 169.822 53.7719 170.082 53.6772C170.342 53.5824 170.581 53.4374 170.784 53.2504C170.976 53.0534 171.126 52.8193 171.224 52.5624C171.321 52.3056 171.365 52.0316 171.352 51.7574V47.1402C171.352 46.9018 171.466 46.7764 171.705 46.7764H173.851C174.091 46.7764 174.204 46.9018 174.204 47.1402V53.0497C174.204 53.539 174.419 53.7774 174.836 53.7774C175.031 53.7849 175.227 53.7638 175.416 53.7147C175.464 53.7014 175.514 53.699 175.563 53.7077C175.612 53.7164 175.658 53.736 175.698 53.7649C175.738 53.7939 175.771 53.8315 175.794 53.875C175.818 53.9184 175.831 53.9666 175.833 54.0158L175.984 55.5841Z" fill="#1E1B1B"/>
<path id="Vector_9" d="M196.04 55.5842C196.051 55.6292 196.052 55.676 196.043 55.7214C196.034 55.7668 196.015 55.8096 195.987 55.8468C195.959 55.884 195.924 55.9146 195.883 55.9365C195.842 55.9583 195.796 55.9708 195.75 55.9732C195.281 56.1248 194.791 56.2052 194.298 56.2116C193.548 56.2501 192.806 56.0381 192.19 55.6093C191.924 55.4257 191.708 55.1796 191.56 54.8929C191.413 54.6062 191.339 54.2877 191.345 53.9657V51.0173C191.371 50.4546 191.182 49.903 190.814 49.474C190.637 49.2779 190.419 49.1233 190.174 49.0213C189.93 48.9194 189.666 48.8726 189.401 48.8843C189.162 48.8754 188.924 48.9204 188.706 49.016C188.487 49.1117 188.293 49.2554 188.139 49.4364C187.805 49.8568 187.635 50.3822 187.659 50.9169V55.5466C187.659 55.785 187.545 55.9104 187.306 55.9104H185.172C185.123 55.9166 185.073 55.9113 185.025 55.8952C184.978 55.8791 184.935 55.8525 184.9 55.8174C184.865 55.7823 184.838 55.7397 184.822 55.6927C184.806 55.6458 184.8 55.5958 184.806 55.5466V51.0173C184.834 50.4608 184.659 49.913 184.314 49.474C184.16 49.2896 183.967 49.1412 183.749 49.0392C183.531 48.9373 183.293 48.8844 183.052 48.8843C182.795 48.874 182.538 48.9178 182.298 49.013C182.059 49.1081 181.843 49.2524 181.664 49.4364C181.303 49.8434 181.117 50.375 181.146 50.9169V55.5466C181.152 55.5958 181.147 55.6458 181.131 55.6927C181.115 55.7397 181.088 55.7823 181.052 55.8174C181.017 55.8525 180.974 55.8791 180.927 55.8952C180.88 55.9113 180.83 55.9166 180.78 55.9104H178.723C178.483 55.9104 178.369 55.785 178.369 55.5466V49.6371C178.384 49.5365 178.375 49.4338 178.343 49.3373C178.311 49.2407 178.256 49.153 178.184 49.081C178.112 49.0091 178.023 48.955 177.926 48.923C177.829 48.8911 177.726 48.8821 177.625 48.8969H177.208C176.93 48.8969 176.792 48.7965 176.792 48.5958V47.1152C176.785 47.0236 176.81 46.9326 176.863 46.8572C176.916 46.7819 176.993 46.7268 177.082 46.7012C177.518 46.5434 177.981 46.4669 178.445 46.4754C178.891 46.4376 179.338 46.526 179.736 46.7302C180.133 46.9344 180.465 47.2463 180.692 47.6297C181.118 47.2285 181.622 46.9189 182.174 46.7203C182.725 46.5217 183.312 46.4383 183.898 46.4754C184.466 46.4478 185.034 46.5538 185.553 46.7849C186.073 47.016 186.531 47.3655 186.889 47.8053C187.307 47.354 187.82 47.0006 188.392 46.7706C188.964 46.5406 189.58 46.4398 190.196 46.4754C190.747 46.4497 191.297 46.538 191.812 46.7345C192.327 46.931 192.795 47.2316 193.187 47.6171C193.571 48.0192 193.868 48.4946 194.061 49.0144C194.254 49.5341 194.339 50.0875 194.311 50.6409V53.0624C194.311 53.5391 194.525 53.7775 194.929 53.7775C195.125 53.7866 195.321 53.7654 195.51 53.7148C195.771 53.7148 195.91 53.8152 195.926 54.0159L196.04 55.5842Z" fill="#1E1B1B"/>
<path id="Vector_10" d="M48.0356 45.1456C48.9668 41.4251 51.1234 38.1212 54.1621 35.7601C57.2008 33.3989 60.9468 32.1162 64.8037 32.1162C68.6607 32.1162 72.4067 33.3989 75.4454 35.7601C78.4841 38.1212 80.6407 41.4251 81.5719 45.1456H80.0573C77.5022 45.1082 74.9995 45.8672 72.9007 47.3161C72.7796 47.4033 72.6531 47.4829 72.522 47.5545H72.3453C72.2143 47.4829 72.0878 47.4033 71.9667 47.3161C69.8492 45.9008 67.3554 45.1448 64.8037 45.1448C62.2521 45.1448 59.7583 45.9008 57.6408 47.3161C57.5197 47.4033 57.3932 47.4829 57.2622 47.5545H57.0855C56.9544 47.4829 56.8279 47.4033 56.7068 47.3161C54.608 45.8672 52.1053 45.1082 49.5502 45.1456H48.0356ZM77.331 53.0123C78.1085 52.4104 79.0722 52.0955 80.0573 52.1215H82.0894V48.094H80.0573C78.3221 48.0732 76.6265 48.6101 75.2231 49.6247C74.4334 50.2035 73.478 50.5157 72.4968 50.5157C71.5156 50.5157 70.5602 50.2035 69.7705 49.6247C68.3315 48.629 66.6202 48.0952 64.8669 48.0952C63.1135 48.0952 61.4023 48.629 59.9633 49.6247C59.1735 50.2035 58.2181 50.5157 57.2369 50.5157C56.2558 50.5157 55.3003 50.2035 54.5106 49.6247C53.0899 48.5971 51.37 48.0595 49.6133 48.094H47.5181V52.1215H49.5502C50.5353 52.0955 51.499 52.4104 52.2765 53.0123C53.7129 54.0087 55.4223 54.543 57.1738 54.543C58.9254 54.543 60.6347 54.0087 62.0711 53.0123C62.8496 52.4123 63.8126 52.0976 64.7974 52.1215C65.7829 52.0934 66.7473 52.4085 67.5238 53.0123C68.9628 54.0081 70.674 54.5418 72.4274 54.5418C74.1807 54.5418 75.892 54.0081 77.331 53.0123ZM77.331 60.2141C78.1085 59.6122 79.0722 59.2973 80.0573 59.3233H82.0894V55.2958H80.0573C78.3221 55.2749 76.6265 55.8118 75.2231 56.8265C74.4334 57.4053 73.478 57.7175 72.4968 57.7175C71.5156 57.7175 70.5602 57.4053 69.7705 56.8265C68.3315 55.8308 66.6202 55.297 64.8669 55.297C63.1135 55.297 61.4023 55.8308 59.9633 56.8265C59.1735 57.4053 58.2181 57.7175 57.2369 57.7175C56.2558 57.7175 55.3003 57.4053 54.5106 56.8265C53.0899 55.7989 51.37 55.2613 49.6133 55.2958H47.5181V59.3233H49.5502C50.5353 59.2973 51.499 59.6122 52.2765 60.2141C53.7129 61.2105 55.4223 61.7448 57.1738 61.7448C58.9254 61.7448 60.6347 61.2105 62.0711 60.2141C62.8496 59.614 63.8126 59.2994 64.7974 59.3233C65.7829 59.2952 66.7473 59.6103 67.5238 60.2141C68.9628 61.2099 70.674 61.7436 72.4274 61.7436C74.1807 61.7436 75.892 61.2099 77.331 60.2141Z" fill="#1E1B1B"/>
</g>
</svg>
