<svg width="224" height="95" viewBox="0 0 224 95" fill="none" xmlns="http://www.w3.org/2000/svg">
<g id="logo-7 1">
<path id="Vector" d="M88.04 40.031H91.847V55.3964H88.04V40.031ZM93.357 49.5948C93.357 45.7946 95.692 43.5272 99.2959 43.5272C102.9 43.5272 105.235 45.7946 105.235 49.5948C105.235 53.395 102.951 55.6751 99.2959 55.6751C95.6412 55.6751 93.357 53.4583 93.357 49.5948ZM101.415 49.5948C101.415 47.5047 100.59 46.276 99.2959 46.276C98.0015 46.276 97.1894 47.5427 97.1894 49.5948C97.1894 51.6469 97.9888 52.8883 99.2959 52.8883C100.603 52.8883 101.415 51.7229 101.415 49.6075V49.5948ZM106.669 56.1438H110.323C110.497 56.5295 110.791 56.8489 111.162 57.0543C111.532 57.2597 111.959 57.3402 112.379 57.2839C113.826 57.2839 114.587 56.4985 114.587 55.3584V53.2303H114.511C114.208 53.8826 113.715 54.4291 113.098 54.7994C112.48 55.1697 111.766 55.3468 111.047 55.3078C108.268 55.3078 106.427 53.1923 106.427 49.5568C106.427 45.9213 108.179 43.6285 111.097 43.6285C111.839 43.5995 112.572 43.7975 113.198 44.1959C113.824 44.5944 114.313 45.1743 114.6 45.858V43.7425H118.407V55.2698C118.407 58.0439 115.958 59.7667 112.341 59.7667C108.978 59.7667 106.884 58.2592 106.669 56.1565V56.1438ZM114.6 49.5821C114.6 47.7327 113.749 46.5673 112.404 46.5673C111.059 46.5673 110.234 47.7201 110.234 49.5821C110.234 51.4442 111.047 52.4956 112.404 52.4956C113.762 52.4956 114.6 51.4696 114.6 49.5948V49.5821ZM119.841 49.5821C119.841 45.782 122.175 43.5145 125.779 43.5145C129.383 43.5145 131.731 45.782 131.731 49.5821C131.731 53.3823 129.447 55.6624 125.779 55.6624C122.112 55.6624 119.841 53.4583 119.841 49.5948V49.5821ZM127.899 49.5821C127.899 47.492 127.074 46.2633 125.779 46.2633C124.485 46.2633 123.736 47.5427 123.736 49.6075C123.736 51.6723 124.536 52.901 125.83 52.901C127.124 52.901 127.899 51.7229 127.899 49.6075V49.5821ZM133.178 40.9811C133.168 40.5974 133.272 40.2194 133.477 39.895C133.683 39.5706 133.98 39.3144 134.332 39.1589C134.683 39.0034 135.073 38.9556 135.452 39.0215C135.831 39.0874 136.181 39.2641 136.459 39.5292C136.737 39.7943 136.93 40.1359 137.014 40.5106C137.097 40.8853 137.067 41.2762 136.928 41.6339C136.788 41.9915 136.545 42.2998 136.23 42.5196C135.915 42.7394 135.542 42.8608 135.157 42.8685C134.902 42.886 134.647 42.8506 134.406 42.7648C134.166 42.6789 133.945 42.5443 133.76 42.3694C133.574 42.1945 133.426 41.9832 133.326 41.7486C133.226 41.5141 133.175 41.2614 133.178 41.0064V40.9811ZM133.178 43.7679H136.984V55.3964H133.178V43.7679ZM150.804 49.5821C150.804 53.3823 149.116 55.5484 146.223 55.5484C145.481 55.596 144.742 55.4149 144.107 55.0298C143.471 54.6447 142.969 54.074 142.669 53.395H142.593V59.1206H138.786V43.7425H142.593V45.82H142.669C142.955 45.1297 143.448 44.5442 144.079 44.1431C144.71 43.7419 145.45 43.5445 146.197 43.5778C149.116 43.6285 150.854 45.8073 150.854 49.6075L150.804 49.5821ZM146.997 49.5821C146.997 47.7327 146.146 46.5547 144.814 46.5547C143.482 46.5547 142.631 47.7454 142.619 49.5821C142.606 51.4189 143.482 52.597 144.814 52.597C146.146 52.597 146.997 51.4442 146.997 49.6075V49.5821ZM157.339 43.5018C160.499 43.5018 162.415 44.9966 162.504 47.3907H159.039C159.039 46.5673 158.354 46.048 157.301 46.048C156.247 46.048 155.778 46.4533 155.778 47.0487C155.778 47.6441 156.197 47.8341 157.047 48.0114L159.483 48.5054C161.806 48.9994 162.795 49.9368 162.795 51.6976C162.795 54.1044 160.6 55.6498 157.364 55.6498C154.128 55.6498 152.009 54.1044 151.844 51.7356H155.511C155.626 52.597 156.311 53.1037 157.428 53.1037C158.544 53.1037 159.052 52.7363 159.052 52.1283C159.052 51.5202 158.697 51.3936 157.783 51.2036L155.588 50.7349C153.316 50.2662 152.123 49.0628 152.123 47.2894C152.149 45.0093 154.192 43.5272 157.339 43.5272V43.5018ZM175.498 55.3711H171.831V53.205H171.754C171.553 53.9323 171.108 54.5688 170.494 55.0089C169.88 55.449 169.134 55.6662 168.379 55.6244C167.801 55.6573 167.222 55.5658 166.682 55.3562C166.142 55.1466 165.653 54.8237 165.249 54.4094C164.845 53.9951 164.535 53.4991 164.339 52.9547C164.143 52.4104 164.067 51.8305 164.115 51.2542V43.7425H167.922V50.3802C167.922 51.7609 168.633 52.4956 169.813 52.4956C170.09 52.4962 170.363 52.4377 170.615 52.3241C170.868 52.2104 171.093 52.0443 171.275 51.8368C171.458 51.6292 171.594 51.3851 171.675 51.1208C171.755 50.8565 171.778 50.5781 171.742 50.3042V43.7425H175.549L175.498 55.3711ZM177.338 43.7425H181.018V45.9846H181.094C181.296 45.267 181.731 44.6365 182.33 44.1918C182.929 43.7471 183.659 43.5134 184.406 43.5272C185.166 43.4665 185.92 43.6934 186.52 44.1628C187.119 44.6323 187.52 45.3098 187.642 46.0606H187.718C187.948 45.3018 188.425 44.641 189.073 44.1823C189.721 43.7236 190.503 43.4931 191.297 43.5272C191.814 43.5098 192.33 43.6014 192.81 43.7959C193.29 43.9905 193.723 44.2836 194.082 44.6564C194.441 45.0291 194.718 45.4731 194.894 45.9594C195.07 46.4458 195.141 46.9637 195.104 47.4794V55.3964H191.297V48.4928C191.297 47.226 190.726 46.6433 189.66 46.6433C189.422 46.6413 189.187 46.6902 188.969 46.7868C188.752 46.8833 188.558 47.0252 188.401 47.2028C188.243 47.3805 188.126 47.5899 188.056 47.8168C187.986 48.0437 187.966 48.2828 187.997 48.5181V55.3964H184.381V48.4421C184.381 47.2767 183.81 46.6433 182.769 46.6433C182.529 46.6434 182.291 46.6944 182.072 46.7928C181.853 46.8913 181.657 47.0351 181.497 47.2146C181.338 47.3942 181.218 47.6055 181.147 47.8345C181.075 48.0636 181.053 48.3052 181.081 48.5434V55.3964H177.274L177.338 43.7425Z" fill="#1E1B1B"/>
<path id="Vector_2" d="M77.3933 40.7278C76.7476 39.2538 75.8928 37.8801 74.8554 36.6489C73.3218 34.7746 71.4079 33.2457 69.2397 32.163C67.0716 31.0802 64.6983 30.468 62.276 30.3668C59.8538 30.2656 57.4375 30.6776 55.1863 31.5757C52.9351 32.4738 50.8999 33.8376 49.2147 35.5775C47.5295 37.3173 46.2326 39.3936 45.4092 41.6699C44.5858 43.9461 44.2547 46.3706 44.4376 48.7837C44.6205 51.1969 45.3133 53.5441 46.4704 55.6707C47.6275 57.7973 49.2227 59.6552 51.1509 61.1222C52.3882 62.0822 53.7553 62.8626 55.2116 63.4403C57.2535 64.2755 59.4387 64.7058 61.6454 64.707C66.2002 64.6969 70.5653 62.8845 73.7837 59.6671C77.0021 56.4496 78.8112 52.0896 78.8146 47.5428C78.8179 45.1975 78.334 42.877 77.3933 40.7278ZM61.6327 33.8495C63.6142 33.8493 65.5719 34.2816 67.3684 35.1162C66.9303 35.3052 66.4697 35.4371 65.9979 35.5089C64.4455 35.7332 63.0073 36.4527 61.8981 37.5599C60.7889 38.6672 60.0681 40.1028 59.8434 41.6525C59.7448 42.5217 59.3488 43.3302 58.7223 43.9417C58.0958 44.5533 57.2771 44.9304 56.4045 45.0094C54.852 45.2337 53.4138 45.9532 52.3046 47.0604C51.1954 48.1676 50.4747 49.6033 50.25 51.153C50.1739 51.9794 49.8206 52.756 49.2475 53.3571C48.2585 51.2711 47.8142 48.9693 47.956 46.6659C48.0978 44.3624 48.821 42.1322 50.0583 40.1828C51.2956 38.2334 53.0069 36.6281 55.0328 35.5163C57.0587 34.4045 59.3335 33.8224 61.6454 33.8241L61.6327 33.8495ZM51.1382 56.4099C51.2905 56.2706 51.4428 56.1439 51.5951 55.9919C52.724 54.8993 53.4487 53.457 53.6508 51.9004C53.7328 51.0254 54.1241 50.2081 54.7548 49.5949C55.3617 48.9643 56.1786 48.5769 57.0517 48.5055C58.6041 48.2812 60.0423 47.5617 61.1515 46.4545C62.2607 45.3472 62.9815 43.9116 63.2062 42.3619C63.2611 41.4467 63.6545 40.5845 64.3102 39.9424C64.9321 39.3241 65.7567 38.9507 66.6324 38.8911C68.0587 38.6952 69.3888 38.0623 70.4394 37.0796C71.6356 38.0703 72.6491 39.2621 73.4341 40.6011C73.3859 40.6662 73.3306 40.7257 73.2692 40.7785C72.6634 41.4146 71.8476 41.8106 70.9723 41.8932C69.4183 42.1136 67.9779 42.8318 66.868 43.9398C65.7581 45.0477 65.0386 46.4855 64.8178 48.0368C64.7284 48.9089 64.3397 49.7233 63.7175 50.342C63.0954 50.9607 62.2782 51.3456 61.4043 51.4317C59.8472 51.6543 58.4037 52.3723 57.2881 53.4791C56.1725 54.5859 55.4443 56.0225 55.2116 57.5753C55.1434 58.1944 54.9304 58.7888 54.5898 59.3107C53.2879 58.5391 52.1218 57.5591 51.1382 56.4099ZM61.6327 61.2995C60.345 61.3009 59.0635 61.1218 57.8257 60.7675C58.2491 59.9796 58.5244 59.1209 58.6379 58.234C58.7268 57.3639 59.1137 56.551 59.7332 55.9326C60.3528 55.3141 61.1671 54.9279 62.0387 54.8392C63.5935 54.6174 65.0345 53.899 66.1462 52.7915C67.2579 51.6841 67.9806 50.2471 68.206 48.6955C68.2949 47.8254 68.6818 47.0126 69.3013 46.3941C69.9209 45.7757 70.7352 45.3895 71.6068 45.3007C72.7768 45.1488 73.892 44.7139 74.8554 44.034C75.3903 46.0581 75.4537 48.1776 75.0406 50.23C74.6276 52.2824 73.749 54.213 72.4724 55.8738C71.1958 57.5346 69.5551 58.8814 67.6761 59.811C65.7971 60.7405 63.7297 61.228 61.6327 61.2362V61.2995Z" fill="#1E1B1B"/>
</g>
</svg>
